<svg width="64" height="64" viewBox="0 0 64 64" fill="none" xmlns="http://www.w3.org/2000/svg">
<g id="Frame" clip-path="url(#clip0_69_810)">
<path id="Vector" d="M45.3335 8.90666C49.3555 11.2289 52.7013 14.5614 55.0397 18.5741C57.378 22.5869 58.6278 27.1407 58.6653 31.7849C58.7028 36.4291 57.5268 41.0025 55.2536 45.0525C52.9803 49.1025 49.6888 52.4886 45.7048 54.8755C41.7208 57.2625 37.1825 58.5675 32.5391 58.6615C27.8957 58.7555 23.3083 57.6351 19.231 55.4113C15.1537 53.1875 11.7278 49.9374 9.29261 45.9827C6.8574 42.028 5.49725 37.5059 5.34683 32.864L5.3335 32L5.34683 31.136C5.49617 26.5306 6.83629 22.0426 9.23653 18.1093C11.6368 14.1761 15.0152 10.9319 19.0425 8.69302C23.0698 6.45417 27.6086 5.29706 32.2162 5.3345C36.8238 5.37194 41.3431 6.60266 45.3335 8.90666ZM41.8855 24.7813C41.4263 24.3222 40.8154 24.0464 40.1673 24.0056C39.5192 23.9649 38.8786 24.162 38.3655 24.56L38.1148 24.7813L29.3335 33.56L25.8855 30.1147L25.6348 29.8933C25.1217 29.4956 24.4812 29.2987 23.8332 29.3396C23.1853 29.3805 22.5746 29.6563 22.1155 30.1154C21.6565 30.5744 21.3806 31.1852 21.3398 31.8331C21.2989 32.481 21.4958 33.1216 21.8935 33.6347L22.1148 33.8853L27.4482 39.2187L27.6988 39.44C28.1665 39.8028 28.7416 39.9998 29.3335 39.9998C29.9254 39.9998 30.5005 39.8028 30.9682 39.44L31.2188 39.2187L41.8855 28.552L42.1068 28.3013C42.5048 27.7883 42.702 27.1476 42.6612 26.4995C42.6204 25.8514 42.3446 25.2405 41.8855 24.7813Z" fill="#00509D"/>
</g>
<defs>
<clipPath id="clip0_69_810">
<rect width="64" height="64" fill="white"/>
</clipPath>
</defs>
</svg>
