<svg width="291" height="64" viewBox="0 0 291 64" fill="none" xmlns="http://www.w3.org/2000/svg">
<path d="M156.663 55.443C156.621 55.5105 156.575 55.5654 156.533 55.5949C156.486 55.6287 156.427 55.6456 156.36 55.6456C156.288 55.6456 156.204 55.616 156.115 55.5527C156.026 55.4895 155.912 55.4219 155.782 55.346C155.651 55.27 155.49 55.2025 155.309 55.1392C155.127 55.0759 154.912 55.0422 154.663 55.0422C154.431 55.0422 154.229 55.0717 154.056 55.1308C153.883 55.1899 153.735 55.27 153.613 55.3713C153.494 55.4768 153.402 55.5992 153.343 55.7384C153.283 55.8776 153.254 56.0338 153.254 56.1983C153.254 56.4093 153.309 56.5865 153.423 56.7257C153.537 56.865 153.68 56.9873 153.866 57.0844C154.047 57.1857 154.258 57.27 154.495 57.346C154.731 57.4219 154.967 57.5021 155.212 57.5865C155.457 57.6709 155.697 57.7679 155.929 57.8734C156.161 57.9789 156.372 58.1181 156.554 58.2827C156.735 58.4473 156.883 58.6498 156.997 58.8903C157.111 59.1308 157.166 59.4177 157.166 59.7637C157.166 60.135 157.102 60.481 156.976 60.8017C156.849 61.1266 156.663 61.4093 156.423 61.6456C156.182 61.8819 155.887 62.0759 155.533 62.2152C155.182 62.3544 154.777 62.4219 154.33 62.4219C154.064 62.4219 153.807 62.3966 153.554 62.346C153.3 62.2954 153.06 62.2194 152.832 62.1266C152.604 62.0338 152.389 61.9156 152.186 61.7848C151.988 61.6498 151.807 61.4979 151.65 61.3333L152.043 60.6878C152.077 60.6329 152.123 60.5907 152.174 60.5612C152.228 60.5316 152.288 60.5148 152.351 60.5148C152.439 60.5148 152.537 60.557 152.646 60.6371C152.756 60.7173 152.883 60.8101 153.034 60.9072C153.186 61.0042 153.372 61.0971 153.587 61.1772C153.802 61.2616 154.06 61.2996 154.359 61.2996C154.849 61.2996 155.229 61.1814 155.495 60.9409C155.76 60.7004 155.895 60.3713 155.895 59.9536C155.895 59.7173 155.841 59.5274 155.727 59.3797C155.617 59.2321 155.469 59.1055 155.284 59.0084C155.102 58.9072 154.891 58.8228 154.655 58.7553C154.419 58.6878 154.182 58.6118 153.938 58.5316C153.693 58.4515 153.456 58.3587 153.22 58.2532C152.984 58.1477 152.777 58.0084 152.596 57.8354C152.414 57.6625 152.266 57.4515 152.153 57.1983C152.039 56.9451 151.984 56.6329 151.984 56.2532C151.984 55.9536 152.043 55.6624 152.161 55.3797C152.279 55.097 152.448 54.8481 152.676 54.6329C152.904 54.4177 153.178 54.2405 153.511 54.1097C153.845 53.9789 154.22 53.9114 154.642 53.9114C155.119 53.9114 155.558 53.9873 155.955 54.135C156.351 54.2827 156.697 54.4979 156.984 54.7764L156.655 55.4219L156.663 55.443Z" fill="black"/>
<path d="M161.128 62.3376H159.769V54.0211H161.128V62.3376Z" fill="black"/>
<path d="M171.066 58.2405V61.5317C170.238 62.1266 169.276 62.4262 168.179 62.4262C167.504 62.4262 166.896 62.3207 166.352 62.1097C165.808 61.8987 165.344 61.6076 164.955 61.2321C164.571 60.8565 164.272 60.4093 164.065 59.8903C163.858 59.3713 163.753 58.7975 163.753 58.1772C163.753 57.557 163.854 56.9747 164.052 56.4515C164.251 55.9283 164.538 55.481 164.913 55.1055C165.284 54.73 165.736 54.4388 166.263 54.2321C166.791 54.0253 167.386 53.9241 168.044 53.9241C168.378 53.9241 168.69 53.9494 168.977 54C169.264 54.0506 169.53 54.1224 169.779 54.2152C170.023 54.308 170.251 54.4177 170.462 54.5485C170.669 54.6793 170.859 54.827 171.032 54.9873L170.644 55.6034C170.58 55.7004 170.504 55.7595 170.407 55.7806C170.31 55.8017 170.209 55.7806 170.095 55.7131C169.985 55.6498 169.863 55.5781 169.741 55.5063C169.618 55.4346 169.47 55.3629 169.31 55.2996C169.15 55.2363 168.96 55.1857 168.749 55.1435C168.538 55.1013 168.285 55.0844 167.998 55.0844C167.559 55.0844 167.162 55.1561 166.812 55.2996C166.462 55.443 166.158 55.6498 165.909 55.9156C165.66 56.1814 165.466 56.5063 165.331 56.8903C165.196 57.27 165.128 57.6962 165.128 58.1646C165.128 58.6625 165.2 59.1055 165.344 59.4937C165.487 59.8861 165.69 60.2152 165.951 60.4852C166.213 60.7553 166.529 60.962 166.901 61.1055C167.272 61.249 167.686 61.3207 168.145 61.3207C168.487 61.3207 168.791 61.2827 169.061 61.211C169.331 61.1392 169.593 61.0338 169.85 60.903V59.2532H168.69C168.601 59.2532 168.534 59.2279 168.483 59.1814C168.432 59.135 168.407 59.0717 168.407 58.9958V58.2279H171.07L171.066 58.2405Z" fill="black"/>
<path d="M180.708 54.0211V62.3376H180.02C179.914 62.3376 179.826 62.3207 179.754 62.2827C179.682 62.2447 179.611 62.1857 179.547 62.1013L174.977 56.2321C174.99 56.3418 174.998 56.4557 175.003 56.5654C175.007 56.6751 175.011 56.7764 175.011 56.8692V62.3376H173.821V54.0211H174.526C174.585 54.0211 174.631 54.0211 174.673 54.0295C174.716 54.0338 174.749 54.0464 174.787 54.0633C174.821 54.0802 174.855 54.1013 174.884 54.1308C174.914 54.1603 174.948 54.1983 174.982 54.2447L179.556 60.1181C179.543 60 179.535 59.8819 179.53 59.7679C179.526 59.654 179.522 59.5443 179.522 59.443V54.0211H180.708Z" fill="black"/>
<path d="M190.801 62.3376H189.755C189.637 62.3376 189.54 62.308 189.468 62.249C189.396 62.1899 189.337 62.1139 189.299 62.0253L188.607 60.1899H185.025L184.333 62.0253C184.303 62.1013 184.248 62.173 184.172 62.2405C184.096 62.308 183.999 62.3376 183.885 62.3376H182.839L186.134 54.0211H187.502L190.801 62.3376ZM188.244 59.2194L187.101 56.1814C187.008 55.9452 186.915 55.6498 186.818 55.2869C186.776 55.4684 186.729 55.6329 186.679 55.7848C186.628 55.9367 186.582 56.0717 186.539 56.1857L185.396 59.2194H188.244Z" fill="black"/>
<path d="M197.73 61.2025V62.3333H192.924V54.0169H194.274V61.2025H197.726H197.73Z" fill="black"/>
<path d="M205.242 61.2447V62.3376H200.051V54.0211H205.237V55.1139H201.41V57.6203H204.469V58.6751H201.41V61.2447H205.246H205.242ZM205.039 51.6118L203.161 53.2616C203.094 53.3249 203.026 53.3629 202.963 53.3755C202.9 53.3924 202.824 53.3966 202.731 53.3966H201.836L203.106 51.8186C203.14 51.7679 203.174 51.73 203.212 51.7047C203.246 51.6793 203.284 51.6582 203.326 51.6414C203.368 51.6245 203.414 51.616 203.469 51.6118C203.524 51.6076 203.583 51.6076 203.651 51.6076H205.035L205.039 51.6118Z" fill="black"/>
<path d="M213.58 55.1477H210.985V62.3376H209.639V55.1477H207.039V54.0211H213.576V55.1477H213.58Z" fill="black"/>
<path d="M217.247 62.3376H215.888V54.0211H217.247V62.3376Z" fill="black"/>
<path d="M228.606 64H227.497C227.332 64 227.184 63.9789 227.058 63.9325C226.931 63.8903 226.813 63.8101 226.708 63.692L225.378 62.2321C224.961 62.3587 224.517 62.4219 224.036 62.4219C223.416 62.4219 222.851 62.3165 222.34 62.1055C221.83 61.8945 221.391 61.5992 221.028 61.2236C220.661 60.8481 220.378 60.4008 220.18 59.8819C219.981 59.3629 219.88 58.7933 219.88 58.1772C219.88 57.5612 219.981 56.9916 220.18 56.4726C220.378 55.9536 220.665 55.5063 221.028 55.1266C221.395 54.7511 221.83 54.4557 222.34 54.2447C222.851 54.0338 223.416 53.9283 224.036 53.9283C224.657 53.9283 225.226 54.0338 225.737 54.2447C226.248 54.4557 226.682 54.7511 227.049 55.1266C227.412 55.5021 227.695 55.9536 227.898 56.4726C228.096 56.9916 228.197 57.5612 228.197 58.1772C228.197 58.557 228.159 58.9198 228.083 59.2658C228.007 59.6118 227.893 59.9325 227.75 60.2321C227.602 60.5316 227.425 60.8017 227.214 61.0506C227.003 61.2996 226.762 61.5148 226.492 61.7004L228.611 64H228.606ZM221.256 58.1772C221.256 58.6582 221.319 59.0886 221.454 59.4726C221.585 59.8523 221.77 60.1772 222.015 60.4388C222.256 60.7004 222.551 60.903 222.893 61.0464C223.235 61.1857 223.619 61.2574 224.041 61.2574C224.463 61.2574 224.855 61.1857 225.197 61.0464C225.539 60.9072 225.83 60.7046 226.07 60.4388C226.311 60.173 226.497 59.8523 226.623 59.4726C226.75 59.0928 226.817 58.6582 226.817 58.1772C226.817 57.6962 226.754 57.27 226.623 56.8903C226.492 56.5105 226.311 56.1857 226.07 55.9198C225.83 55.654 225.539 55.4515 225.197 55.308C224.855 55.1646 224.471 55.0928 224.041 55.0928C223.61 55.0928 223.235 55.1646 222.893 55.308C222.551 55.4515 222.256 55.654 222.015 55.9198C221.77 56.1857 221.585 56.5105 221.454 56.8903C221.323 57.27 221.256 57.7004 221.256 58.1772Z" fill="black"/>
<path d="M234.105 61.2447C234.426 61.2447 234.712 61.1899 234.961 61.0844C235.215 60.9747 235.426 60.827 235.603 60.6329C235.78 60.4388 235.911 60.2068 236.004 59.9367C236.097 59.6667 236.143 59.3629 236.143 59.0338V54.0211H237.489V59.0338C237.489 59.5232 237.413 59.9747 237.257 60.3924C237.101 60.8101 236.877 61.1688 236.586 61.4684C236.295 61.7722 235.936 62.0084 235.523 62.1772C235.105 62.3502 234.632 62.4346 234.109 62.4346C233.586 62.4346 233.113 62.3502 232.695 62.1772C232.278 62.0042 231.923 61.7679 231.628 61.4684C231.337 61.1646 231.113 60.8059 230.957 60.3924C230.801 59.9789 230.725 59.5232 230.725 59.0338V54.0211H232.075V59.0295C232.075 59.3587 232.122 59.6625 232.214 59.9325C232.307 60.2025 232.438 60.4388 232.611 60.6329C232.784 60.827 232.995 60.9789 233.248 61.0844C233.501 61.1941 233.784 61.2447 234.105 61.2447Z" fill="black"/>
<path d="M245.713 61.2447V62.3376H240.523V54.0211H245.709V55.1139H241.882V57.6203H244.941V58.6751H241.882V61.2447H245.718H245.713Z" fill="black"/>
<path d="M255.128 54.0211C255.659 54.0211 256.115 54.0717 256.491 54.173C256.866 54.2743 257.179 54.4219 257.419 54.6076C257.66 54.7975 257.841 55.0253 257.955 55.2996C258.069 55.5696 258.124 55.8776 258.124 56.2152C258.124 56.4135 258.094 56.6034 258.035 56.7848C257.976 56.9663 257.883 57.1392 257.757 57.2996C257.63 57.4599 257.474 57.6034 257.284 57.73C257.094 57.8565 256.871 57.962 256.613 58.0464C257.79 58.2954 258.381 58.9241 258.381 59.9241C258.381 60.2785 258.314 60.6034 258.183 60.8987C258.052 61.1941 257.858 61.4473 257.605 61.6625C257.352 61.8776 257.044 62.0422 256.672 62.1603C256.301 62.2785 255.879 62.3376 255.406 62.3376H252.355V54.0211H255.124H255.128ZM253.714 55.076V57.6751H255.064C255.643 57.6751 256.073 57.5654 256.36 57.3418C256.647 57.1181 256.786 56.7975 256.786 56.3755C256.786 55.9156 256.651 55.5865 256.385 55.384C256.119 55.1814 255.697 55.076 255.128 55.076H253.714ZM255.389 61.2658C255.693 61.2658 255.951 61.2321 256.162 61.1603C256.373 61.0886 256.541 60.9916 256.676 60.8692C256.807 60.7468 256.904 60.5992 256.963 60.4346C257.022 60.27 257.052 60.0886 257.052 59.8945C257.052 59.5021 256.917 59.1941 256.651 58.9663C256.385 58.7426 255.959 58.6287 255.385 58.6287H253.714V61.2658H255.389Z" fill="black"/>
<path d="M264.145 59.0802V62.3376H262.799V59.0802L259.761 54.0211H260.947C261.065 54.0211 261.162 54.0506 261.23 54.1097C261.297 54.1688 261.356 54.2405 261.403 54.3291L263.107 57.308C263.183 57.4599 263.255 57.5992 263.318 57.7342C263.382 57.8692 263.441 58 263.487 58.1308C263.529 57.9958 263.58 57.8608 263.643 57.73C263.707 57.5992 263.774 57.4557 263.85 57.3038L265.542 54.3249C265.58 54.2489 265.635 54.1772 265.711 54.1139C265.787 54.0506 265.88 54.0169 265.994 54.0169H267.184L264.145 59.0759V59.0802Z" fill="black"/>
<path d="M274.21 62.3376H272.851V54.0211H274.21V62.3376Z" fill="black"/>
<path d="M281.691 55.443C281.649 55.5105 281.603 55.5654 281.56 55.5949C281.514 55.6287 281.455 55.6456 281.387 55.6456C281.316 55.6456 281.231 55.616 281.143 55.5527C281.054 55.4895 280.94 55.4219 280.809 55.346C280.679 55.27 280.518 55.2025 280.337 55.1392C280.155 55.0759 279.94 55.0422 279.691 55.0422C279.459 55.0422 279.256 55.0717 279.083 55.1308C278.91 55.1899 278.763 55.27 278.64 55.3713C278.522 55.4768 278.429 55.5992 278.37 55.7384C278.311 55.8776 278.282 56.0338 278.282 56.1983C278.282 56.4093 278.337 56.5865 278.45 56.7257C278.564 56.865 278.708 56.9873 278.894 57.0844C279.075 57.1857 279.286 57.27 279.522 57.346C279.759 57.4219 279.995 57.5021 280.24 57.5865C280.484 57.6709 280.725 57.7679 280.957 57.8734C281.189 57.9789 281.4 58.1181 281.582 58.2827C281.763 58.4473 281.911 58.6498 282.025 58.8903C282.139 59.1308 282.193 59.4177 282.193 59.7637C282.193 60.135 282.13 60.481 282.004 60.8017C281.877 61.1266 281.691 61.4093 281.451 61.6456C281.21 61.8819 280.915 62.0759 280.56 62.2152C280.21 62.3544 279.805 62.4219 279.358 62.4219C279.092 62.4219 278.834 62.3966 278.581 62.346C278.328 62.2954 278.088 62.2194 277.86 62.1266C277.632 62.0338 277.417 61.9156 277.214 61.7848C277.016 61.6498 276.834 61.4979 276.678 61.3333L277.071 60.6878C277.104 60.6329 277.151 60.5907 277.201 60.5612C277.256 60.5316 277.315 60.5148 277.379 60.5148C277.467 60.5148 277.564 60.557 277.674 60.6371C277.784 60.7173 277.91 60.8101 278.062 60.9072C278.214 61.0042 278.4 61.0971 278.615 61.1772C278.83 61.2616 279.088 61.2996 279.387 61.2996C279.877 61.2996 280.257 61.1814 280.522 60.9409C280.788 60.7004 280.923 60.3713 280.923 59.9536C280.923 59.7173 280.868 59.5274 280.754 59.3797C280.645 59.2321 280.497 59.1055 280.311 59.0084C280.13 58.9072 279.919 58.8228 279.683 58.7553C279.446 58.6878 279.21 58.6118 278.965 58.5316C278.721 58.4515 278.484 58.3587 278.248 58.2532C278.012 58.1477 277.805 58.0084 277.623 57.8354C277.442 57.6625 277.294 57.4515 277.18 57.1983C277.066 56.9451 277.012 56.6329 277.012 56.2532C277.012 55.9536 277.071 55.6624 277.189 55.3797C277.307 55.097 277.476 54.8481 277.704 54.6329C277.931 54.4177 278.206 54.2405 278.539 54.1097C278.872 53.9789 279.248 53.9114 279.67 53.9114C280.147 53.9114 280.586 53.9873 280.982 54.135C281.379 54.2827 281.725 54.4979 282.012 54.7764L281.683 55.4219L281.691 55.443Z" fill="black"/>
<path d="M286.156 55.1139V57.7764H289.409V58.8692H286.156V62.3418H284.797V54.0253H289.983V55.1181H286.156V55.1139Z" fill="black"/>
<path d="M25.9137 51.8228C40.2254 51.8228 51.8273 40.2219 51.8273 25.9114C51.8273 11.6009 40.2254 0 25.9137 0C11.6019 0 0 11.6009 0 25.9114C0 40.2219 11.6019 51.8228 25.9137 51.8228Z" fill="#FFD206"/>
<path d="M16.5753 10.1224V20.7637L25.4959 25.9114L16.5753 31.0633V41.7004L43.9279 25.9114L16.5753 10.1224Z" fill="white"/>
<path d="M63.322 45.1899V6.47679H71.5084V45.1941H63.322V45.1899Z" fill="black"/>
<path d="M77.7578 45.1899V26.6076C77.7578 20.7426 82.1844 17.6456 88.7672 17.6456C91.6451 17.6456 94.7973 19.4726 96.789 21.7384C99.1141 18.9747 101.988 17.6456 105.309 17.6456C110.617 17.6456 115.487 20.7426 115.487 26.6076V45.1899H108.077V29.038C108.077 26.27 106.807 24.6667 104.203 24.7215C102.874 24.7215 101.325 25.384 100.329 27.211V45.1857H92.9195V29.0338C92.9195 26.2658 91.6451 24.7173 89.0457 24.7173C86.4464 24.7173 85.172 26.2658 85.172 29.0338V45.1857H77.7578V45.1899Z" fill="black"/>
<path d="M120.686 62.3966V31.8059C120.686 23.9536 126.104 17.6456 133.961 17.6456C141.818 17.6456 147.127 23.9536 147.127 31.8059C147.127 39.0549 141.873 45.8565 134.294 45.8565C132.855 45.8565 131.421 45.4684 130.037 45.0802V37.6118C131.142 38.1097 132.307 38.443 133.856 38.443C137.451 38.443 140.05 35.6793 140.05 31.7511C140.05 27.8228 137.451 25.0591 134.075 25.0591C130.37 25.0591 127.771 27.8228 127.771 31.7511V62.3966H120.69H120.686Z" fill="black"/>
<path d="M151.439 45.1899V18.308H158.132V23.3966H158.242C159.457 19.9114 162.056 17.9747 165.044 17.9747H166.538V25.4979H164.825C161.284 25.4979 158.959 27.9325 158.959 32.0253V45.1899H151.435H151.439Z" fill="black"/>
<path d="M177.661 10.2911C177.661 13.1688 175.834 14.7679 173.458 14.7679C171.082 14.7679 169.251 13.1645 169.251 10.2911C169.251 7.41771 171.078 5.81012 173.458 5.81012C175.838 5.81012 177.661 7.41349 177.661 10.2911ZM169.918 45.1899V18.308H176.999V45.1899H169.918Z" fill="black"/>
<path d="M201.832 45.1899V29.481C201.832 24.0042 198.013 20.4093 193.422 20.4093C188.831 20.4093 185.012 24.0042 185.012 29.481V45.1899H182.91V29.2067C182.91 22.7342 187.556 18.4219 193.422 18.4219C199.287 18.4219 203.929 22.7342 203.929 29.2067V45.1899H201.828H201.832Z" fill="black"/>
<path d="M235.907 32.0802C235.907 39.4937 230.151 45.7426 222.631 45.7426C215.112 45.7426 209.356 39.4937 209.356 32.0802C209.356 24.6667 215.112 18.4177 222.631 18.4177C230.151 18.4177 235.907 24.6667 235.907 32.0802ZM211.567 32.0802C211.567 38.1646 216.213 43.7511 222.631 43.7511C229.05 43.7511 233.696 38.1646 233.696 32.0802C233.696 25.9958 229.05 20.4093 222.631 20.4093C216.213 20.4093 211.567 25.9958 211.567 32.0802Z" fill="black"/>
<path d="M262.791 18.9747L252.777 44.3629C252.389 45.3038 251.672 45.7468 250.288 45.7468C248.904 45.7468 248.186 45.3038 247.798 44.3629L237.784 18.9747H240.219L249.511 42.4262C249.845 43.2025 250.009 43.5316 250.283 43.5316C250.617 43.5316 250.781 43.2025 251.056 42.4262L260.348 18.9747H262.782H262.791Z" fill="black"/>
<path d="M287.899 45.1899V32.0802C287.899 25.9958 283.527 20.4093 277.223 20.4093C271.914 20.4093 266.66 25.3333 266.66 32.0802C266.66 38.827 271.914 43.7511 277.223 43.7511C280.708 43.7511 283.143 42.3122 285.409 39.9367V42.4219C283.805 43.7511 281.261 45.7426 277.223 45.7426C270.087 45.7426 264.445 39.9916 264.445 32.0802C264.445 24.1688 270.087 18.4177 277.223 18.4177C284.358 18.4177 290.004 24.1688 290.004 32.0802V45.1899H287.903H287.899Z" fill="black"/>
</svg>
