<svg width="405" height="384" viewBox="0 0 405 384" fill="none" xmlns="http://www.w3.org/2000/svg">
<path d="M202.09 383.255C313.701 383.255 404.18 333.205 404.18 271.465C404.18 209.725 313.701 159.675 202.09 159.675C90.4788 159.675 0 209.725 0 271.465C0 333.205 90.4788 383.255 202.09 383.255Z" fill="#F0F0F0"/>
<path d="M381.91 303.505L286.53 248.475L314.69 232.215C316.46 231.195 316.46 229.535 314.69 228.515L203.81 164.405C202.04 163.385 199.17 163.385 197.4 164.405L39.7801 255.575C38.0101 256.595 38.0101 258.255 39.7801 259.285L150.48 323.325C152.25 324.345 155.12 324.345 156.89 323.325L180.01 310.045L275.39 365.075L381.9 303.505H381.91Z" fill="#E0E0E0"/>
<path d="M45.5901 213.385C46.7401 205.505 43.4301 188.335 36.7501 176.905C30.0701 165.475 18.3001 156.105 8.71011 157.895C-0.229885 159.565 -0.939885 170.855 8.30011 179.765C17.5401 188.675 31.7001 200.235 34.3701 213.695L41.6001 230.785L45.5901 213.395V213.385Z" fill="#D6EBFF"/>
<g opacity="0.15">
<path d="M45.5901 213.385C46.7401 205.505 43.4301 188.335 36.7501 176.905C30.0701 165.475 18.3001 156.105 8.71011 157.895C-0.229885 159.565 -0.939885 170.855 8.30011 179.765C17.5401 188.675 31.7001 200.235 34.3701 213.695L41.6001 230.785L45.5901 213.395V213.385Z" fill="black"/>
</g>
<path d="M44.6002 224.255C44.3502 224.195 44.1602 223.985 44.1502 223.715C42.8102 196.025 24.2402 170.965 11.9202 164.225C11.6402 164.075 11.5302 163.715 11.6902 163.435C11.8402 163.155 12.1902 163.045 12.4802 163.205C25.0402 170.075 43.9602 195.555 45.3202 223.655C45.3402 223.975 45.0902 224.245 44.7702 224.265C44.7102 224.265 44.6602 224.265 44.6102 224.255H44.6002Z" fill="white"/>
<path d="M43.5202 249.825C42.9002 245.205 38.5602 237.105 30.6902 229.775C21.9802 221.675 10.1802 216.805 8.1102 211.195C5.6302 204.445 11.7602 199.315 21.5302 202.005C31.3002 204.695 46.8002 220.825 46.6102 241.675L43.5202 249.825Z" fill="#D6EBFF"/>
<path d="M46.1202 245.455C45.9002 245.405 45.7302 245.235 45.6802 245.005C40.8002 220.745 24.4002 210.075 16.4002 207.825C16.0902 207.735 15.9102 207.415 16.0002 207.105C16.0902 206.795 16.4002 206.615 16.7202 206.705C25.5602 209.195 41.8402 220.015 46.8202 244.775C46.8802 245.085 46.6802 245.395 46.3602 245.465C46.2802 245.485 46.1902 245.475 46.1202 245.465V245.455Z" fill="white"/>
<path d="M141.42 7.7653L135.31 11.2953C135.34 11.0253 135.36 10.7553 135.36 10.4853V8.7153C135.36 5.5653 133.15 4.2853 130.42 5.8653C129.31 6.5053 128.3 7.5153 127.47 8.6953C127.02 4.7353 123.91 3.2553 120.14 5.4353C116.06 7.7953 112.75 13.5253 112.75 18.2453V20.8953C112.75 22.1153 112.98 23.1453 113.38 23.9653L108.3 26.8953C106.79 27.7653 105.56 29.8953 105.56 31.6453C105.56 33.3953 106.79 34.1053 108.3 33.2253L141.42 14.1053C142.93 13.2353 144.16 11.1053 144.16 9.3553C144.16 7.6053 142.93 6.8953 141.42 7.7753V7.7653Z" fill="#EBEBEB"/>
<path d="M79.16 11.9753L75.79 13.2753V5.8453C75.79 -0.0447035 71.09 -1.4547 65.99 1.4853C60.89 4.4253 56.76 11.5853 56.76 17.4753V18.5553C55.6 18.0953 54.11 18.2753 52.47 19.2153C48.8 21.3353 45.83 26.4853 45.83 30.7253V31.2153L41.13 33.9253C38.71 35.3253 36.75 38.7153 36.75 41.5053C36.75 44.2953 38.71 45.4253 41.13 44.0353L79.16 22.0753C81.58 20.6753 83.54 17.2853 83.54 14.4953C83.54 11.7053 81.58 10.5753 79.16 11.9653V11.9753Z" fill="#EBEBEB"/>
<path d="M158.98 315.475L301.49 233.195C304.73 231.325 307.36 226.765 307.36 223.025V172.975C307.36 169.225 304.73 164.675 301.49 162.805L203.05 105.975C199.81 104.105 194.55 104.105 191.3 105.975L48.7899 188.245C45.5499 190.115 42.9199 194.675 42.9199 198.415V248.465C42.9199 252.215 45.5499 256.765 48.7899 258.635L147.23 315.465C150.47 317.335 155.73 317.335 158.98 315.465V315.475Z" fill="#D6EBFF"/>
<path d="M153.1 312.085V262.035C153.1 258.295 150.47 253.735 147.23 251.865L48.7899 195.035C45.5499 193.165 42.9199 194.685 42.9199 198.425V248.475C42.9199 252.225 45.5499 256.775 48.7899 258.645L147.23 315.475C150.47 317.345 153.1 315.825 153.1 312.085Z" fill="#263238"/>
<path d="M304.64 165.695L150.39 254.745C149.48 253.535 148.39 252.525 147.23 251.855L48.8 195.025C45.86 193.325 43.45 194.385 43 197.365C43.39 193.865 45.84 189.935 48.8 188.235L191.3 105.945C194.53 104.065 199.81 104.065 203.05 105.945L301.48 162.795C302.66 163.465 303.73 164.475 304.64 165.685V165.695Z" fill="#D6EBFF"/>
<path d="M304.64 165.695L150.39 254.745C149.48 253.535 148.39 252.525 147.23 251.855L48.8 195.025C45.86 193.325 43.45 194.385 43 197.365C43.39 193.865 45.84 189.935 48.8 188.235L191.3 105.945C194.53 104.065 199.81 104.065 203.05 105.945L301.48 162.795C302.66 163.465 303.73 164.475 304.64 165.685V165.695Z" fill="#455A64"/>
<path d="M307.35 172.975V223.015C307.35 226.765 304.73 231.335 301.48 233.185L158.98 315.475C155.99 317.175 151.36 317.325 148.12 315.895C150.93 317.055 153.1 315.475 153.1 312.075V262.035C153.1 259.615 152.01 256.875 150.39 254.755L304.64 165.705C306.29 167.855 307.35 170.595 307.35 172.985V172.975Z" fill="#37474F"/>
<path d="M276.94 189.795V203.035C276.94 206.035 274.84 209.675 272.25 211.175L192.21 257.405C189.62 258.905 187.51 257.695 187.51 254.695V241.455C187.51 238.955 186.72 236.565 185.29 234.595L274.74 182.945C276.15 184.905 276.94 187.295 276.94 189.785V189.795Z" fill="#D6EBFF"/>
<path opacity="0.15" d="M276.94 189.795V203.035C276.94 206.035 274.84 209.675 272.25 211.175L192.21 257.405C189.62 258.905 187.51 257.695 187.51 254.695V241.455C187.51 238.955 186.72 236.565 185.29 234.595L274.74 182.945C276.15 184.905 276.94 187.295 276.94 189.785V189.795Z" fill="black"/>
<path d="M274.73 182.955L185.28 234.605C184.34 233.275 183.11 232.135 181.63 231.285L115.07 192.855C112.48 191.365 112.48 188.925 115.07 187.435L195.11 141.195C197.7 139.705 201.91 139.705 204.5 141.195L271.06 179.625C272.53 180.475 273.77 181.615 274.73 182.955Z" fill="#D6EBFF"/>
<path d="M186.01 183.045C179.55 186.775 179.55 192.825 186.01 196.555C192.47 200.285 202.95 200.285 209.41 196.555C215.87 192.825 215.87 186.775 209.41 183.045C202.95 179.315 192.47 179.315 186.01 183.045Z" fill="#FAFAFA"/>
<path d="M174.67 285.335C174.67 282.755 176.48 279.625 178.71 278.335L288.11 215.175C290.34 213.885 292.15 214.935 292.15 217.505V238.575L174.67 306.415V285.335Z" fill="#263238"/>
<path d="M178.5 291.485V285.125L288.68 221.515V227.875L178.5 291.485Z" fill="black"/>
<path d="M75.9697 185.275L186.16 121.655L191.55 124.785L81.3797 188.395L75.9697 185.275Z" fill="#263238"/>
<path d="M78.5297 186.775L62.6997 116.775L172.88 53.1553L188.71 123.155L78.5297 186.775Z" fill="#37474F"/>
<path d="M62.7001 116.775L60.1401 115.265L75.9701 185.275L78.5301 186.775L62.7001 116.775Z" fill="#263238"/>
<path d="M60.1401 115.265L62.7001 116.775L172.88 53.1553L170.33 51.6553L60.1401 115.265Z" fill="#455A64"/>
<path d="M81.7198 184.925L62.5898 100.275L163.51 42.0153L182.64 126.665L81.7198 184.925Z" fill="#E0E0E0"/>
<path d="M84.5299 186.575L65.3999 101.915L166.31 43.6553L185.44 128.315L84.5299 186.575Z" fill="#FAFAFA"/>
<path d="M65.3998 101.915L62.5898 100.275L82.3798 187.825L84.5298 186.575L65.3998 101.915Z" fill="#E0E0E0"/>
<path d="M62.5898 100.275L65.3998 101.915L166.31 43.6553L163.51 42.0153L62.5898 100.275Z" fill="#EBEBEB"/>
<path d="M168.17 236.805V235.535C168.17 235.045 167.85 234.555 167.2 234.175L164.55 232.645C163.25 231.895 161.15 231.895 159.85 232.645L149.86 238.415C149.21 238.795 148.88 239.285 148.89 239.775V241.065C148.89 241.545 149.22 242.035 149.86 242.405L152.51 243.935C153.81 244.685 155.91 244.685 157.21 243.935L167.2 238.165C167.84 237.795 168.17 237.305 168.17 236.815V236.805Z" fill="#263238"/>
<path d="M152.51 242.655L149.86 241.125C148.56 240.375 148.56 239.165 149.86 238.415L159.85 232.645C161.15 231.895 163.25 231.895 164.55 232.645L167.2 234.175C168.5 234.925 168.5 236.135 167.2 236.885L157.21 242.655C155.91 243.405 153.81 243.405 152.51 242.655Z" fill="#37474F"/>
<path d="M155 241.595C154.28 241.595 153.55 241.435 153 241.115C152.54 240.855 152.25 240.505 152.15 240.125C152.07 239.825 152.12 239.515 152.29 239.225C152.35 239.125 152.48 239.085 152.59 239.155C152.69 239.215 152.73 239.345 152.66 239.455C152.55 239.645 152.52 239.835 152.57 240.025C152.64 240.295 152.87 240.545 153.22 240.755C154.2 241.325 155.8 241.325 156.79 240.755C157.23 240.505 157.47 240.185 157.47 239.845C157.47 239.505 157.23 239.195 156.79 238.935C156.11 238.545 155.09 238.415 154.17 238.595C154.05 238.615 153.94 238.545 153.92 238.425C153.9 238.305 153.97 238.195 154.09 238.175C155.12 237.975 156.23 238.125 157.01 238.565C157.58 238.895 157.9 239.355 157.9 239.845C157.9 240.335 157.58 240.795 157.01 241.125C156.46 241.445 155.73 241.605 155.01 241.605L155 241.595Z" fill="#FAFAFA"/>
<path d="M155.1 240.105C155.1 240.105 155.03 240.105 154.99 240.075L152.53 238.655C152.43 238.595 152.39 238.465 152.45 238.365C152.51 238.265 152.64 238.225 152.74 238.285L155.2 239.705C155.3 239.765 155.34 239.895 155.28 239.995C155.24 240.065 155.17 240.105 155.09 240.105H155.1Z" fill="#FAFAFA"/>
<path d="M139.38 239.845L161.33 227.125C162 226.735 162 226.105 161.33 225.725L148.59 218.375C147.92 217.985 146.84 217.985 146.17 218.375L124.22 231.095C123.55 231.485 123.55 232.115 124.22 232.495L136.96 239.845C137.63 240.235 138.71 240.235 139.38 239.845Z" fill="#263238"/>
<path d="M148.59 220.195C147.92 219.805 146.84 219.805 146.17 220.195L124.58 232.705L136.96 239.845C137.63 240.235 138.71 240.235 139.38 239.845L160.97 227.335L148.59 220.195Z" fill="#D6EBFF"/>
<path d="M180.65 288.815C191.68 290.845 201.07 295.345 208.41 300.055C217.99 306.205 225.89 314.655 231.58 324.525C237.94 335.535 247.08 344.685 258.09 351.035L275.39 361.025V356.625L258.09 346.635C247.08 340.275 239 330.465 232.64 319.445C226.95 309.585 217.98 301.805 208.4 295.655C201.73 291.375 193.35 287.265 183.59 285.025L180.68 286.705L180.64 288.815H180.65Z" fill="#E0E0E0"/>
<g opacity="0.05">
<path d="M180.65 288.815C191.68 290.845 201.07 295.345 208.41 300.055C217.99 306.205 225.89 314.655 231.58 324.525C237.94 335.535 247.08 344.685 258.09 351.035L275.39 361.025V356.625L258.09 346.635C247.08 340.275 239 330.465 232.64 319.445C226.95 309.585 217.98 301.805 208.4 295.655C201.73 291.375 193.35 287.265 183.59 285.025L180.68 286.705L180.64 288.815H180.65Z" fill="black"/>
</g>
<path d="M376.06 298.435L275.4 356.625V361.025L376.06 302.805V298.435Z" fill="#EBEBEB"/>
<path d="M275.4 356.625L258.1 346.635C247.09 340.275 239.01 330.465 232.65 319.445C226.96 309.585 217.99 301.805 208.41 295.655C201.74 291.375 193.36 287.265 183.6 285.025L284.23 226.825C294.01 229.055 302.39 233.175 309.07 237.465C318.65 243.615 327.33 251.775 333.03 261.635C339.39 272.645 347.75 282.085 358.76 288.445L376.06 298.435L275.4 356.635V356.625Z" fill="#FAFAFA"/>
<path d="M202.62 284.805C202.3 284.805 201.98 284.635 201.81 284.335C201.55 283.885 201.71 283.315 202.15 283.065L261.13 248.915C261.57 248.655 262.15 248.805 262.4 249.255C262.66 249.705 262.5 250.275 262.06 250.525L203.08 284.675C202.93 284.755 202.77 284.795 202.61 284.795L202.62 284.805Z" fill="#E0E0E0"/>
<path d="M212.17 289.405C211.85 289.405 211.53 289.235 211.36 288.935C211.1 288.485 211.26 287.915 211.7 287.665L270.67 253.515C271.11 253.255 271.69 253.405 271.94 253.855C272.2 254.305 272.04 254.875 271.6 255.125L212.63 289.275C212.48 289.355 212.32 289.395 212.16 289.395L212.17 289.405Z" fill="#E0E0E0"/>
<path d="M220.85 294.965C220.53 294.965 220.21 294.795 220.04 294.495C219.78 294.045 219.94 293.475 220.38 293.225L279.36 259.075C279.8 258.815 280.38 258.965 280.63 259.415C280.89 259.865 280.73 260.435 280.29 260.685L221.31 294.835C221.16 294.915 221 294.955 220.84 294.955L220.85 294.965Z" fill="#E0E0E0"/>
<path d="M229.29 301.805C228.97 301.805 228.65 301.635 228.48 301.335C228.22 300.885 228.38 300.315 228.82 300.065L287.8 265.915C288.24 265.655 288.82 265.805 289.07 266.255C289.33 266.705 289.17 267.275 288.73 267.525L229.75 301.675C229.6 301.755 229.44 301.795 229.28 301.795L229.29 301.805Z" fill="#E0E0E0"/>
<path d="M236.61 309.745C236.29 309.745 235.97 309.575 235.8 309.275C235.54 308.825 235.7 308.255 236.14 308.005L295.11 273.855C295.55 273.595 296.13 273.745 296.38 274.195C296.64 274.645 296.48 275.215 296.04 275.465L237.07 309.615C236.92 309.695 236.76 309.735 236.6 309.735L236.61 309.745Z" fill="#E0E0E0"/>
<path d="M242.49 318.825C242.17 318.825 241.85 318.655 241.68 318.355C241.42 317.905 241.58 317.335 242.02 317.085L301 282.935C301.44 282.675 302.02 282.825 302.27 283.275C302.53 283.725 302.37 284.295 301.93 284.545L242.95 318.695C242.8 318.775 242.64 318.815 242.48 318.815L242.49 318.825Z" fill="#E0E0E0"/>
<path d="M248.74 327.705C248.42 327.705 248.1 327.535 247.93 327.235C247.67 326.785 247.83 326.215 248.27 325.965L307.24 291.815C307.68 291.555 308.26 291.705 308.51 292.155C308.77 292.605 308.61 293.175 308.17 293.425L249.2 327.575C249.05 327.655 248.89 327.695 248.73 327.695L248.74 327.705Z" fill="#E0E0E0"/>
<path d="M272.02 244.625C271.7 244.625 271.38 244.455 271.21 244.155C270.95 243.705 271.1 243.135 271.55 242.885L286.65 234.135C287.1 233.875 287.67 234.025 287.92 234.475C288.18 234.925 288.03 235.495 287.58 235.745L272.48 244.495C272.33 244.585 272.17 244.625 272.01 244.625H272.02Z" fill="#E0E0E0"/>
<path d="M281.58 249.235C281.26 249.235 280.94 249.065 280.77 248.765C280.51 248.315 280.66 247.745 281.11 247.495L296.21 238.745C296.65 238.485 297.23 238.635 297.48 239.085C297.74 239.535 297.59 240.105 297.14 240.355L282.04 249.105C281.89 249.195 281.73 249.235 281.57 249.235H281.58Z" fill="#E0E0E0"/>
<path d="M290.25 254.795C289.93 254.795 289.61 254.625 289.44 254.325C289.18 253.875 289.33 253.305 289.78 253.055L304.88 244.305C305.32 244.045 305.9 244.195 306.15 244.645C306.41 245.095 306.26 245.665 305.81 245.915L290.71 254.665C290.56 254.755 290.4 254.795 290.24 254.795H290.25Z" fill="#E0E0E0"/>
<path d="M298.69 261.635C298.37 261.635 298.05 261.465 297.88 261.165C297.62 260.715 297.77 260.145 298.22 259.895L313.32 251.145C313.77 250.885 314.34 251.035 314.59 251.485C314.85 251.935 314.7 252.505 314.25 252.755L299.15 261.505C299 261.595 298.84 261.635 298.68 261.635H298.69Z" fill="#E0E0E0"/>
<path d="M306.01 269.575C305.69 269.575 305.37 269.405 305.2 269.105C304.94 268.655 305.09 268.085 305.54 267.835L320.64 259.085C321.09 258.825 321.66 258.975 321.91 259.425C322.17 259.875 322.02 260.445 321.57 260.695L306.47 269.445C306.32 269.535 306.16 269.575 306 269.575H306.01Z" fill="#E0E0E0"/>
<path d="M311.9 278.645C311.58 278.645 311.27 278.475 311.09 278.175C310.83 277.725 310.98 277.155 311.43 276.905L326.53 268.155C326.98 267.895 327.55 268.045 327.8 268.495C328.06 268.945 327.91 269.515 327.46 269.765L312.36 278.515C312.21 278.605 312.05 278.645 311.89 278.645H311.9Z" fill="#E0E0E0"/>
<path d="M318.15 287.525C317.83 287.525 317.51 287.355 317.34 287.055C317.08 286.605 317.23 286.035 317.68 285.785L332.78 277.035C333.22 276.775 333.8 276.925 334.05 277.375C334.31 277.825 334.16 278.395 333.71 278.645L318.61 287.395C318.46 287.485 318.3 287.525 318.14 287.525H318.15Z" fill="#E0E0E0"/>
<path d="M299.39 316.695L312.13 321.605L314.27 320.375L301.52 315.455L299.39 316.695Z" fill="#455A64"/>
<path d="M315.88 307.165L328.63 312.085L330.76 310.855L318.02 305.935L315.88 307.165Z" fill="#455A64"/>
<path d="M329.73 299.175L342.47 304.085L343.86 303.295L331.11 298.375L329.73 299.175Z" fill="#455A64"/>
<path d="M307.86 311.805L320.6 316.715L321.67 316.105L308.92 311.185L307.86 311.805Z" fill="#455A64"/>
<path d="M319.5 305.085L332.24 309.995L333.31 309.385L320.56 304.465L319.5 305.085Z" fill="#455A64"/>
<path d="M327 300.745L339.75 305.665L340.82 305.045L328.07 300.135L327 300.745Z" fill="#455A64"/>
<path d="M303.18 314.505L315.92 319.415L319.72 317.225L306.97 312.315L303.18 314.505Z" fill="#455A64"/>
<path d="M310.76 310.125L323.51 315.045L327.3 312.845L314.55 307.935L310.76 310.125Z" fill="#455A64"/>
<path d="M322.14 303.555L334.89 308.465L337.48 306.975L324.73 302.055L322.14 303.555Z" fill="#455A64"/>
<path d="M264.19 337.015L276.93 341.935L279.07 340.695L266.32 335.785L264.19 337.015Z" fill="#455A64"/>
<path d="M280.68 327.495L293.43 332.405L295.56 331.175L282.82 326.255L280.68 327.495Z" fill="#455A64"/>
<path d="M294.53 319.495L307.27 324.415L309.41 323.185L296.66 318.265L294.53 319.495Z" fill="#455A64"/>
<path d="M272.66 332.125L285.4 337.045L286.47 336.425L273.72 331.505L272.66 332.125Z" fill="#455A64"/>
<path d="M284.21 325.445L296.96 330.365L298.03 329.745L285.28 324.835L284.21 325.445Z" fill="#455A64"/>
<path d="M291.8 321.075L304.55 325.985L305.61 325.375L292.87 320.455L291.8 321.075Z" fill="#455A64"/>
<path d="M267.98 334.825L280.72 339.745L283.53 338.125L270.78 333.205L267.98 334.825Z" fill="#455A64"/>
<path d="M275.56 330.445L288.3 335.365L291.39 333.585L278.65 328.665L275.56 330.445Z" fill="#455A64"/>
<path d="M287.07 323.805L299.82 328.715L302.74 327.045L290 322.125L287.07 323.805Z" fill="#455A64"/>
<path d="M333.24 297.145L345.99 302.055L348.13 300.825L335.38 295.915L333.24 297.145Z" fill="#455A64"/>
<path d="M337.14 294.895L349.88 299.815L350.95 299.195L338.2 294.285L337.14 294.895Z" fill="#455A64"/>
<path d="M344.36 290.725L357.11 295.635L358.18 295.025L345.43 290.105L344.36 290.725Z" fill="#455A64"/>
<path d="M340.25 293.105L352.99 298.015L356.04 296.255L343.3 291.335L340.25 293.105Z" fill="#455A64"/>
</svg>
