<?xml version="1.0" encoding="UTF-8"?><svg xmlns="http://www.w3.org/2000/svg" viewBox="0 0 500 500"><g style="isolation:isolate;"><g id="BACKGROUND"><rect width="350" height="350" style="fill:#fff; stroke-width:0px;"/></g><g id="OBJECTS"><path d="m231.61,144.74c-15.39-55.82-84.73-73.8-124.46-32.08-.57.6-1.14,1.21-1.71,1.83-56.97,61.93-30.06,214.54,88.84,253.22,118.89,38.68,242.56-31.95,249.51-95.09,6.95-63.14-47.9-82.98-133.03-65.33-48.09,9.98-69.56-27.79-79.14-62.54Z" style="fill:#cce1f7; stroke-width:0px;"/><path d="m351.57,157.6c-15.91,2.59-20.32,16.68-8.03,26.68,4.06,3.3,9.86,6.05,18.12,7.42,31.46,5.22,48.16-8.7,35.55-26.75-7.78-11.14-29.87-9.92-45.63-7.35Z" style="fill:#cce1f7; stroke-width:0px;"/><path d="m62.43,251.79c-9.89-12.73-24.37-9.85-27.27,5.72-.96,5.15-.59,11.55,2.16,19.46,10.48,30.12,30.69,38.12,40.5,18.4,6.05-12.17-5.59-30.97-15.39-43.58Z" style="fill:#cce1f7; stroke-width:0px;"/><path d="m279.15,129.45l1.65-8.43-7.89-1.55c0-2.07-.36-4.15-1.04-6.17l6.5-4.37-4.79-7.13-6.23,4.18c-1.85-1.88-4.03-3.33-6.39-4.3l1.55-7.9-8.43-1.65-1.6,8.14c-1.73.1-3.45.43-5.13,1l-4.37-6.51-7.13,4.79,4.18,6.23c-1.88,1.85-3.33,4.03-4.3,6.39l-6.9-1.36-1.65,8.43,7.14,1.4c.12,2.21.62,4.4,1.52,6.5l-6.23,4.18,4.79,7.13,6.51-4.37c1.87,1.63,4,2.85,6.28,3.65l-1.56,7.94,8.43,1.65,1.69-8.61c1.85-.2,3.69-.68,5.45-1.44l4.18,6.23,7.13-4.79-4.37-6.5c1.16-1.34,2.12-2.8,2.86-4.37l8.14,1.6Zm-21.16-3.37c-3.6,2.42-8.5,1.46-10.92-2.14-2.42-3.6-1.46-8.5,2.14-10.92s8.5-1.46,10.92,2.14c2.42,3.6,1.46,8.5-2.14,10.92Z" style="fill:#cce1f7; stroke-width:0px;"/><path d="m231.53,90.71l.9-4.6-4.31-.85c0-1.13-.2-2.27-.57-3.37l3.55-2.39-2.62-3.9-3.4,2.29c-1.01-1.03-2.2-1.82-3.49-2.35l.85-4.32-4.61-.9-.87,4.45c-.94.05-1.89.23-2.8.55l-2.39-3.56-3.9,2.62,2.29,3.4c-1.03,1.01-1.82,2.2-2.35,3.49l-3.77-.74-.9,4.6,3.9.77c.07,1.21.34,2.41.83,3.55l-3.4,2.29,2.62,3.9,3.56-2.39c1.02.89,2.19,1.56,3.43,1.99l-.85,4.34,4.61.9.92-4.71c1.01-.11,2.02-.37,2.98-.79l2.29,3.4,3.9-2.62-2.39-3.55c.64-.73,1.16-1.53,1.56-2.39l4.45.87Zm-11.57-1.84c-1.97,1.32-4.65.8-5.97-1.17-1.32-1.97-.8-4.65,1.17-5.97,1.97-1.32,4.65-.8,5.97,1.17,1.32,1.97.8,4.65-1.17,5.97Z" style="fill:#cce1f7; stroke-width:0px;"/><path d="m463.1,114.24l.9-4.6-4.31-.85c0-1.13-.2-2.27-.57-3.37l3.55-2.39-2.62-3.9-3.4,2.29c-1.01-1.03-2.2-1.82-3.49-2.35l.85-4.32-4.61-.9-.87,4.45c-.94.05-1.89.23-2.8.55l-2.39-3.56-3.9,2.62,2.29,3.4c-1.03,1.01-1.82,2.2-2.35,3.49l-3.77-.74-.9,4.61,3.9.77c.07,1.21.34,2.41.83,3.55l-3.4,2.29,2.62,3.9,3.56-2.39c1.02.89,2.19,1.56,3.43,1.99l-.85,4.34,4.61.9.92-4.71c1.01-.11,2.02-.37,2.98-.79l2.29,3.4,3.9-2.62-2.39-3.55c.64-.73,1.16-1.53,1.56-2.39l4.45.87Zm-11.57-1.84c-1.97,1.32-4.65.8-5.97-1.17-1.32-1.97-.8-4.65,1.17-5.97,1.97-1.32,4.65-.8,5.97,1.17,1.32,1.97.8,4.65-1.17,5.97Z" style="fill:#cce1f7; stroke-width:0px;"/><path d="m69.43,171.46l.9-4.61-4.31-.85c0-1.13-.2-2.27-.57-3.37l3.55-2.39-2.62-3.9-3.4,2.29c-1.01-1.03-2.2-1.82-3.49-2.35l.85-4.32-4.61-.9-.87,4.45c-.94.05-1.89.23-2.8.55l-2.39-3.56-3.9,2.62,2.29,3.4c-1.03,1.01-1.82,2.2-2.35,3.49l-3.77-.74-.9,4.61,3.9.77c.07,1.21.34,2.41.83,3.55l-3.4,2.29,2.62,3.9,3.56-2.39c1.02.89,2.19,1.56,3.43,1.99l-.85,4.34,4.61.9.92-4.71c1.01-.11,2.02-.37,2.98-.79l2.29,3.4,3.9-2.62-2.39-3.55c.64-.73,1.16-1.53,1.56-2.39l4.45.87Zm-11.57-1.84c-1.97,1.32-4.65.8-5.97-1.17-1.32-1.97-.8-4.65,1.17-5.97,1.97-1.32,4.65-.8,5.97,1.17,1.32,1.97.8,4.65-1.17,5.97Z" style="fill:#cce1f7; stroke-width:0px;"/><path d="m249.68,400.45c-76.28,0-142.98-3.33-179.17-8.29-3.81-.52-4.96,4.99-1.27,6.04,24.7,7.05,59.67,7.54,82.01,9.94,38.51,4.15,94.5,3,98.43,16.42,3.93,13.42,4.32,27.63-34.93,25.63-42.59-2.17-35.5-25.63-35.5-25.63-39.5,1.12-133.5-8.12-143.9-24.11-10.28-15.81,8.56-19.46,8.99-19.55,0,0,0,0,0,0,15.91-8.03,101.78-14.16,205.33-14.16,114.86,0,207.98,7.55,207.98,16.85s-93.11,16.85-207.98,16.85Z" style="fill:#cce1f7; stroke-width:0px;"/><path d="m107.15,351.6c-9.16-9.23-29.16-30.87-41.77-55.43-18.09-35.25-36.22-32.1-39.78-19.64-9.2,32.23,45.01,67.26,67.48,80.19l14.06-5.12Z" style="fill:#3b73ab; stroke-width:0px;"/><path d="m102.2,353.41c-15.78-11.84-29.13-25.84-38.19-36.4-12.12-14.13-19.43-25.33-19.5-25.44-.26-.4-.8-.52-1.2-.25-.4.26-.52.8-.26,1.2.07.11,7.43,11.39,19.62,25.6,8.96,10.44,22.06,24.22,37.59,36l1.95-.71Z" style="fill:#00528a; stroke-width:0px;"/><path d="m104.89,339.2c-4.24-8.47-12.28-26.2-15.27-44.27-4.46-27-17.05-28.76-22.02-21.31-13.65,20.45,19.06,58.06,29.5,69.19l7.79-3.61Z" style="fill:#00528a; stroke-width:0px;"/><path d="m101.92,340.57c-7.97-11.18-13.84-23.31-17.6-32.24-4.99-11.85-7.43-20.76-7.46-20.85-.09-.32-.42-.51-.74-.42-.32.09-.51.42-.42.74.02.09,2.48,9.06,7.5,20.98,3.76,8.94,9.64,21.08,17.61,32.3l1.11-.51Z" style="fill:#01305a; stroke-width:0px;"/><path d="m405.07,214.55c8.44-9.89,26.77-32.97,37.49-58.41,15.39-36.51,33.71-34.73,38.2-22.57,11.59,31.45-39.83,70.44-61.28,85.03l-14.41-4.05Z" style="fill:#3b73ab; stroke-width:0px;"/><path d="m410.14,215.98c14.85-12.99,27.11-27.95,35.35-39.17,11.03-15,17.47-26.71,17.54-26.83.23-.42.76-.58,1.18-.34.42.23.58.76.35,1.18-.06.12-6.55,11.92-17.64,27-8.15,11.08-20.19,25.8-34.78,38.72l-2-.56Z" style="fill:#00528a; stroke-width:0px;"/><path d="m406.4,202.01c3.59-8.76,10.28-27.05,11.9-45.29,2.42-27.26,14.84-29.95,20.36-22.9,15.15,19.37-14.66,59.33-24.23,71.21l-8.04-3.01Z" style="fill:#00528a; stroke-width:0px;"/><path d="m409.46,203.16c7.11-11.75,12.06-24.28,15.14-33.47,4.09-12.19,5.85-21.26,5.87-21.35.06-.32.38-.54.7-.47.33.06.54.38.48.7-.02.09-1.79,9.22-5.91,21.48-3.08,9.2-8.03,21.74-15.14,33.53l-1.14-.43Z" style="fill:#01305a; stroke-width:0px;"/><path d="m148.71,111.19c1.57-14.74.35-28.98-6.99-25.47-7.34,3.52-4.77,27.99,5.21,44.13l2.08,6.3c-7.07-11.89-21.18-21.97-26.97-18.2-5.75,3.74,4.25,9.6,14.27,13.42,7.63,2.91,11.96,6.56,13.97,8.63l9.84,29.77c-11.25-18.8-33.53-34.68-42.69-28.72-9.13,5.94,6.74,15.23,22.64,21.29,12.02,4.58,18.88,10.33,22.1,13.63l1.96,5.94c1.08-.18,2.16-.36,3.24-.56l-11.7-35.42c.79-3.04,2.35-7.2,5.44-12.05,5.77-9.04,10.32-19.7,3.47-19.28-5.94.37-10.73,12.68-11.03,24.89l-4.05-12.25c-.61-4-1.48-9.72-.8-16.08Z" style="fill:#00528a; stroke-width:0px;"/><path d="m454.47,286.14c3.98-14.28,10.38-27.07,15.9-21.09,5.52,5.98-5.9,27.77-21.14,39.09l-4.26,5.09c10.96-8.44,27.79-12.6,31.78-6.96,3.97,5.6-7.49,7.35-18.22,7.2-8.17-.11-13.54,1.69-16.17,2.87l-20.13,24.04c17.4-13.32,43.97-19.85,50.28-10.93,6.29,8.89-11.88,11.66-28.9,11.43-12.86-.18-21.36,2.63-25.57,4.51l-4.01,4.79c-.94-.57-1.88-1.14-2.81-1.71l23.95-28.6c.39-3.12.48-7.56-.61-13.2-2.03-10.54-2.31-22.12,3.9-19.2,5.39,2.54,5.28,15.75,1.06,27.21l8.28-9.89c2.04-3.5,4.96-8.48,6.68-14.65Z" style="fill:#3b73ab; stroke-width:0px;"/><path d="m120.8,263.8h16.46c-8.89-1.47-30.94-10.94-32.91-29.92-2.49-24.04-11.05-23.74-25.48-26.26-14.43-2.51-18.4,1.59-27.56-17.08-9.16-18.67-29.6-21.02-29.6-21.02,0,0,18.63,20.32,15.06,35.77-3.56,15.45,8.79,21.61,18.68,23.56,9.89,1.94,7.52,15.23,11.28,23.77,1.72,3.9,8.74,7.93,15.86,11.17h38.2Z" style="fill:#00528a; stroke-width:0px;"/><path d="m85.15,240.13c.72,7.2,4.86,15.76,11.08,22.91.22.25.45.51.68.76h1.87c-.54-.56-1.04-1.12-1.52-1.66-5.95-6.83-10.06-15.32-10.75-22.14-1.08-10.87-9.48-18.27-27.23-24.01-10.3-3.33-13.55-15.9-13.58-16.03-.09-.37-.46-.59-.83-.5-.37.09-.59.46-.5.83.14.55,3.46,13.44,14.49,17.01,17.16,5.55,25.26,12.59,26.29,22.84Z" style="fill:#01305a; stroke-width:0px;"/><path d="m112.33,263.8h34.6s.02-.07.03-.1c.97-3.46,1.52-7.01,1.64-10.6.41-12.11.62-42.52-7.21-50.31-9.84-9.79-29.56-13.62-26.96-28.39,2.6-14.77.65-35.22-22.7-38.54-23.35-3.32-41.59-40.06-41.59-40.06,0,0-7.68,29.63,13.33,52.34,21.01,22.71,13.18,26.03,8.95,47.41s-9.24,33.1,22.81,49.43c8.69,4.43,13.99,11.25,17.1,18.84Z" style="fill:#3b73ab; stroke-width:0px;"/><path d="m94.52,172.81c-1.54,27.71,4.25,43.33,18.75,50.66,9.11,4.6,18.68,14.86,24.98,26.78,1.99,3.76,4.01,8.33,5.58,13.55h2.13c-1.64-5.6-3.79-10.5-5.91-14.5-6.59-12.45-16.26-22.79-25.87-27.64-13.68-6.91-19.12-21.94-17.63-48.73.96-17.23-15.16-28.75-15.85-29.23-.46-.32-1.1-.21-1.42.25-.32.46-.21,1.1.25,1.42.16.11,15.88,11.36,14.98,27.44Z" style="fill:#00528a; stroke-width:0px;"/><path d="m314.16,208.94h16.86l17.09-11.13c4.2-6.61,7.88-13.82,7.19-18.02-1.51-9.21-10.75-19.05-3.53-26.07,7.23-7.03,14.21-18.94,2.79-29.93-11.42-11-6.9-38.19-6.9-38.19,0,0-15.84,13.13-13.33,33.77,2.51,20.64-3.06,19.37-13.77,29.35-10.72,9.98-18.05,14.4-7.02,35.91,4.12,8.04,3.31,16.74.61,24.33Z" style="fill:#00528a; stroke-width:0px;"/><path d="m333.05,179.37c3.33,6.43,4.53,15.86,3.22,25.24-.05.33-.1.67-.15,1.01l-1.57,1.02c.14-.77.26-1.51.36-2.22,1.25-8.97.07-18.33-3.08-24.42-5.02-9.7-2.03-20.48,9.71-34.98,6.81-8.41,2.68-20.72,2.63-20.85-.12-.36.07-.75.42-.87.36-.12.75.07.87.42.18.53,4.44,13.15-2.86,22.16-11.35,14.01-14.3,24.34-9.56,33.49Z" style="fill:#01305a; stroke-width:0px;"/><path d="m377.63,208.94c1.98-1.64,4.2-3.12,6.72-4.41,32.04-16.33,27.04-28.06,22.81-49.43-4.24-21.37-12.06-24.69,8.95-47.41,21.01-22.71,13.33-52.34,13.33-52.34,0,0-18.24,36.74-41.59,40.06-23.35,3.32-25.3,23.77-22.7,38.54,2.6,14.77-17.12,18.6-26.96,28.39-7.12,7.08-7.59,32.86-7.31,46.59h46.76Z" style="fill:#3b73ab; stroke-width:0px;"/><path d="m341.8,208.94c6.3-11.54,15.62-21.41,24.51-25.9,14.5-7.32,20.29-22.95,18.75-50.66-.89-16.08,14.82-27.33,14.98-27.44.46-.32.57-.96.25-1.42-.32-.46-.96-.57-1.42-.25-.69.48-16.8,12-15.85,29.23,1.49,26.79-3.95,41.81-17.63,48.73-9.61,4.85-19.28,15.19-25.87,27.64-.01.02-.03.05-.04.07h2.32Z" style="fill:#00528a; stroke-width:0px;"/><rect x="84.08" y="154.87" width="335.32" height="207.92" rx="13.5" ry="13.5" style="fill:#01305a; stroke-width:0px;"/><path d="m404.51,177.57v162.52c0,4.78-3.87,8.66-8.66,8.66H107.64c-2.02,0-3.88-.69-5.35-1.85-.39-.31-.76-.65-1.09-1.02-1.38-1.53-2.22-3.56-2.22-5.79v-162.52c0-4.78,3.88-8.66,8.66-8.66h288.21c1.6,0,3.09.43,4.38,1.19,1.21.71,2.23,1.7,2.97,2.89.83,1.33,1.31,2.9,1.31,4.58Z" style="fill:#fff; stroke-width:0px;"/><path d="m203.85,290.73h-11.81v15.24h-29.08v-15.24h-46.1v-19.05l37.72-54.6h30.73l-33.52,50.41h12.06v-13.59h28.19v13.59h11.81v23.24Z" style="fill:#ff7c78; stroke-width:0px;"/><path d="m208.03,261.52c0-29.46,16.76-46.48,40.26-46.48s40.25,17.02,40.25,46.48-16.76,46.48-40.25,46.48-40.26-17.02-40.26-46.48Zm50.41,0c0-17.14-4.32-22.48-10.16-22.48s-10.16,5.33-10.16,22.48,4.32,22.48,10.16,22.48,10.16-5.33,10.16-22.48Z" style="fill:#ff7c78; stroke-width:0px;"/><path d="m382,290.73h-11.81v15.24h-29.08v-15.24h-46.1v-19.05l37.72-54.6h30.73l-33.52,50.41h12.06v-13.59h28.19v13.59h11.81v23.24Z" style="fill:#ff7c78; stroke-width:0px;"/><path d="m450.72,355.56v1.16c0,5.75-1.85,11.08-4.98,15.41-4.78,6.61-12.56,10.91-21.34,10.91H79.08c-8.78,0-16.56-4.3-21.34-10.91-3.13-4.33-4.98-9.65-4.98-15.41v-1.16h397.97Z" style="fill:#01305a; stroke-width:0px;"/><path d="m207.14,355.56v.26c0,2.08,1.4,3.77,3.12,3.77h81.24c1.72,0,3.12-1.69,3.12-3.77v-.26h-87.48Z" style="fill:#01305a; mix-blend-mode:screen; stroke-width:0px;"/><path d="m404.51,177.57v9.59H98.98v-9.59c0-1.85.57-3.55,1.56-4.95,1.56-2.24,4.16-3.7,7.1-3.7h288.21c2.94,0,5.54,1.46,7.09,3.7.99,1.4,1.56,3.11,1.56,4.95Z" style="fill:#01305a; opacity:.2; stroke-width:0px;"/><rect x="167.9" y="176.08" width="163.55" height="4.85" rx=".75" ry=".75" style="fill:#fff; stroke-width:0px;"/><path d="m128.85,178.5v1.8c0,.52-.56.84-1,.58l-1.56-.9-1.56-.9c-.45-.26-.45-.9,0-1.16l1.56-.9,1.56-.9c.45-.26,1,.06,1,.58v1.8Z" style="fill:#01305a; stroke-width:0px;"/><path d="m136.95,178.5v1.8c0,.52.56.84,1,.58l1.56-.9,1.56-.9c.45-.26.45-.9,0-1.16l-1.56-.9-1.56-.9c-.45-.26-1,.06-1,.58v1.8Z" style="fill:#01305a; stroke-width:0px;"/><path d="m402.94,172.62H100.54c1.56-2.24,4.16-3.7,7.1-3.7h288.21c2.94,0,5.54,1.46,7.09,3.7Z" style="fill:#01305a; opacity:.2; stroke-width:0px;"/><path d="m341.96,334.87h-184.56c-3.61,0-6.53-2.93-6.53-6.53h0c0-3.61,2.93-6.53,6.53-6.53h184.56c3.61,0,6.53,2.93,6.53,6.53h0c0,3.61-2.93,6.53-6.53,6.53Z" style="fill:#01305a; opacity:.1; stroke-width:0px;"/><path d="m367.12,303.69c-1.42,2.72-2.81,5.07-4.14,7.09-9.91,15-17.27,11.78-21.24,7.16-1.4-1.64-2.41-3.36-3.14-4.95-1.18-2.61-1.6-4.87-1.73-5.85l1.84.43c2.18,1,5.79,2.38,8.47,1.96.34-.06.67-.14.97-.25,2.4-.91,5.67-5.64,7.88-9.23,1.45-2.35,2.45-4.23,2.45-4.23l8.62,7.88Z" style="fill:#ffc0ad; stroke-width:0px;"/><path d="m367.12,303.69c-1.42,2.72-2.81,5.07-4.14,7.09-2.81-3.09-5.36-7.63-6.93-10.74,1.45-2.35,2.45-4.23,2.45-4.23l8.62,7.88Z" style="fill:#fda084; stroke-width:0px;"/><path d="m349.33,310.02s-2,6.13-10.72,2.97c-1.18-2.61-1.6-4.87-1.73-5.85l1.84.43c2.18,1,5.79,2.38,8.47,1.96l2.14.5Z" style="fill:#fda084; stroke-width:0px;"/><path d="m430.62,325.65c-2,11.54-11.38,3.07-12.19-5.94-.18-2.03-.23-4.1-.2-6.09.03-1.86.13-3.66.26-5.28.02-.31.05-.62.08-.92.35-3.92.84-6.68.84-6.68l6.13-7.55s.71,2.11,1.63,5.37c.84,3.01,1.85,6.99,2.62,11.17.23,1.27.44,2.55.62,3.83.6,4.33.82,8.63.22,12.09Z" style="fill:#ffc0ad; stroke-width:0px;"/><path d="m427.17,298.56c-1.82,3.35-4.82,7.78-8.68,9.77.02-.31.05-.62.08-.92.35-3.92.84-6.68.84-6.68l6.13-7.55s.71,2.11,1.63,5.37Z" style="fill:#fda084; stroke-width:0px;"/><path d="m430.41,313.56c-2.22,1.34-9.49.71-12.18.06.03-2.22.17-4.35.33-6.2l11.23,2.32c.23,1.27.44,2.55.62,3.83Z" style="fill:#fda084; stroke-width:0px;"/><path d="m365.87,274.97s-8.88,15.68-10.34,20.99c0,0,6.07,10.14,11.57,11.26l2.04-6.91s.22-21.64-3.27-25.34Z" style="fill:#3b73ab; stroke-width:0px;"/><path d="m385.37,266.92l-19.5,8.06,8.63,66.84s26.85,3.77,40.73,0v-66.84l-18.96-8.48-10.89.42Z" style="fill:#3b73ab; stroke-width:0px;"/><path d="m381.39,303.34c3.27,3.41,7.87,6.62,14.27,8.46.25.07.5-.1.53-.35,0,0,0,0,0,0,.02-.2-.1-.39-.3-.45-6.24-1.8-10.71-4.92-13.9-8.25-.24-.25-.65-.11-.71.23,0,0,0,0,0,.01-.02.13.02.26.11.36Z" style="fill:#00528a; stroke-width:0px;"/><path d="m381.55,296.98v.02c0,.07.02.13.05.19.22.37.46.77.74,1.17,1.54,2.2,4.46,5.11,9.6,6.5.03,0,.07.01.1.01.17,0,.32-.11.37-.28.06-.2-.07-.41-.27-.47-5.53-1.5-8.43-4.83-9.88-7.34-.2-.34-.72-.2-.72.2Z" style="fill:#00528a; stroke-width:0px;"/><path d="m382.25,279.6s0,0,0,0c.01.23.23.4.45.35,4.65-.91,8.31-2.98,10.74-4.75,3.36-2.45,5.13-4.81,5.21-4.91.13-.17.09-.41-.08-.54-.17-.13-.41-.09-.54.08-.06.08-5.67,7.46-15.48,9.37-.19.04-.32.2-.31.39Z" style="fill:#00528a; stroke-width:0px;"/><path d="m352.29,384.34l2.09-10.76h-7.15l-1.75,10.16s2.86,1.86,6.8.6Z" style="fill:#ffc0ad; stroke-width:0px;"/><path d="m347.39,384.23s-1.59-2.08-2.83-1.98c-1.24.1-10.74,7.83-14.01,8.5-3.28.67-2.61,3.08-1.99,4.3.62,1.23,26.18-.77,26.18-.77,0,0,.62-7.62-.25-9.94-.86-2.32-4.53.41-7.1-.12Z" style="fill:#00528a; stroke-width:0px;"/><path d="m342.16,389.61c.12.03.25.02.36-.05.22-.13.29-.41.16-.63-.04-.07-1.07-1.8-2.42-2.47-1.81-.89-3.19.14-3.25.19-.2.15-.24.44-.09.64.15.2.44.24.64.09.04-.03,1-.72,2.29-.09,1.11.54,2.02,2.09,2.03,2.11.06.11.16.18.27.21Z" style="fill:#fff; stroke-width:0px;"/><path d="m343.51,388.3c.12.03.25.02.36-.05.22-.13.29-.41.16-.63-.04-.07-1.07-1.8-2.42-2.47-1.81-.89-3.19.14-3.25.19-.2.15-.24.44-.09.64.15.2.44.24.64.09.04-.03,1.01-.72,2.29-.09,1.11.54,2.02,2.09,2.03,2.11.06.11.16.18.27.21Z" style="fill:#fff; stroke-width:0px;"/><path d="m340.31,390.68c.12.03.25.02.36-.04.22-.13.29-.41.16-.63-.04-.07-1.07-1.8-2.42-2.47-1.81-.89-3.19.14-3.25.19-.2.15-.24.44-.09.64.15.2.44.24.64.09.04-.03,1.01-.72,2.29-.09,1.11.54,2.02,2.09,2.03,2.11.06.11.16.18.27.21Z" style="fill:#fff; stroke-width:0px;"/><path d="m384.72,335.11s-12.23-30.37-19.84-29.18c-11.77,1.85-19.65,38.01-18.68,71.74l8.08.46s9.04-31.77,10.66-40.1c0,0,6.23,21.62,20.26,18.61,10.39-2.23,3.62-12.86-.49-21.54Z" style="fill:#ff7c78; stroke-width:0px;"/><path d="m353.32,376.74l-.99-.18c.02-.12,2.17-11.94,4.78-23.89,5.31-24.37,7.31-25.51,7.97-25.89.55-.31,1-.23,1.28-.11,1.33.58,2,3.42,3.01,7.73,1.63,6.96,3.87,16.49,10.05,20.48l-.55.85c-6.52-4.21-8.81-13.97-10.49-21.1-.8-3.42-1.56-6.66-2.43-7.03-.05-.02-.15-.07-.37.06-2.73,1.56-8.82,30.21-12.25,49.08Z" style="fill:#d84e5a; stroke-width:0px;"/><polygon points="345.4 375.2 355.31 376.03 355.5 376.04 354.95 379.32 345.22 378.64 345.4 375.2" style="fill:#d84e5a; stroke-width:0px;"/><path d="m381.59,356.8s14.22,2.73,33.08-.66c-1.55-7.79-5.08-13.91-10.83-19.35l-25.43,1.84c-1.6,6-.44,12.06,3.18,18.17Z" style="fill:#ff7c78; stroke-width:0px;"/><path d="m377.53,381.94s-3.37-.74-4.29-.68c-.92.06-6.78,7.23-8.84,7.73-3.73.9-3.48,6.78-1.17,6.97,6.66.55,17.88-2.76,17.88-2.76,0,0,.71-7.59.15-9.94-.56-2.35-1.85-.71-3.73-1.33Z" style="fill:#00528a; stroke-width:0px;"/><path d="m379.52,382.45l2.48-9.67h-7.14l-1.6,9.33s2.33,1.6,6.27.34Z" style="fill:#ffc0ad; stroke-width:0px;"/><path d="m372.33,388.62c.12.02.25,0,.35-.08.2-.15.25-.44.1-.64-.05-.07-1.25-1.68-2.67-2.19-1.89-.69-3.16.48-3.21.53-.18.17-.19.47-.02.65.17.18.46.19.65.02.03-.03.92-.83,2.27-.34,1.16.42,2.23,1.86,2.24,1.88.07.1.18.16.29.18Z" style="fill:#fff; stroke-width:0px;"/><path d="m373.54,387.18c.12.02.25,0,.35-.08.2-.15.25-.44.1-.64-.05-.07-1.25-1.68-2.67-2.19-1.89-.69-3.16.48-3.21.53-.18.17-.19.46-.02.65.17.18.47.19.65.02.03-.03.92-.83,2.27-.34,1.16.42,2.23,1.86,2.24,1.88.07.1.18.16.29.18Z" style="fill:#fff; stroke-width:0px;"/><path d="m370.61,389.88c.12.02.25,0,.35-.08.2-.15.25-.44.1-.64-.05-.07-1.25-1.68-2.67-2.19-1.89-.69-3.16.48-3.21.53-.18.17-.19.47-.02.65.17.18.47.19.65.02.03-.03.92-.83,2.27-.34,1.16.42,2.23,1.86,2.24,1.88.07.1.18.16.29.18Z" style="fill:#fff; stroke-width:0px;"/><path d="m412.93,356.64c-1.81.39-3.48.37-5.03.04-.51-.11-1-.25-1.48-.42-9.47-3.36-13.75-18.23-13.75-18.23-1.62,8.33-11,40.08-11,40.08l-1.46-.19-1.01-.13-5.53-.73c-1.09-32.65,7.17-69.27,18.94-71.12,7.6-1.2,19.84,29.18,19.84,29.18,4.1,8.67,10.88,19.31.49,21.54Z" style="fill:#ff7c78; stroke-width:0px;"/><path d="m407.9,356.68c-.51-.11-1-.25-1.48-.42-3.46-5.58-5.27-13.38-6.73-19.66-1.16-5-2.25-9.72-3.68-10.52-.22-.12-.43-.14-.68-.06-1.22.4-4.09,4.44-9.62,27.03-2.64,10.76-4.82,21.49-5.49,24.88-.14.69-.22,1.08-.22,1.1l-.99-.19s.07-.38.2-1.04c.66-3.32,2.86-14.13,5.52-24.98,6.49-26.5,9.35-27.44,10.29-27.75.53-.17,1.03-.12,1.5.14,1.82,1.03,2.81,5.28,4.17,11.18,1.53,6.58,3.44,14.87,7.23,20.31Z" style="fill:#d84e5a; stroke-width:0px;"/><polygon points="373.01 374.75 382.79 376.54 382.97 376.57 382.11 379.78 372.49 378.16 373.01 374.75" style="fill:#d84e5a; stroke-width:0px;"/><path d="m415.22,274.97l12.65,18.32s-5.62,10.59-11.12,11.7c0,0-5.73-10.01-6.4-15.12-.67-5.11,2.9-14.45,4.88-14.89Z" style="fill:#3b73ab; stroke-width:0px;"/><path d="m378.95,246.62c0,7.11,4.38,12.01,11.49,12.01s12.06-5.27,12.06-12.38-4.21-12.5-11.32-12.5c-8.53,0-12.23,5.75-12.23,12.86Z" style="fill:#01305a; stroke-width:0px;"/><path d="m379.37,242.7s-5.3-5.24-3.32-7.71c1.98-2.47,4.56-.11,5.35-2.47.79-2.36,1.1-5.39,4.31-4.16,3.22,1.24,3.36,3.26,6.44,1.46,3.07-1.8,2.4,1.24,5.09,2.58,2.7,1.35,4.58,1.12,4.14,3.71-.44,2.58,2.59,3.12,1.35,5.97-1.24,2.86-2.68,1.41-2.68,1.41l-20.68-.8Z" style="fill:#01305a; stroke-width:0px;"/><path d="m380.55,249.69s-1.98-2.63-3.44-.46c-1.47,2.18.61,8.61,4.2,7.04l-.76-6.58Z" style="fill:#fda084; stroke-width:0px;"/><path d="m380.53,254.28c-.13,0-.25-.09-.29-.22-.56-1.99-2.61-2.79-2.64-2.8-.16-.06-.24-.24-.18-.39.06-.16.23-.24.39-.18.1.04,2.36.92,3.01,3.2.05.16-.05.33-.21.37-.03,0-.05.01-.08.01Z" style="fill:#ff7972; stroke-width:0px;"/><path d="m378.45,253.28c-.06,0-.11-.02-.16-.05-.14-.09-.18-.28-.09-.42.02-.02.38-.58,1.14-.92.15-.07.33,0,.4.15.07.15,0,.33-.15.4-.59.26-.87.69-.88.69-.06.09-.16.14-.26.14Z" style="fill:#ff7972; stroke-width:0px;"/><path d="m400.91,249.69s1.98-2.63,3.44-.46c1.47,2.18-.61,8.61-4.2,7.04l.76-6.58Z" style="fill:#fda084; stroke-width:0px;"/><path d="m400.93,254.28c.13,0,.25-.09.29-.22.56-1.99,2.61-2.79,2.64-2.8.16-.06.24-.24.18-.39-.06-.16-.23-.24-.39-.18-.1.04-2.36.92-3.01,3.2-.05.16.05.33.21.37.03,0,.06.01.08.01Z" style="fill:#ff7972; stroke-width:0px;"/><path d="m403.01,253.28c.06,0,.11-.02.16-.05.14-.09.18-.28.09-.42-.02-.02-.38-.58-1.14-.92-.15-.07-.33,0-.4.15-.07.15,0,.33.15.4.59.26.88.69.88.69.06.09.16.14.26.14Z" style="fill:#ff7972; stroke-width:0px;"/><path d="m395.59,261.73v6.4s-1.91,3.26-4.49,3.48c-2.58.22-4.87-2.8-4.87-2.8v-6.62l9.35-.45Z" style="fill:#ffc0ad; stroke-width:0px;"/><path d="m395.59,261.73v2.84c-1.73,1.92-4.81,2.4-9.35,1.73v-4.12l9.35-.45Z" style="fill:#fda084; stroke-width:0px;"/><path d="m379.5,249.48c.1,1.36.26,2.79.52,4.21.86,4.72,2.79,9.35,6.95,10.84,9.42,3.37,12.79-4.72,14.14-9.43.15-.52.28-1.1.4-1.73.21-1.12.38-2.38.51-3.64.15-1.53.26-3.08.32-4.44.14-2.87-1.58-5.5-4.26-6.53-3.86-1.49-9.74-2.66-15.3.5-2.06,1.16-3.34,3.32-3.39,5.68-.02,1.28,0,2.85.11,4.54Z" style="fill:#ffc0ad; stroke-width:0px;"/><path d="m379.5,249.48c.1,1.36.26,2.79.52,4.21.86,4.72,2.79,9.35,6.95,10.84,9.42,3.37,12.79-4.72,14.14-9.43.15-.52.28-1.1.4-1.73.21-1.12.38-2.38.51-3.64h-1.38c-.29.88-1.82,6.22-2.32,6.99-1.07-2.57-6.51-.86-6.51-.86h-.03c-.33.11-.67.17-1.01.17s-.7-.06-1.04-.17c0,0-5.38-1.78-6.49.67-.49-.76-2.26-6.21-2.58-6.79l-1.17-.26Zm11.26,7.54c6.15-.83,5.18,2.48,5.18,2.48-.68.62-1.31,1.08-1.72,1.31-1.34.75-2.67,1.03-3.63.99-.94-.04-1.2.15-3.59-1.14-.42-.23-.85-.56-1.26-.96h0c-.1-.65-1.14-3.74,5.02-2.68Z" style="fill:#01305a; stroke-width:0px;"/><path d="m386.69,250.52c0,.68-.35,1.24-.79,1.24s-.79-.55-.79-1.24.35-1.24.79-1.24.79.55.79,1.24Z" style="fill:#01305a; stroke-width:0px;"/><path d="m395.95,250.5c0,.68-.35,1.24-.79,1.24s-.79-.55-.79-1.24.35-1.24.79-1.24.79.55.79,1.24Z" style="fill:#01305a; stroke-width:0px;"/><path d="m382.52,247.5s2.58-1.96,5.08-1.62l.12,1.3s-3.35.64-4.82,1.77c-.28-.44-.44-.91-.39-1.46Z" style="fill:#01305a; stroke-width:0px;"/><path d="m398.59,247.5s-2.58-1.96-5.08-1.62l-.12,1.3s3.35.64,4.82,1.77c.28-.44.44-.91.39-1.46Z" style="fill:#01305a; stroke-width:0px;"/><path d="m390.84,255.31c.51,0,1.02-.2,1.1-.23.16-.06.23-.24.17-.4-.06-.16-.24-.23-.4-.17-.27.11-.93.29-1.22.12-.05-.03-.13-.1-.15-.28-.11-1.06.18-4.62.18-4.65.01-.17-.11-.31-.28-.33-.17-.01-.31.11-.33.28-.01.15-.3,3.65-.18,4.77.04.42.26.64.44.74.19.12.43.16.66.16Z" style="fill:#fda084; stroke-width:0px;"/><path d="m390.42,257.53c-2.27,0-2.41,3.42-.14,3.54.08,0,.17,0,.26,0s.17,0,.26,0c2.28-.11,2.15-3.54-.13-3.54h-.24Z" style="fill:#fff; stroke-width:0px;"/><path d="m402.02,249.74h-1.38c.15-1.38.37-3.82-.77-4.17-3.59-1.1,1.06-3.64-.56-4.9-1.62-1.27-5.65-.72-8.46-.82-2.82-.09-7.35-.05-8.46.2-1.1.25-.5,2.08-.09,3.5.41,1.42-1.35,2.98-1.65,4.45-.08.42-.07,1.05,0,1.73h-1.15c-.14-1.79-.16-3.45-.13-4.8.05-2.36,1.33-4.52,3.39-5.68,5.56-3.15,11.44-1.98,15.3-.49,2.68,1.03,4.4,3.66,4.26,6.53-.06,1.36-.17,2.91-.32,4.44Z" style="fill:#01305a; stroke-width:0px;"/><path d="m464.81,356.09c-1.71,6.66-6.48,11.72-13.81,14.62-1.94.77-3.81,1.29-5.42,1.64.06-.08.11-.15.17-.23,1.14-1.57,2.11-3.27,2.88-5.08,4.83-1.75,10.33-5.22,12.07-12,1.67-6.53-1.02-16.29-6.88-24.88-4.64-6.8-15.17-18.55-33.58-20.83-16.07-1.99-26.51.45-35.73,2.61-7.83,1.83-15.22,3.56-24.27,1.97-6.65-1.16-11.75-2.85-16.25-4.34-8.28-2.74-13.75-4.55-22.44-.99-14.65,6-21.18,30.88-21.25,31.13l-4.12-1.05c.28-1.11,7.12-27.2,23.75-34.01,10.14-4.15,16.87-1.93,25.38.89,4.36,1.45,9.31,3.08,15.64,4.19,8.2,1.44,14.86-.12,22.57-1.93,9.56-2.24,20.39-4.77,37.22-2.69,7.86.97,15.18,3.67,21.77,8.01,5.73,3.79,10.85,8.84,14.8,14.63,6.61,9.69,9.48,20.55,7.48,28.33Z" style="fill:#00528a; stroke-width:0px;"/><path d="m259.97,379.02l9.53-30.13c4.06-12.84,17.76-19.95,30.59-15.89h0c12.83,4.06,19.95,17.76,15.89,30.59l-9.53,30.13c-19.31-6.11-27.1-8.57-46.48-14.71Z" style="fill:#ff7c78; stroke-width:0px;"/><path d="m334.78,307.62s.83-1.9,2.47-4.46c.84-1.3,2.79-1.93,3-.38.17,1.23-.71,2.16-.89,3.36,0,0,.43-.68,1.39-2.46.87-1.6,2.06-1.48,2.23-.27.17,1.15-.17,1.1-.45,1.97-.38,1.15-.92,2.6-.92,2.6,0,0,.41-1.67,1.83-3.59.65-.88,1.29-1.85,2.26-.49.48.68-.15,2.54-.67,4.53,0,0,1.04-2.66,2.37-3.35,1.05-.54,1.59-.07,1.18,1.4-.53,1.89-.86,2.41-1.26,3.53-.4,1.12-1.87,2.72-3.03,2.35-1.16-.37-1.42-1.18-2.21-1.24-.79-.06-2.07.01-2.61-.48-.54-.49-1.1-.6-2.02-.63-.9-.03-2.72-1.2-2.67-2.4Z" style="fill:#ffc0ad; stroke-width:0px;"/><path d="m417.29,309.47s.52-2,1.76-4.78c.63-1.41,2.22-2.43,2.67-.92.36,1.19-.13,2.33-.12,3.54,0,0,.32-.74,1-2.64.61-1.72,1.8-1.78,2.17-.61.34,1.11,0,1.11-.14,2.02-.2,1.2-.51,2.71-.51,2.71,0,0,.15-1.71,1.26-3.83.51-.97.99-2.03,2.15-.83.58.6.24,2.53.03,4.58,0,0,.24-2.44,1.45-3.32.96-.7,1.94-.66,1.76.85-.23,1.95-.48,2.52-.7,3.69-.22,1.17-1.43,2.98-2.63,2.79-1.21-.19-1.58-.95-2.38-.89-.79.07-2.04.33-2.65-.07-.61-.4-1.18-.42-2.09-.31-.9.11-2.88-.77-3.01-1.96Z" style="fill:#ffc0ad; stroke-width:0px;"/><path d="m255.25,408.14c0,.83-.33,1.58-.88,2.12-.54.54-1.29.88-2.12.88h-11.95v-6h11.95c1.66,0,3,1.34,3,3Z" style="fill:#00528a; stroke-width:0px;"/><path d="m255.25,429.48c0,.83-.33,1.58-.88,2.12-.54.54-1.29.88-2.12.88h-11.95v-6h11.95c1.66,0,3,1.34,3,3Z" style="fill:#00528a; stroke-width:0px;"/><rect x="240.3" y="405.14" width="5.45" height="6" style="fill:#01305a; stroke-width:0px;"/><rect x="240.3" y="426.48" width="5.45" height="6" style="fill:#01305a; stroke-width:0px;"/><path d="m192.88,415.3l-.16,4.75c-49.53-1.74-87.95-5.35-114.17-10.74-22.49-4.62-36.57-10.56-43.06-18.15-3.33-3.9-4.72-8.34-4.12-13.18,1-8.17,8.26-14.19,21.61-17.97.2,1.6.54,3.16,1.02,4.66-8.96,2.58-17.05,6.85-17.91,13.9-.43,3.52.56,6.63,3.02,9.52,5.69,6.67,19.28,12.24,40.4,16.58,25.97,5.34,64.11,8.92,113.38,10.64Z" style="fill:#00528a; stroke-width:0px;"/><path d="m240.3,443.18h-31.61c-13.46,0-24.38-10.91-24.38-24.38h0c0-13.46,10.91-24.38,24.38-24.38h31.61v48.75Z" style="fill:#ff7c78; stroke-width:0px;"/><path d="m457.13,227.95v16.17c0,2.14-1.73,3.87-3.87,3.87h-29.36l-8.86,3.18c-.91.33-1.78-.57-1.43-1.47l3.35-8.66v-13.09c0-2.14,1.73-3.87,3.87-3.87h32.42c2.14,0,3.87,1.73,3.87,3.87Z" style="fill:#ff7c78; stroke-width:0px;"/><g style="mix-blend-mode:screen;"><circle cx="428.82" cy="236.5" r="2.8" style="fill:#ff7c78; stroke-width:0px;"/><circle cx="437.69" cy="236.5" r="2.8" style="fill:#ff7c78; stroke-width:0px;"/><circle cx="446.55" cy="236.5" r="2.8" style="fill:#ff7c78; stroke-width:0px;"/></g><path d="m308.87,129.55c0-3.65,2.97-6.61,6.61-6.61s6.61,2.97,6.61,6.61-2.97,6.61-6.61,6.61-6.61-2.97-6.61-6.61Zm2.07,0c0,2.5,2.04,4.54,4.54,4.54s4.54-2.04,4.54-4.54-2.04-4.54-4.54-4.54-4.54,2.04-4.54,4.54Z" style="fill:#ff7c78; stroke-width:0px;"/><path d="m286.78,101.24c0-3.65,2.97-6.61,6.61-6.61s6.61,2.97,6.61,6.61-2.97,6.61-6.61,6.61-6.61-2.97-6.61-6.61Zm2.07,0c0,2.5,2.04,4.54,4.54,4.54s4.54-2.04,4.54-4.54-2.04-4.54-4.54-4.54-4.54,2.04-4.54,4.54Z" style="fill:#ff7c78; stroke-width:0px;"/><path d="m288.85,132.88c.57,0,1.04-.46,1.04-1.04v-4.57c0-.57-.46-1.04-1.04-1.04s-1.04.46-1.04,1.04v4.57c0,.57.46,1.04,1.04,1.04Z" style="fill:#3b73ab; stroke-width:0px;"/><path d="m288.85,140.88c.57,0,1.04-.46,1.04-1.04v-4.57c0-.57-.46-1.04-1.04-1.04s-1.04.46-1.04,1.04v4.57c0,.57.46,1.04,1.04,1.04Z" style="fill:#3b73ab; stroke-width:0px;"/><path d="m282.43,134.59h4.11c.57,0,1.04-.46,1.04-1.04s-.46-1.04-1.04-1.04h-4.11c-.57,0-1.04.46-1.04,1.04s.46,1.04,1.04,1.04Z" style="fill:#3b73ab; stroke-width:0px;"/><path d="m291.16,134.59h4.11c.57,0,1.04-.46,1.04-1.04s-.46-1.04-1.04-1.04h-4.11c-.57,0-1.04.46-1.04,1.04s.46,1.04,1.04,1.04Z" style="fill:#3b73ab; stroke-width:0px;"/><path d="m316.76,102.41c.57,0,1.04-.46,1.04-1.04v-4.57c0-.57-.46-1.04-1.04-1.04s-1.04.46-1.04,1.04v4.57c0,.57.46,1.04,1.04,1.04Z" style="fill:#00528a; stroke-width:0px;"/><path d="m316.76,110.41c.57,0,1.04-.46,1.04-1.04v-4.57c0-.57-.46-1.04-1.04-1.04s-1.04.46-1.04,1.04v4.57c0,.57.46,1.04,1.04,1.04Z" style="fill:#00528a; stroke-width:0px;"/><path d="m310.34,104.12h4.11c.57,0,1.04-.46,1.04-1.04s-.46-1.04-1.04-1.04h-4.11c-.57,0-1.04.46-1.04,1.04s.46,1.04,1.04,1.04Z" style="fill:#00528a; stroke-width:0px;"/><path d="m319.07,104.12h4.11c.57,0,1.04-.46,1.04-1.04s-.46-1.04-1.04-1.04h-4.11c-.57,0-1.04.46-1.04,1.04s.46,1.04,1.04,1.04Z" style="fill:#00528a; stroke-width:0px;"/><path d="m117.79,84.26c0-3.65,2.97-6.61,6.61-6.61s6.61,2.97,6.61,6.61-2.97,6.61-6.61,6.61-6.61-2.97-6.61-6.61Zm2.07,0c0,2.5,2.04,4.54,4.54,4.54s4.54-2.04,4.54-4.54-2.04-4.54-4.54-4.54-4.54,2.04-4.54,4.54Z" style="fill:#ff7c78; stroke-width:0px;"/><path d="m92.37,96.7c0-3.65,2.97-6.61,6.61-6.61s6.61,2.97,6.61,6.61-2.97,6.61-6.61,6.61-6.61-2.97-6.61-6.61Zm2.07,0c0,2.5,2.04,4.54,4.54,4.54s4.54-2.03,4.54-4.54-2.04-4.54-4.54-4.54-4.54,2.04-4.54,4.54Z" style="fill:#3b73ab; stroke-width:0px;"/><path d="m88.56,114.49c.57,0,1.04-.46,1.04-1.04v-4.57c0-.57-.46-1.04-1.04-1.04s-1.04.46-1.04,1.04v4.57c0,.57.46,1.04,1.04,1.04Z" style="fill:#ff7c78; stroke-width:0px;"/><path d="m88.56,122.5c.57,0,1.04-.46,1.04-1.04v-4.57c0-.57-.46-1.04-1.04-1.04s-1.04.46-1.04,1.04v4.57c0,.57.46,1.04,1.04,1.04Z" style="fill:#ff7c78; stroke-width:0px;"/><path d="m82.15,116.21h4.11c.57,0,1.04-.46,1.04-1.04s-.46-1.04-1.04-1.04h-4.11c-.57,0-1.04.46-1.04,1.04s.46,1.04,1.04,1.04Z" style="fill:#ff7c78; stroke-width:0px;"/><path d="m90.87,116.21h4.11c.57,0,1.04-.46,1.04-1.04s-.46-1.04-1.04-1.04h-4.11c-.57,0-1.04.46-1.04,1.04s.46,1.04,1.04,1.04Z" style="fill:#ff7c78; stroke-width:0px;"/><path d="m107.15,71.72c.57,0,1.04-.46,1.04-1.04v-4.57c0-.57-.46-1.04-1.04-1.04s-1.04.46-1.04,1.04v4.57c0,.57.46,1.04,1.04,1.04Z" style="fill:#00528a; stroke-width:0px;"/><path d="m107.15,79.72c.57,0,1.04-.46,1.04-1.04v-4.57c0-.57-.46-1.04-1.04-1.04s-1.04.46-1.04,1.04v4.57c0,.57.46,1.04,1.04,1.04Z" style="fill:#00528a; stroke-width:0px;"/><path d="m100.73,73.44h4.11c.57,0,1.04-.46,1.04-1.04s-.46-1.04-1.04-1.04h-4.11c-.57,0-1.04.46-1.04,1.04s.46,1.04,1.04,1.04Z" style="fill:#00528a; stroke-width:0px;"/><path d="m109.46,73.44h4.11c.57,0,1.04-.46,1.04-1.04s-.46-1.04-1.04-1.04h-4.11c-.57,0-1.04.46-1.04,1.04s.46,1.04,1.04,1.04Z" style="fill:#00528a; stroke-width:0px;"/></g></g></svg>