<svg width="151" class="reception" height="129" viewBox="0 0 151 129" fill="none" xmlns="http://www.w3.org/2000/svg">
<g id="Group">
<g id="Illustration">
<path id="Vector" d="M149.786 148.333C145.354 152.918 141.388 155.614 138.352 157.648C108.74 177.493 74.8909 171.773 64.4256 169.818C47.5407 166.664 33.288 164.439 21.0422 153.335C-6.7845 128.104 -5.4308 75.4691 15.8315 42.8641C18.3527 38.9982 39.5831 7.41374 73.5059 2.96268C74.3359 2.85384 74.9547 2.79173 75.4969 2.73411C80.7446 2.17644 113.264 -0.766811 139.78 21.5295C143.576 24.7211 149.684 30.4777 155.348 39.2581C176.06 71.3618 176.126 121.083 149.786 148.333Z" fill="url(#paint0_linear_63_1374)"/>
<path id="Vector_2" d="M136.231 146.938C127.723 145.268 121.211 132.52 121.829 121.787C122.467 110.742 130.23 109.211 135.685 95.7722C141.882 80.506 134.922 74.9454 138.122 52.2393C138.843 47.1166 143.02 17.4702 153.539 15.9343C163.265 14.5142 179.758 36.9295 176.604 55.5981C174.356 68.9097 163.774 70.518 161.2 86.0404C158.941 99.6599 166.34 102.926 164.28 116.116C161.772 132.174 147.402 149.129 136.23 146.937L136.231 146.938Z" fill="#BDD0FB"/>
<g id="Vector_3" style="mix-blend-mode:soft-light">
<path d="M134.146 150.395C142.999 134.846 149.255 107.8 152.943 87.8491C156.937 66.2488 158.867 48.0815 158.886 47.9003L158.153 47.8229C158.134 48.0034 156.206 66.147 152.218 87.7191C148.54 107.612 142.308 134.57 133.506 150.028L134.147 150.394L134.146 150.395Z" fill="#F0F0F0"/>
</g>
<path id="Vector_4" d="M97.7653 113.875C83.3046 109.631 74.1662 86.9898 80.1034 77.8572C84.1154 71.6864 92.4086 75.6855 98.3139 68.941C105.853 60.3302 96.7657 48.7506 100.454 30.6512C103.592 15.2485 115.202 -1.04726 124.086 0.0526959C133.387 1.20388 142.223 21.7292 137.319 36.117C134.13 45.4737 126.791 47.3631 126.724 55.4886C126.646 64.9164 136.487 67.2488 138.272 76.0184C141.478 91.7713 116.896 119.489 97.7653 113.875Z" fill="#91B3FA"/>
<path id="Vector_5" d="M106.029 118.494C105.951 118.509 105.868 118.508 105.786 118.486C105.495 118.41 105.321 118.111 105.398 117.819C115.669 78.4265 112.523 35.7265 112.49 35.2995C112.467 34.9985 112.691 34.7354 112.99 34.713C113.29 34.6899 113.552 34.9147 113.575 35.215C113.608 35.6433 116.767 78.527 106.45 118.095C106.395 118.305 106.228 118.454 106.029 118.493V118.494Z" fill="url(#paint1_linear_63_1374)"/>
<g id="Vector_6" style="mix-blend-mode:soft-light">
<path d="M128.231 43.3853C128.176 43.3961 128.118 43.3891 128.064 43.3622C127.936 43.2975 127.884 43.1407 127.949 43.012C132.036 34.8545 136.016 23.0296 131.763 13.0198C129.23 7.05842 124.92 4.54414 124.878 4.51917C124.753 4.4481 124.709 4.28867 124.78 4.16318C124.851 4.03769 125.01 3.99416 125.135 4.06522C125.317 4.16959 129.64 6.69219 132.241 12.8143C134.632 18.4409 135.908 28.288 128.413 43.2457C128.375 43.3206 128.307 43.3692 128.231 43.3846V43.3853Z" fill="#F0F0F0"/>
</g>
<path id="Vector_7" d="M95.9631 110.972C95.8814 110.988 95.794 110.965 95.7302 110.903C84.8611 100.235 80.1015 91.2687 81.5828 84.2521C82.9001 78.0135 88.8839 75.7092 88.9445 75.6868C89.0798 75.6375 89.2284 75.7053 89.2788 75.8404C89.3286 75.9755 89.2609 76.126 89.1263 76.1759C89.0689 76.1977 83.3441 78.4091 82.0905 84.3667C80.6533 91.197 85.3644 99.9992 96.0938 110.529C96.1966 110.631 96.1985 110.796 96.0983 110.899C96.06 110.938 96.0128 110.962 95.9631 110.973V110.972Z" fill="#F0F0F0"/>
<path id="Vector_8" d="M25.0688 86.1774C25.0688 120.655 53.9698 148.604 89.6214 148.604C125.273 148.604 155.771 119.434 155.771 84.9564C155.771 50.4793 125.273 23.7512 89.6214 23.7512C53.9698 23.7512 25.0688 51.7009 25.0688 86.178V86.1774Z" fill="url(#paint2_linear_63_1374)"/>
<path id="Vector_9" d="M150.702 70.9982C150.741 70.9982 150.779 70.9937 150.817 70.9841C151.055 70.9227 151.197 70.687 151.134 70.4559C150.439 67.9333 149.552 65.4312 148.496 63.0193C148.4 62.8004 148.137 62.7005 147.912 62.7901C147.685 62.8836 147.58 63.1359 147.675 63.3561C148.715 65.7302 149.589 68.1939 150.272 70.6787C150.325 70.8714 150.505 70.9988 150.702 70.9988V70.9982Z" fill="#BDD0FB"/>
<path id="Vector_10" d="M140.838 51.4896C140.931 51.4896 141.026 51.4608 141.106 51.4032C141.302 51.2598 141.341 50.9889 141.193 50.7994C129.233 35.4614 109.968 26.3058 89.6597 26.3058C80.9864 26.3058 72.5969 28.0063 64.7261 31.3593C64.5009 31.4554 64.3988 31.7102 64.4977 31.9279C64.5966 32.1456 64.8601 32.2442 65.0852 32.1494C72.8425 28.8438 81.1108 27.1682 89.6597 27.1682C109.69 27.1682 128.689 36.1965 140.481 51.3187C140.569 51.4313 140.703 51.4903 140.838 51.4903V51.4896Z" fill="#BDD0FB"/>
<path id="Vector_11" d="M33.8513 86.1774C33.8513 116.022 58.8686 140.214 89.7286 140.214C120.589 140.214 146.988 114.964 146.988 85.1203C146.988 55.2767 120.589 32.1404 89.7286 32.1404C58.8686 32.1404 33.8513 56.3338 33.8513 86.1774Z" fill="#BDD0FB"/>
<path id="Vector_12" d="M33.8519 86.1774C33.8519 56.3338 58.8692 32.1404 89.7292 32.1404C106.44 32.1404 121.84 38.9272 132.452 49.8864L89.4077 84.5217L80.5589 139.486C54.0623 135.254 33.8519 113 33.8519 86.1774Z" fill="#BDD0FB"/>
<path id="Vector_13" d="M41.4574 82.421C41.4574 109.355 64.5041 131.189 92.933 131.189C121.362 131.189 145.682 108.401 145.682 81.467C145.682 54.5333 121.362 33.6533 92.933 33.6533C64.5041 33.6533 41.4574 55.4873 41.4574 82.421Z" fill="#91B3FA"/>
<path id="Vector_14" d="M132.708 83.375C132.847 85.669 134.881 87.4201 137.253 87.2863C139.625 87.1525 141.436 85.185 141.297 82.8916C141.159 80.5976 139.124 78.8465 136.753 78.9803C134.381 79.1134 132.57 81.0816 132.708 83.375Z" fill="url(#paint3_linear_63_1374)"/>
<path id="Vector_15" opacity="0.78" d="M39.7674 88.6059C39.9052 90.8999 41.9402 92.651 44.3121 92.5172C46.6839 92.3834 48.495 90.4159 48.3566 88.1218C48.2188 85.8278 46.1838 84.0767 43.812 84.2105C41.4401 84.3437 39.629 86.3118 39.7674 88.6052V88.6059Z" fill="white"/>
<path id="Vector_16" d="M98.1239 125.94C95.7865 126.353 94.2382 128.519 94.665 130.78C95.0918 133.04 97.3328 134.539 99.6702 134.126C102.008 133.713 103.556 131.546 103.129 129.285C102.702 127.025 100.461 125.528 98.1239 125.94Z" fill="url(#paint4_linear_63_1374)"/>
<path id="Vector_17" d="M81.3959 37.3726C79.0585 37.7855 77.5096 39.9522 77.937 42.2129C78.3638 44.473 80.6048 45.9706 82.9422 45.5576C85.2796 45.1446 86.8279 42.978 86.4011 40.7173C85.9743 38.4572 83.7333 36.9596 81.3959 37.3719V37.3726Z" fill="url(#paint5_linear_63_1374)"/>
<path id="Vector_18" opacity="0.78" d="M67.5393 128.318C67.1016 129.384 67.2114 130.383 67.783 130.548C68.3546 130.714 69.173 129.983 69.61 128.916C70.047 127.85 69.9379 126.851 69.3663 126.685C68.7941 126.52 67.9763 127.25 67.5393 128.317V128.318Z" fill="white"/>
<path id="Vector_19" d="M104.929 44.3117C104.492 45.3784 104.601 46.3772 105.173 46.5424C105.745 46.7076 106.563 45.977 107 44.9104C107.437 43.8437 107.328 42.8449 106.756 42.6791C106.184 42.5139 105.366 43.2444 104.929 44.3111V44.3117Z" fill="url(#paint6_linear_63_1374)"/>
<path id="Vector_20" opacity="0.78" d="M48.0166 112.348C47.0706 113.041 46.6272 113.949 47.0272 114.377C47.4272 114.806 48.5187 114.593 49.4647 113.9C50.4108 113.208 50.8535 112.3 50.4535 111.871C50.0536 111.443 48.962 111.656 48.016 112.348H48.0166Z" fill="white"/>
<path id="Vector_21" d="M125.075 59.3276C124.129 60.0197 123.685 60.9283 124.085 61.3566C124.485 61.7856 125.577 61.5717 126.523 60.8796C127.469 60.1875 127.912 59.279 127.512 58.8506C127.112 58.4223 126.021 58.6361 125.075 59.3276Z" fill="url(#paint7_linear_63_1374)"/>
<path id="Vector_22" opacity="0.78" d="M45.5643 64.7832C44.4933 64.2902 43.4553 64.3286 43.2467 64.8696C43.0375 65.4107 43.7367 66.2488 44.8078 66.7418C45.8788 67.2347 46.9168 67.1963 47.126 66.656C47.3352 66.1149 46.6361 65.2768 45.565 64.7838L45.5643 64.7832Z" fill="white"/>
<path id="Vector_23" opacity="0.78" d="M129.732 106.487C128.661 105.994 127.623 106.032 127.414 106.573C127.205 107.114 127.904 107.952 128.975 108.445C130.046 108.938 131.084 108.899 131.293 108.359C131.502 107.818 130.803 106.98 129.732 106.487H129.732Z" fill="white"/>
<path id="Vector_24" d="M63.3481 47.0149C62.6974 46.0551 61.7896 45.5672 61.3208 45.9245C60.8519 46.2818 60.9992 47.3491 61.6499 48.3088C62.3006 49.2679 63.2084 49.7564 63.6773 49.3992C64.1462 49.0419 63.9988 47.9746 63.3481 47.0149Z" fill="#91B3FA"/>
<path id="Vector_25" d="M112.89 124.919C112.239 123.96 111.332 123.472 110.863 123.829C110.394 124.186 110.541 125.253 111.192 126.213C111.843 127.173 112.75 127.661 113.219 127.304C113.688 126.946 113.541 125.879 112.89 124.919Z" fill="url(#paint8_linear_63_1374)"/>
<path id="Vector_26" d="M91.4689 84.5031L126.028 101.172C126.698 101.494 127.481 101.01 127.458 100.286L127.322 95.9842C127.296 95.1474 128.315 94.6838 128.965 95.237L153.952 116.513C154.716 117.164 154.088 118.372 153.092 118.166L120.909 111.521C120.139 111.362 119.86 110.439 120.421 109.905L124.189 106.311C124.654 105.867 124.554 105.116 123.988 104.801L90.5337 86.1895C90.0681 85.9302 89.9009 85.3585 90.1586 84.902C90.4132 84.45 90.9924 84.2739 91.4689 84.5037V84.5031Z" fill="url(#paint9_linear_63_1374)"/>
<path id="Vector_27" opacity="0.72" d="M150.066 116.413C150.388 116.413 150.678 116.239 150.825 115.947C151 115.598 150.91 115.198 150.6 114.95L145.133 110.579C144.943 110.427 144.662 110.453 144.505 110.637C144.349 110.821 144.375 111.092 144.565 111.244L150.033 115.616C142.747 114.007 125.684 110.41 125.33 110.376C125.091 110.35 124.866 110.524 124.841 110.761C124.817 110.996 124.99 111.204 125.23 111.232C125.741 111.312 138.818 114.06 149.878 116.393C149.941 116.406 150.004 116.413 150.066 116.413V116.413Z" fill="white"/>
<path id="Vector_28" d="M87.8639 82.8615L87.9322 50.1841C87.9207 49.4606 87.115 49.0111 86.4617 49.3633L82.5742 51.4588C81.8182 51.8667 80.9232 51.2047 81.1325 50.3922L89.173 19.1496C89.4192 18.1937 90.8176 18.1777 91.0868 19.1278L99.7895 49.8185C99.9974 50.5529 99.2785 51.2168 98.5296 50.9812L93.4975 49.3991C92.8755 49.2032 92.2319 49.6347 92.2032 50.2667L89.8415 82.889C89.8179 83.4082 89.3701 83.8142 88.8323 83.8033C88.3003 83.7924 87.8722 83.3762 87.8639 82.8615Z" fill="url(#paint10_linear_63_1374)"/>
<path id="Vector_29" opacity="0.72" d="M97.1191 46.8221C97.1733 46.8221 97.2282 46.8132 97.2818 46.7927C97.5082 46.7069 97.6212 46.4617 97.5376 46.2421C97.3756 45.7689 93.8835 33.2756 90.9375 22.7037C90.8329 22.3298 90.5044 22.0839 90.0929 22.0935C89.6916 22.1038 89.365 22.3656 89.2802 22.7453L87.7817 29.4514C87.73 29.6838 87.8825 29.9136 88.1236 29.9636C88.3615 30.0148 88.6008 29.8669 88.6531 29.6332L90.1516 22.9271C92.0258 29.9239 96.5743 46.228 96.7045 46.5487C96.7733 46.7191 96.9411 46.8221 97.1191 46.8221Z" fill="white"/>
<path id="Vector_30" d="M90.0176 89.0566C92.555 89.0566 94.612 87.0672 94.612 84.6132C94.612 82.1592 92.555 80.1699 90.0176 80.1699C87.4802 80.1699 85.4232 82.1592 85.4232 84.6132C85.4232 87.0672 87.4802 89.0566 90.0176 89.0566Z" fill="url(#paint11_linear_63_1374)"/>
<path id="Vector_31" d="M41.7343 93.9328C41.7343 93.9328 52.4458 161.131 52.2691 161.5C52.2691 161.5 55.2272 162.85 58.4526 161.672C58.4526 161.672 57.4842 125.75 55.2144 111.977C55.2144 111.977 73.4951 144.085 79.3003 160.083C79.3003 160.083 82.3279 159.72 84.8344 158.065C84.8344 158.065 65.1515 100.273 59.9001 92.5754L41.7343 93.9328Z" fill="url(#paint12_linear_63_1374)"/>
<path id="Vector_32" d="M40.0457 47.0123C39.2801 47.0577 38.5255 47.205 37.802 47.4566C29.9523 50.1867 23.7873 49.4997 19.0481 47.351C17.9495 48.8146 16.1805 51.8584 15.4099 56.9753C24.0367 63.4195 34.8854 61.7215 38.433 60.925C37.5041 67.8411 37.5131 78.7818 41.3056 94.8208C41.4051 95.2408 41.7643 95.5514 42.1968 95.5872C44.6203 95.7882 52.7323 96.2659 60.5316 94.5077C60.8819 94.429 61.0733 94.0512 60.9342 93.7228L60.8634 93.555C60.2133 92.0197 59.9224 90.3589 60.0156 88.6955C60.2988 83.6432 61.6531 72.2275 64.5398 64.4036C64.7076 64.6885 64.8645 64.9695 65.0163 65.2493C65.5388 60.1036 67.503 55.0417 68.8892 49.937C57.5946 46.3343 44.1635 46.7703 40.045 47.0123H40.0457Z" fill="url(#paint13_linear_63_1374)"/>
<path id="Vector_33" d="M57.666 37.6691C57.666 37.6691 58.4551 46.0417 59.1498 48.5188C59.2551 48.8947 59.0924 49.291 58.7524 49.4856C57.5735 50.1617 54.7455 51.2649 50.8771 49.3621C50.2506 49.0541 49.8736 48.3985 49.903 47.7044L50.2436 39.6135L57.666 37.6691Z" fill="url(#paint14_linear_63_1374)"/>
<path id="Vector_34" d="M50.0733 26.9576C50.0733 26.9576 47.5497 32.7762 47.38 35.8296C47.2103 38.8836 46.5551 40.8652 50.0733 41.4799C53.5915 42.0945 56.5554 40.3357 58.1611 37.2939C58.1611 37.2939 60.6771 32.6066 60.1125 30.6871C59.5479 28.7676 50.0733 26.9576 50.0733 26.9576Z" fill="url(#paint15_linear_63_1374)"/>
<path id="Vector_35" d="M56.9592 35.1067L56.7588 35.0184C56.5037 34.9057 56.3946 34.6009 56.5228 34.3525C57.0191 33.3902 57.9862 31.1858 56.7365 30.6717C55.5595 30.187 54.2856 29.9149 53.0754 29.5263C51.952 29.1652 49.7703 28.7874 49.184 27.5978C49.0143 27.254 49.2 26.8481 49.3831 26.5113C49.725 25.8806 50.0669 25.2494 50.4088 24.6187C50.6978 24.0854 50.997 23.5392 51.4576 23.1455C52.5121 22.2446 53.7701 23.0353 54.9369 23.2518C59.2774 24.0559 62.1468 25.8185 62.2183 28.829C62.2228 29.0205 62.4256 29.1267 62.5883 29.0269C62.9085 28.8309 63.4214 28.7387 64.1072 29.3175C65.2995 30.3234 64.8115 32.9331 62.1985 35.0792C62.0741 35.181 62.0754 35.3756 62.21 35.4634C62.684 35.7726 63.3902 36.5095 61.5599 37.491C59.6672 38.5065 58.2542 38.4233 57.71 38.333C57.5748 38.3106 57.4874 38.1787 57.5167 38.0442L58.0979 35.3987C58.131 35.2489 58.0169 35.1074 57.8644 35.1074H56.9598L56.9592 35.1067Z" fill="url(#paint16_linear_63_1374)"/>
<path id="Vector_36" d="M56.8495 35.665C56.8495 35.665 57.8121 31.9483 59.4727 32.9907C61.1332 34.033 58.6108 37.1549 57.2763 37.2938L56.8495 35.665Z" fill="url(#paint17_linear_63_1374)"/>
<path id="Vector_37" d="M47.9867 27.9468C52.1141 15.6647 69.2401 23.4073 63.5931 34.1086C57.6648 31.4144 50.7592 27.0971 47.9867 27.9468Z" fill="url(#paint18_linear_63_1374)"/>
<path id="Vector_38" d="M58.0794 31.212L47.3162 32.6315C47.0425 32.6673 46.7701 32.5572 46.5992 32.3395C45.3571 30.7574 43.7738 29.8797 41.9193 29.5582C41.6845 29.5179 41.6775 29.1811 41.9091 29.1274L48.402 27.6048C48.409 27.6029 48.4167 27.6023 48.4237 27.6016C51.7371 27.3186 54.9542 28.8207 58.1381 30.9572C58.244 31.0283 58.2058 31.1947 58.0788 31.212H58.0794Z" fill="url(#paint19_linear_63_1374)"/>
<path id="Vector_39" d="M60.42 93.2279C62.8888 93.2753 64.9149 91.2796 64.9149 88.8018V69.1031C64.9149 66.5151 62.8422 64.4093 60.2637 64.3812C52.5249 64.2967 36.5638 64.2922 23.504 65.3966C21.7216 65.5471 20.336 67.0133 20.271 68.8073L19.0506 87.8517C18.96 90.3704 20.944 92.4749 23.4555 92.523L60.4194 93.2279H60.42Z" fill="url(#paint20_linear_63_1374)"/>
<path id="Vector_40" d="M60.4327 71.2344C60.4659 72.9106 60.4161 75.5703 60.3753 77.2881C60.3543 78.1819 59.5721 78.8631 58.6873 78.7594L52.3182 78.0103C51.4697 77.9104 50.872 77.1254 50.9989 76.2777L51.7804 71.0436C51.8914 70.3003 52.5274 69.751 53.2757 69.751H58.9202C59.7425 69.751 60.4161 70.4092 60.4321 71.2344H60.4327Z" fill="white"/>
<path id="Vector_41" opacity="0.37" d="M43.789 81.1533L38.4763 81.7282C37.7331 81.8089 37.0984 81.1936 37.1532 80.4451L38.3149 64.5841C40.5419 64.513 42.739 64.4618 44.8582 64.4253V79.9585C44.8582 80.5725 44.397 81.088 43.789 81.1539V81.1533Z" fill="white"/>
<path id="Vector_42" d="M41.6118 78.4047C41.5952 78.6902 41.3598 78.9098 41.0785 78.9098C41.0682 78.9098 41.0574 78.9098 41.0472 78.9086C40.7525 78.8913 40.5273 78.6377 40.5445 78.3419L41.3458 64.499C41.7049 64.49 42.0615 64.4823 42.4175 64.474L41.6111 78.404L41.6118 78.4047Z" fill="white"/>
<path id="Vector_43" d="M57.4874 76.231C57.5806 76.231 57.659 76.1587 57.6654 76.0633L57.941 71.7031C57.9474 71.6045 57.8727 71.52 57.7745 71.5136C57.6711 71.5053 57.592 71.5821 57.5857 71.6807L57.3101 76.0409C57.3037 76.1395 57.3783 76.224 57.4766 76.2304C57.4804 76.2304 57.4842 76.2304 57.4874 76.2304V76.231Z" fill="url(#paint21_linear_63_1374)"/>
<path id="Vector_44" d="M56.9203 76.231C57.016 76.231 57.0951 76.1548 57.0983 76.0581L57.2424 71.6148C57.2456 71.5162 57.1684 71.4329 57.0702 71.4297C56.9567 71.424 56.8897 71.504 56.8858 71.6026L56.7417 76.046C56.7385 76.1446 56.8157 76.2278 56.9139 76.231H56.9197H56.9203Z" fill="url(#paint22_linear_63_1374)"/>
<path id="Vector_45" d="M56.1516 76.2304C56.0533 76.2259 55.9774 76.142 55.9819 76.0434C56.0527 74.5503 56.1873 71.7031 56.1892 71.6064C56.1898 71.5085 56.2696 71.4291 56.3672 71.4291C56.4648 71.4291 56.5452 71.5091 56.5452 71.6077C56.5452 71.6813 56.3717 75.3295 56.3372 76.06C56.3327 76.1561 56.2543 76.2304 56.1592 76.2304C56.1567 76.2304 56.1535 76.2304 56.1509 76.2304H56.1516Z" fill="url(#paint23_linear_63_1374)"/>
<path id="Vector_46" d="M54.9727 76.4096C55.1634 76.4096 55.3217 76.2579 55.328 76.0645C55.4786 71.7588 55.4524 71.6621 55.4346 71.5975C55.3829 71.4067 55.1851 71.2946 54.9969 71.3465C54.8228 71.3945 54.7137 71.5642 54.7373 71.7389C54.7488 71.9976 54.6691 74.5029 54.6155 76.0389C54.6084 76.2361 54.7622 76.4019 54.9587 76.409C54.9631 76.409 54.9676 76.409 54.9714 76.409L54.9727 76.4096Z" fill="url(#paint24_linear_63_1374)"/>
<path id="Vector_47" d="M54.2001 76.231C54.2983 76.231 54.3781 76.151 54.3781 76.0524V71.6922C54.3781 71.5936 54.2983 71.5136 54.2001 71.5136C54.1018 71.5136 54.0221 71.5936 54.0221 71.6922V76.0524C54.0221 76.151 54.1018 76.231 54.2001 76.231Z" fill="url(#paint25_linear_63_1374)"/>
<path id="Vector_48" d="M53.5768 76.231C53.6738 76.231 53.7529 76.1535 53.7548 76.0562C53.7886 74.5414 53.8684 72.0668 53.9398 71.7691C53.9711 71.7127 53.9711 71.6417 53.9335 71.5834C53.8792 71.5002 53.7695 71.4777 53.6866 71.5322C53.5896 71.5962 53.4971 71.6564 53.3982 76.0479C53.3963 76.1465 53.4741 76.2284 53.5724 76.231H53.5768Z" fill="url(#paint26_linear_63_1374)"/>
<path id="Vector_49" d="M58.4462 76.6279C58.6344 76.6279 58.792 76.48 58.8015 76.2886L59.0388 71.7101C59.049 71.5129 58.8979 71.3452 58.7014 71.3343C58.5151 71.3209 58.3378 71.4758 58.3269 71.673L58.0896 76.2515C58.0794 76.4487 58.2306 76.6164 58.4271 76.6273C58.4334 76.6273 58.4398 76.6273 58.4456 76.6273L58.4462 76.6279Z" fill="url(#paint27_linear_63_1374)"/>
<path id="Vector_50" d="M47.2792 65.113C49.1273 65.1482 50.6443 63.6545 50.6443 61.7996V47.0533C50.6443 45.1159 49.0929 43.5396 47.1625 43.5184C41.3694 43.455 29.4209 43.4518 19.6445 44.279C18.3106 44.3917 17.2727 45.4891 17.2242 46.8324L16.3107 61.089C16.2431 62.9745 17.7282 64.5502 19.6082 64.586L47.2799 65.1136L47.2792 65.113Z" fill="url(#paint28_linear_63_1374)"/>
<path id="Vector_51" d="M47.2881 48.6482C47.3129 49.9031 47.2753 51.8936 47.2453 53.1799C47.2294 53.849 46.6444 54.3592 45.9816 54.2811L41.2136 53.7203C40.5783 53.6454 40.1311 53.0582 40.2261 52.4231L40.8111 48.5047C40.894 47.9484 41.3706 47.5367 41.9307 47.5367H46.1557C46.7713 47.5367 47.2753 48.0297 47.2874 48.6475L47.2881 48.6482Z" fill="white"/>
<path id="Vector_52" opacity="0.37" d="M34.8286 56.0738L30.8517 56.5047C30.2954 56.5649 29.8202 56.1046 29.8617 55.5443L30.7312 43.6708C32.3981 43.6176 34.0427 43.5792 35.6299 43.5517V55.18C35.6299 55.6397 35.2847 56.0252 34.8292 56.0751L34.8286 56.0738Z" fill="white"/>
<path id="Vector_53" d="M33.1987 54.016C33.1865 54.2299 33.0098 54.3944 32.8 54.3944C32.7923 54.3944 32.784 54.3944 32.7764 54.3938C32.5556 54.381 32.3872 54.1915 32.4 53.9699L32.9996 43.6068C33.2688 43.6004 33.5355 43.594 33.8022 43.5882L33.1987 54.0167V54.016Z" fill="white"/>
<path id="Vector_54" d="M45.0834 52.3885C45.1529 52.3885 45.2123 52.3341 45.2167 52.263L45.4228 48.999C45.4273 48.9254 45.3718 48.862 45.2978 48.8568C45.2206 48.8511 45.1612 48.9081 45.1561 48.9823L44.9501 52.2464C44.9456 52.32 45.0011 52.3834 45.0751 52.3885C45.0777 52.3885 45.0809 52.3885 45.0834 52.3885Z" fill="url(#paint29_linear_63_1374)"/>
<path id="Vector_55" d="M44.6592 52.3885C44.7306 52.3885 44.7899 52.3315 44.7925 52.2592L44.9003 48.9324C44.9029 48.8581 44.8448 48.7967 44.7714 48.7941C44.6866 48.7896 44.6362 48.8498 44.6336 48.9235L44.5258 52.2502C44.5233 52.3245 44.5813 52.386 44.6547 52.3885H44.6592Z" fill="url(#paint30_linear_63_1374)"/>
<path id="Vector_56" d="M44.0831 52.3885C44.0091 52.3853 43.9523 52.3225 43.9561 52.2489C44.0091 51.1317 44.1099 49.0003 44.1111 48.9273C44.1111 48.8543 44.1711 48.7947 44.2445 48.7947C44.3178 48.7947 44.3778 48.8549 44.3778 48.9286C44.3778 48.9836 44.2483 51.7143 44.2221 52.2611C44.2189 52.3328 44.1596 52.3885 44.0888 52.3885C44.0869 52.3885 44.0843 52.3885 44.0824 52.3885H44.0831Z" fill="url(#paint31_linear_63_1374)"/>
<path id="Vector_57" d="M43.2008 52.523C43.3437 52.523 43.4624 52.409 43.4668 52.2649C43.5797 49.0419 43.56 48.9695 43.5466 48.9209C43.5083 48.7781 43.3603 48.6942 43.2193 48.7326C43.0885 48.7685 43.0075 48.8953 43.0247 49.0265C43.033 49.2205 42.9737 51.0952 42.9335 52.2457C42.9284 52.3936 43.0432 52.5178 43.1906 52.5223C43.1938 52.5223 43.197 52.5223 43.2002 52.5223L43.2008 52.523Z" fill="url(#paint32_linear_63_1374)"/>
<path id="Vector_58" d="M42.6228 52.3885C42.6968 52.3885 42.7562 52.329 42.7562 52.2547V48.9907C42.7562 48.9164 42.6968 48.8569 42.6228 48.8569C42.5488 48.8569 42.4895 48.9164 42.4895 48.9907V52.2547C42.4895 52.329 42.5488 52.3885 42.6228 52.3885Z" fill="url(#paint33_linear_63_1374)"/>
<path id="Vector_59" d="M42.1559 52.3885C42.228 52.3885 42.288 52.3303 42.2893 52.2579C42.3148 51.124 42.3747 49.2711 42.4277 49.0483C42.4513 49.006 42.4507 48.9529 42.4226 48.9094C42.3824 48.8473 42.2995 48.8306 42.2382 48.871C42.1655 48.919 42.0966 48.9638 42.0226 52.2515C42.0213 52.3258 42.0794 52.3866 42.1527 52.3885H42.1559Z" fill="url(#paint34_linear_63_1374)"/>
<path id="Vector_60" d="M45.8011 52.6862C45.9421 52.6862 46.0594 52.5755 46.0671 52.4327L46.2451 49.0054C46.2527 48.8575 46.1398 48.732 45.9925 48.7243C45.8528 48.7147 45.7201 48.83 45.7124 48.9779L45.5344 52.4051C45.5268 52.553 45.6397 52.6785 45.787 52.6862C45.7915 52.6862 45.7966 52.6862 45.8011 52.6862Z" fill="url(#paint35_linear_63_1374)"/>
<path id="Vector_61" d="M15.0054 52.0441C15.8181 51.8437 17.6439 49.3646 17.8385 50.2705C18.0324 51.1765 17.4819 52.3251 17.5635 52.7099C17.6452 53.0954 18.2582 55.2524 17.7709 56.1577C17.4194 56.8108 16.7298 58.8653 16.3731 59.9589C16.2545 60.3219 16.1582 60.8008 15.7799 60.7586C15.4016 60.7157 15.1088 60.2054 15.0737 59.8251C15.0596 59.6727 14.1921 52.2445 15.0048 52.0441H15.0054Z" fill="url(#paint36_linear_63_1374)"/>
<path id="Vector_62" d="M73.2488 55.1025C72.2479 52.797 69.057 49.9901 68.8898 49.937C67.5036 55.0417 65.0635 59.2578 64.5404 64.4035C67.9616 70.7101 67.177 78.1473 65.0405 81.7641C66.0912 83.3301 67.3199 85.4622 68.384 88.1148C81.5375 80.2127 76.3307 62.2023 73.2482 55.1032L73.2488 55.1025Z" fill="url(#paint37_linear_63_1374)"/>
<path id="Vector_63" d="M56.3537 93.8329L44.9653 93.5839C44.9653 93.5839 54.8961 90.7667 55.5123 91.5338C55.5123 91.5338 61.6677 87.4745 65.0405 81.7641C66.0912 83.3302 67.3198 85.4622 68.3839 88.1148C65.3601 89.8966 61.3883 92.9916 56.3531 93.8329H56.3537Z" fill="url(#paint38_linear_63_1374)"/>
<path id="Vector_64" d="M56.6747 91.8533C56.6747 91.8533 56.9095 96.4074 50.9531 95.746C47.7162 95.3868 42.4902 92.3572 42.4902 92.3572C42.4902 92.3572 56.112 92.3207 56.6747 91.8533Z" fill="url(#paint39_linear_63_1374)"/>
</g>
</g>
<defs>
<linearGradient id="paint0_linear_63_1374" x1="185.833" y1="199.794" x2="65.312" y2="71.9627" gradientUnits="userSpaceOnUse">
<stop stop-color="#DAE3FE"/>
<stop offset="1" stop-color="#E9EFFD"/>
</linearGradient>
<linearGradient id="paint1_linear_63_1374" x1="110.087" y1="34.6967" x2="109.46" y2="118.536" gradientUnits="userSpaceOnUse">
<stop stop-color="#09005D"/>
<stop offset="1" stop-color="#1A0F91"/>
</linearGradient>
<linearGradient id="paint2_linear_63_1374" x1="123.847" y1="40.3114" x2="202.149" y2="-64.5654" gradientUnits="userSpaceOnUse">
<stop stop-color="#4F52FF"/>
<stop offset="1" stop-color="#4042E2"/>
</linearGradient>
<linearGradient id="paint3_linear_63_1374" x1="145.035" y1="69.1792" x2="229.393" y2="-76.3108" gradientUnits="userSpaceOnUse">
<stop stop-color="#3E30CB"/>
<stop offset="1" stop-color="#1D129D"/>
</linearGradient>
<linearGradient id="paint4_linear_63_1374" x1="136.705" y1="64.3491" x2="221.062" y2="-81.1403" gradientUnits="userSpaceOnUse">
<stop stop-color="#3E30CB"/>
<stop offset="1" stop-color="#1D129D"/>
</linearGradient>
<linearGradient id="paint5_linear_63_1374" x1="85.9392" y1="34.9146" x2="170.297" y2="-110.575" gradientUnits="userSpaceOnUse">
<stop stop-color="#3E30CB"/>
<stop offset="1" stop-color="#1D129D"/>
</linearGradient>
<linearGradient id="paint6_linear_63_1374" x1="105.139" y1="46.0468" x2="189.496" y2="-99.4433" gradientUnits="userSpaceOnUse">
<stop stop-color="#3E30CB"/>
<stop offset="1" stop-color="#1D129D"/>
</linearGradient>
<linearGradient id="paint7_linear_63_1374" x1="126.696" y1="58.5459" x2="211.053" y2="-86.9435" gradientUnits="userSpaceOnUse">
<stop stop-color="#3E30CB"/>
<stop offset="1" stop-color="#1D129D"/>
</linearGradient>
<linearGradient id="paint8_linear_63_1374" x1="112.041" y1="60.3566" x2="112.041" y2="102.672" gradientUnits="userSpaceOnUse">
<stop stop-color="#3E30CB"/>
<stop offset="1" stop-color="#1D129D"/>
</linearGradient>
<linearGradient id="paint9_linear_63_1374" x1="258.102" y1="-9.46535" x2="105.475" y2="113.981" gradientUnits="userSpaceOnUse">
<stop stop-color="#FF928E"/>
<stop offset="1" stop-color="#FE7062"/>
</linearGradient>
<linearGradient id="paint10_linear_63_1374" x1="220.655" y1="-55.7636" x2="68.0288" y2="67.6817" gradientUnits="userSpaceOnUse">
<stop stop-color="#FF928E"/>
<stop offset="1" stop-color="#FE7062"/>
</linearGradient>
<linearGradient id="paint11_linear_63_1374" x1="130.984" y1="33.0816" x2="98.9012" y2="73.1466" gradientUnits="userSpaceOnUse">
<stop stop-color="#FF928E"/>
<stop offset="0.67" stop-color="#FE7B70"/>
<stop offset="1" stop-color="#FE7062"/>
</linearGradient>
<linearGradient id="paint12_linear_63_1374" x1="115.634" y1="25.1789" x2="68.0897" y2="116.081" gradientUnits="userSpaceOnUse">
<stop stop-color="#09005D"/>
<stop offset="1" stop-color="#1A0F91"/>
</linearGradient>
<linearGradient id="paint13_linear_63_1374" x1="15.4106" y1="71.3279" x2="68.8899" y2="71.3279" gradientUnits="userSpaceOnUse">
<stop stop-color="#090056"/>
<stop offset="1" stop-color="#020039"/>
</linearGradient>
<linearGradient id="paint14_linear_63_1374" x1="56.3863" y1="56.5227" x2="53.8397" y2="43.203" gradientUnits="userSpaceOnUse">
<stop stop-color="#FEBBBA"/>
<stop offset="1" stop-color="#FF928E"/>
</linearGradient>
<linearGradient id="paint15_linear_63_1374" x1="49.5445" y1="32.079" x2="64.0094" y2="43.1073" gradientUnits="userSpaceOnUse">
<stop stop-color="#FEBBBA"/>
<stop offset="1" stop-color="#FF928E"/>
</linearGradient>
<linearGradient id="paint16_linear_63_1374" x1="61.1989" y1="24.4753" x2="47.7018" y2="41.7902" gradientUnits="userSpaceOnUse">
<stop stop-color="#09005D"/>
<stop offset="1" stop-color="#1A0F91"/>
</linearGradient>
<linearGradient id="paint17_linear_63_1374" x1="51.3339" y1="29.7318" x2="65.7995" y2="40.76" gradientUnits="userSpaceOnUse">
<stop stop-color="#FEBBBA"/>
<stop offset="1" stop-color="#FF928E"/>
</linearGradient>
<linearGradient id="paint18_linear_63_1374" x1="95.8326" y1="6.80841" x2="60.3302" y2="26.8134" gradientUnits="userSpaceOnUse">
<stop stop-color="#FF928E"/>
<stop offset="1" stop-color="#FE7062"/>
</linearGradient>
<linearGradient id="paint19_linear_63_1374" x1="94.6988" y1="4.79763" x2="59.1966" y2="24.802" gradientUnits="userSpaceOnUse">
<stop stop-color="#FF928E"/>
<stop offset="1" stop-color="#FE7062"/>
</linearGradient>
<linearGradient id="paint20_linear_63_1374" x1="110.151" y1="31.7909" x2="18.2184" y2="95.697" gradientUnits="userSpaceOnUse">
<stop stop-color="#FF928E"/>
<stop offset="1" stop-color="#FE7062"/>
</linearGradient>
<linearGradient id="paint21_linear_63_1374" x1="55.4715" y1="70.7312" x2="66.9284" y2="87.3192" gradientUnits="userSpaceOnUse">
<stop stop-color="#09005D"/>
<stop offset="1" stop-color="#1A0F91"/>
</linearGradient>
<linearGradient id="paint22_linear_63_1374" x1="55.0614" y1="71.0142" x2="66.5182" y2="87.6021" gradientUnits="userSpaceOnUse">
<stop stop-color="#09005D"/>
<stop offset="1" stop-color="#1A0F91"/>
</linearGradient>
<linearGradient id="paint23_linear_63_1374" x1="54.5669" y1="71.3554" x2="66.0237" y2="87.9434" gradientUnits="userSpaceOnUse">
<stop stop-color="#09005D"/>
<stop offset="1" stop-color="#1A0F91"/>
</linearGradient>
<linearGradient id="paint24_linear_63_1374" x1="53.7115" y1="71.9464" x2="65.1683" y2="88.5343" gradientUnits="userSpaceOnUse">
<stop stop-color="#09005D"/>
<stop offset="1" stop-color="#1A0F91"/>
</linearGradient>
<linearGradient id="paint25_linear_63_1374" x1="53.1475" y1="72.3363" x2="64.6043" y2="88.9242" gradientUnits="userSpaceOnUse">
<stop stop-color="#09005D"/>
<stop offset="1" stop-color="#1A0F91"/>
</linearGradient>
<linearGradient id="paint26_linear_63_1374" x1="52.7973" y1="72.5783" x2="64.2541" y2="89.1656" gradientUnits="userSpaceOnUse">
<stop stop-color="#09005D"/>
<stop offset="1" stop-color="#1A0F91"/>
</linearGradient>
<linearGradient id="paint27_linear_63_1374" x1="56.0578" y1="70.3259" x2="67.5146" y2="86.9138" gradientUnits="userSpaceOnUse">
<stop stop-color="#09005D"/>
<stop offset="1" stop-color="#1A0F91"/>
</linearGradient>
<linearGradient id="paint28_linear_63_1374" x1="90.7621" y1="14.7408" x2="21.942" y2="62.5811" gradientUnits="userSpaceOnUse">
<stop stop-color="#FF928E"/>
<stop offset="1" stop-color="#FE7062"/>
</linearGradient>
<linearGradient id="paint29_linear_63_1374" x1="43.5741" y1="48.2717" x2="52.1511" y2="60.6892" gradientUnits="userSpaceOnUse">
<stop stop-color="#09005D"/>
<stop offset="1" stop-color="#1A0F91"/>
</linearGradient>
<linearGradient id="paint30_linear_63_1374" x1="43.2672" y1="48.4836" x2="51.8442" y2="60.9011" gradientUnits="userSpaceOnUse">
<stop stop-color="#09005D"/>
<stop offset="1" stop-color="#1A0F91"/>
</linearGradient>
<linearGradient id="paint31_linear_63_1374" x1="42.8971" y1="48.739" x2="51.4735" y2="61.1572" gradientUnits="userSpaceOnUse">
<stop stop-color="#09005D"/>
<stop offset="1" stop-color="#1A0F91"/>
</linearGradient>
<linearGradient id="paint32_linear_63_1374" x1="42.2567" y1="49.1815" x2="50.8331" y2="61.5996" gradientUnits="userSpaceOnUse">
<stop stop-color="#09005D"/>
<stop offset="1" stop-color="#1A0F91"/>
</linearGradient>
<linearGradient id="paint33_linear_63_1374" x1="41.8343" y1="49.4734" x2="50.4108" y2="61.8909" gradientUnits="userSpaceOnUse">
<stop stop-color="#09005D"/>
<stop offset="1" stop-color="#1A0F91"/>
</linearGradient>
<linearGradient id="paint34_linear_63_1374" x1="41.5722" y1="49.6546" x2="50.1486" y2="62.0721" gradientUnits="userSpaceOnUse">
<stop stop-color="#09005D"/>
<stop offset="1" stop-color="#1A0F91"/>
</linearGradient>
<linearGradient id="paint35_linear_63_1374" x1="44.0136" y1="47.9682" x2="52.59" y2="60.3856" gradientUnits="userSpaceOnUse">
<stop stop-color="#09005D"/>
<stop offset="1" stop-color="#1A0F91"/>
</linearGradient>
<linearGradient id="paint36_linear_63_1374" x1="20.76" y1="40.803" x2="-0.722191" y2="105.003" gradientUnits="userSpaceOnUse">
<stop stop-color="#FEBBBA"/>
<stop offset="1" stop-color="#FF928E"/>
</linearGradient>
<linearGradient id="paint37_linear_63_1374" x1="64.5404" y1="69.0255" x2="76.9061" y2="69.0255" gradientUnits="userSpaceOnUse">
<stop stop-color="#090056"/>
<stop offset="1" stop-color="#020039"/>
</linearGradient>
<linearGradient id="paint38_linear_63_1374" x1="-323.442" y1="-884.908" x2="-345.728" y2="-941.702" gradientUnits="userSpaceOnUse">
<stop stop-color="#FEBBBA"/>
<stop offset="1" stop-color="#FF928E"/>
</linearGradient>
<linearGradient id="paint39_linear_63_1374" x1="54.0439" y1="81.0502" x2="76.3304" y2="24.2568" gradientUnits="userSpaceOnUse">
<stop stop-color="#FEBBBA"/>
<stop offset="1" stop-color="#FF928E"/>
</linearGradient>
</defs>
</svg>
