<svg width="32" height="32" viewBox="0 0 32 32" fill="none" xmlns="http://www.w3.org/2000/svg">
<g clip-path="url(#clip0_214_620)">
<path d="M18.6667 10.6667V8C18.6667 7.29276 18.3857 6.61448 17.8856 6.11438C17.3855 5.61428 16.7072 5.33333 16 5.33333H6.66667C5.95942 5.33333 5.28115 5.61428 4.78105 6.11438C4.28095 6.61448 4 7.29276 4 8V24C4 24.7072 4.28095 25.3855 4.78105 25.8856C5.28115 26.3857 5.95942 26.6667 6.66667 26.6667H16C16.7072 26.6667 17.3855 26.3857 17.8856 25.8856C18.3857 25.3855 18.6667 24.7072 18.6667 24V21.3333" stroke="#191926" stroke-width="2.6" stroke-linecap="round" stroke-linejoin="round"/>
<path d="M12 16H28L24 12" stroke="#191926" stroke-width="2.6" stroke-linecap="round" stroke-linejoin="round"/>
<path d="M24 20L28 16" stroke="#191926" stroke-width="2.6" stroke-linecap="round" stroke-linejoin="round"/>
</g>
<defs>
<clipPath id="clip0_214_620">
<rect width="32" height="32" fill="white"/>
</clipPath>
</defs>
</svg>
