<svg width="40" class="scan" height="40" viewBox="0 0 32 32" fill="none" xmlns="http://www.w3.org/2000/svg">
<g clip-path="url(#clip0_63_296)">
<path d="M5.33334 9.33333V8C5.33334 7.29276 5.61429 6.61448 6.11439 6.11438C6.61449 5.61428 7.29277 5.33333 8.00001 5.33333H10.6667" stroke="#191926" stroke-width="2.66667" stroke-linecap="round" stroke-linejoin="round"/>
<path d="M5.33334 22.6667V24C5.33334 24.7072 5.61429 25.3855 6.11439 25.8856C6.61449 26.3857 7.29277 26.6667 8.00001 26.6667H10.6667" stroke="#191926" stroke-width="2.66667" stroke-linecap="round" stroke-linejoin="round"/>
<path d="M21.3333 5.33333H24C24.7073 5.33333 25.3855 5.61428 25.8856 6.11438C26.3857 6.61448 26.6667 7.29276 26.6667 8V9.33333" stroke="#191926" stroke-width="2.66667" stroke-linecap="round" stroke-linejoin="round"/>
<path d="M21.3333 26.6667H24C24.7073 26.6667 25.3855 26.3857 25.8856 25.8856C26.3857 25.3855 26.6667 24.7072 26.6667 24V22.6667" stroke="#191926" stroke-width="2.66667" stroke-linecap="round" stroke-linejoin="round"/>
<path d="M6.66666 16H25.3333" stroke="#191926" stroke-width="2.66667" stroke-linecap="round" stroke-linejoin="round"/>
</g>
<defs>
<clipPath id="clip0_63_296">
<rect width="32" height="32" fill="white"/>
</clipPath>
</defs>
</svg>
