<svg width="398" height="392" class="scan-svg" viewBox="0 0 398 392" fill="none" xmlns="http://www.w3.org/2000/svg">
<g clip-path="url(#clip0_69_1227)">
<path d="M199 392C308.905 392 398 347.634 398 292.907C398 238.179 308.905 193.813 199 193.813C89.0953 193.813 0 238.179 0 292.907C0 347.634 89.0953 392 199 392Z" fill="#FAFAFA"/>
<path d="M373.588 241.041C372.786 243.43 372.175 245.878 371.762 248.358C370.969 253.12 371.522 269.706 371.77 274.502C371.77 274.51 371.77 274.518 371.77 274.527L370.952 274.799C370.952 274.799 370.944 274.775 370.936 274.758C370.052 269.896 369.936 252.649 370.903 247.829C371.382 245.431 372.018 243.066 372.836 240.76C373.678 238.354 374.653 235.741 376.198 233.682C376.306 233.533 376.463 233.856 376.421 233.955C375.546 236.344 374.414 238.618 373.596 241.041H373.588Z" fill="#D6EBFF"/>
<path d="M374.405 238.378C376.496 237.055 379.164 234.864 380.23 229.689C381.295 224.513 382.741 220.015 382.295 218.899C381.849 217.782 376.884 222.719 374.422 227.787C371.96 232.855 373.059 235.733 374.397 238.37L374.405 238.378Z" fill="#D6EBFF"/>
<path d="M376.52 242.206C376.083 241.388 377.57 238.916 381.329 236.659C385.088 234.401 390.614 232.988 391.085 233.459C391.556 233.938 387.549 238.8 383.369 240.718C379.189 242.636 376.925 242.959 376.52 242.198V242.206Z" fill="#D6EBFF"/>
<path d="M360.477 225.356C361.055 224.852 366.326 229.821 368.218 234.765C369.853 239.065 370.217 241.603 369.688 242.463C369.721 242.521 369.754 242.57 369.787 242.62C370.2 243.356 370.531 244.116 370.787 244.918C371.274 246.44 371.712 248.284 371.208 249.855C371.175 249.954 371.076 249.838 371.06 249.788C370.704 248.341 370.539 246.853 370.085 245.439C369.796 244.53 369.432 243.653 369.003 242.802C367.821 242.736 365.442 240.801 363.385 236.807C361.088 232.326 359.882 225.869 360.46 225.364L360.477 225.356Z" fill="#D6EBFF"/>
<path d="M372.646 254.146C372.133 253.377 373.373 250.772 376.884 248.151C380.403 245.538 385.765 243.587 386.277 244.009C386.789 244.439 383.286 249.673 379.313 251.996C375.339 254.319 373.125 254.857 372.646 254.137V254.146Z" fill="#D6EBFF"/>
<path d="M371.299 246.324C371.349 245.72 371.844 245.15 372.249 244.736C372.77 244.207 373.348 243.736 373.959 243.314C375.256 242.413 376.694 241.727 378.156 241.14C378.305 241.074 378.47 241.413 378.346 241.504C377.115 242.397 375.81 243.149 374.546 243.992C373.959 244.381 373.398 244.811 372.894 245.299C372.654 245.53 372.423 245.77 372.2 246.018C372.018 246.225 371.795 246.589 371.497 246.63C371.365 246.646 371.283 246.415 371.291 246.324H371.299Z" fill="#D6EBFF"/>
<path d="M371.952 254.046C372.39 253.633 372.861 253.269 373.356 252.939C373.86 252.608 374.397 252.393 374.967 252.211C375.108 252.17 375.232 252.418 375.116 252.5C374.215 253.162 373.323 253.865 372.497 254.617C372.101 254.972 371.729 255.353 371.39 255.766C371.093 256.13 370.919 256.461 370.828 256.915C370.762 257.263 370.399 257.329 370.3 256.949C370.01 255.824 371.233 254.724 371.952 254.038V254.046Z" fill="#D6EBFF"/>
<path d="M370.696 260.644L370.176 261.298C368.804 261.339 364.971 259.065 362.509 255.659C359.634 251.673 358.8 247.523 359.039 246.928C359.287 246.332 364.665 248.995 367.821 253.674C369.68 256.436 370.671 259.462 370.688 260.644H370.696Z" fill="#D6EBFF"/>
<g opacity="0.65">
<path d="M373.588 241.041C372.786 243.43 372.175 245.878 371.762 248.358C370.969 253.12 371.522 269.706 371.77 274.502C371.77 274.51 371.77 274.518 371.77 274.527L370.952 274.799C370.952 274.799 370.944 274.775 370.936 274.758C370.052 269.896 369.936 252.649 370.903 247.829C371.382 245.431 372.018 243.066 372.836 240.76C373.678 238.354 374.653 235.741 376.198 233.682C376.306 233.533 376.463 233.856 376.421 233.955C375.546 236.344 374.414 238.618 373.596 241.041H373.588Z" fill="white"/>
<path d="M374.405 238.378C376.496 237.055 379.164 234.864 380.23 229.689C381.295 224.513 382.741 220.015 382.295 218.899C381.849 217.782 376.884 222.719 374.422 227.787C371.96 232.855 373.059 235.733 374.397 238.37L374.405 238.378Z" fill="white"/>
<path d="M376.52 242.206C376.083 241.388 377.57 238.916 381.329 236.659C385.088 234.401 390.614 232.988 391.085 233.459C391.556 233.938 387.549 238.8 383.369 240.718C379.189 242.636 376.925 242.959 376.52 242.198V242.206Z" fill="white"/>
<path d="M360.477 225.356C361.055 224.852 366.326 229.821 368.218 234.765C369.853 239.065 370.217 241.603 369.688 242.463C369.721 242.521 369.754 242.57 369.787 242.62C370.2 243.356 370.531 244.116 370.787 244.918C371.274 246.44 371.712 248.284 371.208 249.855C371.175 249.954 371.076 249.838 371.06 249.788C370.704 248.341 370.539 246.853 370.085 245.439C369.796 244.53 369.432 243.653 369.003 242.802C367.821 242.736 365.442 240.801 363.385 236.807C361.088 232.326 359.882 225.869 360.46 225.364L360.477 225.356Z" fill="white"/>
<path d="M372.646 254.146C372.133 253.377 373.373 250.772 376.884 248.151C380.403 245.538 385.765 243.587 386.277 244.009C386.789 244.439 383.286 249.673 379.313 251.996C375.339 254.319 373.125 254.857 372.646 254.137V254.146Z" fill="white"/>
<path d="M371.299 246.324C371.349 245.72 371.844 245.15 372.249 244.736C372.77 244.207 373.348 243.736 373.959 243.314C375.256 242.413 376.694 241.727 378.156 241.14C378.305 241.074 378.47 241.413 378.346 241.504C377.115 242.397 375.81 243.149 374.546 243.992C373.959 244.381 373.398 244.811 372.894 245.299C372.654 245.53 372.423 245.77 372.2 246.018C372.018 246.225 371.795 246.589 371.497 246.63C371.365 246.646 371.283 246.415 371.291 246.324H371.299Z" fill="white"/>
<path d="M371.952 254.046C372.39 253.633 372.861 253.269 373.356 252.939C373.86 252.608 374.397 252.393 374.967 252.211C375.108 252.17 375.232 252.418 375.116 252.5C374.215 253.162 373.323 253.865 372.497 254.617C372.101 254.972 371.729 255.353 371.39 255.766C371.093 256.13 370.919 256.461 370.828 256.915C370.762 257.263 370.399 257.329 370.3 256.949C370.01 255.824 371.233 254.724 371.952 254.038V254.046Z" fill="white"/>
<path d="M370.696 260.644L370.176 261.298C368.804 261.339 364.971 259.065 362.509 255.659C359.634 251.673 358.8 247.523 359.039 246.928C359.287 246.332 364.665 248.995 367.821 253.674C369.68 256.436 370.671 259.462 370.688 260.644H370.696Z" fill="white"/>
</g>
<path d="M385.137 257.544C387.021 257.172 389.573 256.337 391.796 252.881C394.018 249.433 396.323 246.58 396.315 245.646C396.306 244.712 391.325 246.903 388.119 249.879C384.914 252.864 384.906 255.262 385.137 257.544Z" fill="#D6EBFF"/>
<path d="M381.048 259.76C380.296 259.975 379.371 256.386 380.098 253.096C380.825 249.797 382.576 247.49 382.989 247.349C383.402 247.209 384.253 252.426 383.543 254.956C382.84 257.486 381.519 259.636 381.039 259.768L381.048 259.76Z" fill="#D6EBFF"/>
<path d="M376.71 266.358C375.934 266.771 374.1 263.017 374.166 259.197C374.232 255.378 375.645 252.409 376.074 252.153C376.504 251.897 378.61 257.478 378.396 260.438C378.181 263.406 377.214 266.093 376.71 266.358Z" fill="#D6EBFF"/>
<path d="M380.759 265.39C380.205 264.704 383.518 262.174 387.268 261.479C391.027 260.793 394.208 261.587 394.547 261.959C394.877 262.331 391.217 265.217 386.888 265.87C383.947 266.316 381.122 265.829 380.759 265.382V265.39Z" fill="#D6EBFF"/>
<path d="M387.318 255.278C384.716 257.478 382.452 260.107 380.321 262.778C380.378 262.62 380.444 262.472 380.502 262.315C380.8 261.529 381.014 260.719 381.188 259.892C381.345 259.156 381.593 258.189 381.378 257.445C381.337 257.312 381.188 257.428 381.155 257.503C380.775 258.288 380.643 259.214 380.411 260.057C380.205 260.801 379.957 261.529 379.693 262.257C379.337 263.265 378.875 264.225 378.437 265.2C377.859 265.969 377.297 266.755 376.752 267.548C376.867 266.953 376.95 266.341 376.933 265.729C376.933 265.39 376.909 265.06 376.884 264.729C376.859 264.448 376.859 264.167 376.71 263.919C376.636 263.795 376.479 263.96 376.454 264.043C376.272 264.597 376.339 265.25 376.272 265.829C376.206 266.416 376.14 267.011 376.016 267.598C375.892 268.21 375.694 268.797 375.479 269.384C375.405 269.533 375.298 269.772 375.223 269.913C374.777 270.674 373.811 272.418 373.15 273.634L373.744 274.444C374.356 273.179 375.017 271.939 375.744 270.74C376.529 269.442 377.289 268.21 377.817 267.449C378.255 267.069 378.726 266.73 379.197 266.399C379.717 266.035 380.271 265.704 380.841 265.432C381.485 265.126 382.171 264.927 382.824 264.63C382.923 264.588 383.088 264.299 382.873 264.299C382.171 264.282 381.452 264.53 380.808 264.787C380.188 265.035 379.602 265.341 379.048 265.696C379.461 265.126 379.883 264.555 380.312 263.993C382.601 261.058 385.236 258.404 387.45 255.411C387.541 255.287 387.45 255.163 387.318 255.27V255.278Z" fill="#D6EBFF"/>
<path d="M322.516 333.073C358.091 333.073 386.93 316.411 386.93 295.858C386.93 275.305 358.091 258.643 322.516 258.643C286.941 258.643 258.102 275.305 258.102 295.858C258.102 316.411 286.941 333.073 322.516 333.073Z" fill="#E0E0E0"/>
<path d="M108.348 297.545L191.003 249.929C192.399 249.119 194.663 249.119 196.059 249.929L318.426 320.638C319.823 321.448 319.823 322.754 318.426 323.557L235.771 371.173C234.375 371.983 232.112 371.983 230.715 371.173L108.348 300.464C106.952 299.653 106.952 298.347 108.348 297.545Z" fill="#E0E0E0"/>
<path d="M76.302 280.554L10.1697 318.761L92.9817 366.724L159.114 328.402L76.302 280.554Z" fill="#E0E0E0"/>
<path d="M358.312 275.114C357.627 265.134 357.197 261.215 356.247 243.381C356.164 238.808 355.999 233.914 355.694 229.565C354.661 214.93 352.786 211.449 351.522 206.43C350.266 201.412 349.25 192.027 347.333 160.559C346.267 143.105 343.748 133.439 341.534 125.006H296.501C291.874 144.734 290.553 187.447 290.693 207.786C290.767 218.155 290.875 271.707 290.619 275.99C290.346 280.513 288.058 283.374 286.29 285.275C282.58 289.26 279.92 290.873 275.269 294.345C275.946 296.123 285.687 296.057 288.454 294.709C292.874 292.543 298.583 288.988 300.086 287.871C303.911 285.044 305.597 280.976 305.654 276.668C305.654 276.668 305.82 275.635 305.787 275.552C305.861 273.038 312.14 237.568 313.717 229.093C314.948 222.512 313.602 209.762 313.602 209.762L318.377 178.41C318.377 178.41 323.763 199.221 326.638 211.896C328.753 221.214 333.983 235.923 337.403 250.822C341.401 265.961 341.724 267.3 344.078 278.14C345.268 283.605 346.342 305.292 347.672 309.071C351.943 321.275 362.071 313.056 362.617 306.301C362.98 301.811 358.461 277.255 358.312 275.105V275.114Z" fill="#FFA8A7"/>
<path d="M265.884 300.207C265.628 300.207 265.314 303.068 266.743 304.234C268.396 305.59 273.195 307.756 279.433 306.781C285.678 305.813 289.016 303.779 291.47 301.621C293.923 299.455 297.36 296.404 300.177 295.709C302.796 295.065 307.042 293.469 307.86 292.634C308.678 291.799 308.472 288.177 308.472 288.177L265.884 300.207Z" fill="#263238"/>
<path d="M305.795 275.552C305.795 275.552 306.646 275.924 306.836 276.759C307.051 277.751 307.092 279.033 307.554 280.653C308.191 282.911 308.695 287.565 308.397 289.434C308.1 291.294 302.424 293.022 299.706 294.139C296.93 295.28 293.75 297.562 290.966 299.984C288.082 302.489 281.952 305.086 277.871 305.251C271.642 305.499 267.561 303.912 266.256 301.704C264.645 298.967 265.835 295.999 272.906 292.493C274.245 291.832 278.937 288.888 280.532 287.822C282.217 286.697 283.828 285.457 285.315 284.068C286.067 283.365 286.777 282.629 287.446 281.844C288.033 281.158 288.867 280.323 289.198 279.479C289.272 279.289 289.322 279.066 289.388 278.867C289.586 278.297 289.71 277.768 289.809 277.172C289.908 276.577 289.958 275.701 290.52 275.329C291.156 274.899 292.337 274.924 293.072 274.957C293.998 275.006 296.055 275.535 296.939 275.8C298.417 276.246 299.524 276.552 300.169 277.528C300.665 278.272 300.764 279.231 300.821 280.108C300.846 280.529 300.855 280.951 300.863 281.364C300.863 281.546 300.805 281.869 301.053 281.786C301.292 281.712 301.54 281.075 301.623 280.86C301.813 280.389 301.92 279.884 302.127 279.413C302.358 278.876 302.548 278.256 302.978 277.875C304.143 276.842 305.299 277.007 305.638 276.66C305.638 276.66 305.745 275.899 305.77 275.544L305.795 275.552Z" fill="#37474F"/>
<path d="M271.766 293.064C280.804 293.452 283.77 300.29 284.241 303.73C282.027 304.581 279.73 305.168 277.871 305.243C271.642 305.491 267.305 303.911 266 301.704C264.48 299.124 265.438 295.66 271.766 293.064Z" fill="#FAFAFA"/>
<path d="M285.273 294.139C285.373 294.139 285.472 294.097 285.546 294.031C285.728 293.874 285.753 293.593 285.596 293.411C284.299 291.906 280.647 288.632 277.376 289.07C277.136 289.103 276.962 289.327 276.995 289.566C277.029 289.806 277.243 289.98 277.491 289.947C280.548 289.542 283.894 292.791 284.926 293.99C285.017 294.097 285.141 294.147 285.273 294.147V294.139Z" fill="#F0F0F0"/>
<path d="M289.099 291.774C289.198 291.774 289.297 291.741 289.371 291.666C289.553 291.509 289.578 291.228 289.421 291.046C288.124 289.542 284.472 286.259 281.201 286.706C280.961 286.739 280.788 286.962 280.821 287.202C280.854 287.441 281.069 287.615 281.316 287.582C284.365 287.177 287.727 290.426 288.752 291.625C288.842 291.733 288.966 291.782 289.099 291.774Z" fill="#F0F0F0"/>
<path d="M292.634 289.095C292.734 289.095 292.833 289.054 292.907 288.988C293.089 288.83 293.114 288.549 292.957 288.367C291.66 286.863 287.992 283.58 284.737 284.027C284.497 284.06 284.324 284.283 284.357 284.523C284.39 284.763 284.604 284.936 284.852 284.903C287.901 284.498 291.255 287.747 292.287 288.946C292.378 289.054 292.502 289.103 292.634 289.103V289.095Z" fill="#F0F0F0"/>
<path d="M296.096 286.416C296.195 286.416 296.286 286.383 296.369 286.317C296.559 286.16 296.583 285.879 296.426 285.697C294.642 283.555 290.726 280.885 287.455 281.331C287.215 281.364 287.042 281.588 287.075 281.827C287.108 282.067 287.322 282.232 287.57 282.208C290.511 281.811 294.163 284.366 295.749 286.267C295.84 286.375 295.972 286.433 296.096 286.424V286.416Z" fill="#F0F0F0"/>
<path d="M346.193 305.689C346.614 309.84 347.383 312.576 348.969 314.958C350.555 317.339 353.372 317.984 356.164 317.14C358.957 316.297 362.484 314.23 363.137 310.6C363.79 306.971 364.153 304.49 363.343 300.654L346.201 305.689H346.193Z" fill="#263238"/>
<path d="M358.312 275.114C359.477 275.155 359.411 280.686 360.328 286.259C361.311 292.229 362.278 294.569 363.137 299.463C364.12 305.053 363.294 307.607 361.476 311.097C359.659 314.586 352.835 318.224 349.184 313.503C346.209 309.658 345.904 305.259 345.912 299.637C345.92 293.824 345.185 289.947 344.524 285.581C343.838 281.067 342.74 277.032 343.723 276.519C343.83 277.131 344.615 280.256 344.921 280.959C345.053 281.265 345.54 282.026 345.664 280.843C345.706 280.496 345.557 279.694 345.573 279.347C345.615 278.371 346.193 278.181 346.573 277.958C347.383 277.462 349.208 276.767 351.48 276.652C353.752 276.536 355.71 276.379 357.007 276.974C357.784 277.33 357.8 278.057 357.916 278.76C358.048 279.603 358.089 280.124 358.288 279.942C358.692 279.587 358.222 275.717 358.321 275.114H358.312Z" fill="#37474F"/>
<path d="M363.6 302.704C363.955 306.185 363.228 308.616 361.799 311.345C359.981 314.834 352.595 318.505 348.952 313.792C347.135 311.444 346.556 308.6 346.193 305.689C348.085 301.844 360.221 299.653 363.608 302.704H363.6Z" fill="#FAFAFA"/>
<path d="M348.456 299.463C348.506 299.463 348.556 299.439 348.597 299.414C348.646 299.389 353.925 296.925 359.213 297.909C359.444 297.95 359.675 297.793 359.717 297.562C359.758 297.33 359.601 297.099 359.37 297.057C353.777 296.024 348.39 298.546 348.192 298.645C347.985 298.761 347.903 299.017 348.01 299.232C348.101 299.397 348.275 299.48 348.456 299.455V299.463Z" fill="#F0F0F0"/>
<path d="M358.775 293.734C358.94 293.709 359.08 293.593 359.13 293.428C359.196 293.196 359.064 292.956 358.833 292.89C353.545 291.352 347.878 294.263 347.663 294.387C347.457 294.502 347.391 294.767 347.506 294.974C347.63 295.18 347.895 295.247 348.093 295.131C348.142 295.106 353.661 292.287 358.585 293.725C358.643 293.742 358.709 293.75 358.767 293.742L358.775 293.734Z" fill="#F0F0F0"/>
<path d="M358.42 289.79C358.577 289.765 358.717 289.657 358.767 289.492C358.841 289.26 358.709 289.021 358.486 288.954C352.661 287.152 347.3 290.294 347.102 290.426C346.903 290.559 346.854 290.823 346.986 291.022C347.118 291.22 347.391 291.27 347.581 291.137C347.622 291.104 352.81 288.103 358.23 289.773C358.296 289.79 358.362 289.798 358.42 289.79Z" fill="#F0F0F0"/>
<path d="M357.957 285.912C358.114 285.887 358.255 285.78 358.304 285.622C358.379 285.399 358.255 285.151 358.032 285.077C352.571 283.299 346.796 286.532 346.573 286.672C346.375 286.796 346.317 287.069 346.441 287.268C346.565 287.466 346.837 287.532 347.036 287.4C347.085 287.367 352.695 284.25 357.759 285.904C357.825 285.928 357.891 285.928 357.957 285.92V285.912Z" fill="#EBEBEB"/>
<path d="M345.119 125.006C346.804 137.309 347.333 140.335 349.175 167.736C350.96 194.309 351.1 198.204 351.364 201.412C351.968 208.754 355.214 211.292 356.164 228.614C357.032 244.489 357.552 264.076 357.552 264.076C357.552 264.076 355.421 267.011 349.373 267.557C343.797 268.053 341.013 265.961 341.013 265.961C341.013 265.961 330.678 228.953 327.795 219.635C323.879 206.984 318.385 184.784 318.385 184.784L314.742 210.192C314.742 210.192 315.915 222.363 313.56 233.856C310.636 248.102 307.654 263.588 307.654 263.588C307.654 263.588 304.002 265.117 299.252 264.638C292.725 263.976 290.544 262.463 290.544 262.463C290.544 262.463 288.71 219.42 288.71 203.694C288.71 187.968 288.908 149.488 289.825 125.014H345.127L345.119 125.006Z" fill="#37474F"/>
<path d="M318.377 184.784L313.85 157.276C313.85 157.276 304.754 154.87 298.913 148.76C299.343 153.316 307.439 159.161 311.223 160.071L316.278 184.445L314.734 210.192L318.377 184.784Z" fill="#263238"/>
<path d="M328.935 129.264C330.364 131.521 331.43 133.985 332.347 136.482C333.264 138.987 333.991 141.55 334.619 144.13C335.222 146.718 335.717 149.331 336.056 151.968C336.403 154.597 336.643 157.26 336.585 159.922C335.949 157.334 335.362 154.771 334.776 152.2C334.173 149.637 333.611 147.065 332.991 144.519C332.405 141.964 331.76 139.417 331.108 136.871C330.438 134.332 329.736 131.802 328.943 129.264H328.935Z" fill="#263238"/>
<path d="M332.413 130.231C333.751 131.455 334.933 132.828 336.007 134.266C337.097 135.705 338.047 137.234 338.931 138.805C339.782 140.393 340.55 142.03 341.145 143.741C341.748 145.445 342.211 147.214 342.36 149.025L339.939 144.262C339.121 142.7 338.311 141.145 337.452 139.607C336.626 138.053 335.75 136.523 334.908 134.969C334.057 133.415 333.189 131.86 332.405 130.231H332.413Z" fill="#263238"/>
<path d="M328.778 161.683C329.926 169.927 330.951 178.178 331.991 186.421C333.057 194.665 335.04 203.76 336.552 211.904C338.105 220.04 346.234 254.468 347.49 262.695C345.59 254.592 336.502 220.403 334.908 212.21C333.412 203.991 331.504 194.847 330.703 186.57C329.885 178.286 329.282 169.993 328.786 161.683H328.778Z" fill="#263238"/>
<path d="M297.955 162.039L296.6 183.726C296.402 187.339 296.17 190.952 296.005 194.566C295.84 198.171 295.625 201.8 295.683 205.364C295.757 208.944 295.98 243.579 295.493 250.822C294.642 242.752 294.254 212.681 294.006 205.389C294.031 198.055 294.65 190.861 295.295 183.627C295.964 176.409 296.831 169.207 297.947 162.039H297.955Z" fill="#263238"/>
<path d="M308.314 260.099L307.083 267.639C307.083 267.639 304.068 269.566 297.732 268.913C291.395 268.259 290.486 266.209 290.486 266.209V259.115C290.486 259.115 292.006 260.587 297.781 261.24C303.564 261.893 308.298 260.099 308.298 260.099H308.314Z" fill="#37474F"/>
<path d="M357.42 258.825L357.982 266.44C357.982 266.44 355.495 269.02 349.192 269.863C342.88 270.707 341.517 268.921 341.517 268.921L339.865 262.025C339.865 262.025 341.682 263.108 347.457 262.389C353.232 261.678 357.42 258.825 357.42 258.825Z" fill="#37474F"/>
<path opacity="0.1" d="M212.714 40.9686L155.355 0.876465L28.5017 74.1734V190.688L155.355 117.391L228.865 63.2677L212.714 40.9686Z" fill="#D6EBFF"/>
<path d="M300.194 59.6132C293.485 60.8534 289.52 62.3664 284.208 70.2708C279.738 76.9183 270.61 88.8658 270.61 88.8658C270.61 88.8658 258.391 78.1999 256.557 75.0663C253.831 70.4031 233.59 71.5027 238.25 78.1999C239.555 80.0768 243.289 81.3831 245.239 83.8966C249.931 89.9158 254.921 99.2588 259.44 104.774C264.281 110.677 268.652 113.968 271.188 113.968C274.36 113.968 279.094 108.817 280.432 107.279C285.753 101.152 296.773 88.1547 296.773 88.1547L300.185 59.6132H300.194Z" fill="#FFA8A7"/>
<path d="M249.857 78.266C249.411 78.109 248.989 77.4971 248.783 77.0837C248.535 76.5959 248.436 76.0419 248.353 75.5045C248.155 74.2973 247.998 73.0902 247.816 71.8831C247.651 70.7503 247.511 69.6011 247.312 68.4766C247.147 67.5506 246.841 66.6576 246.148 65.9879C245.734 65.5993 244.917 66.1202 245.387 66.5667C246.164 67.3025 246.288 68.4352 246.437 69.444C246.635 70.7586 246.825 72.0815 247.023 73.3961C247.197 74.5785 247.263 75.8435 247.692 76.9679C248.089 78.0015 248.775 78.5554 249.849 78.7621C250.179 78.8283 250.088 78.3487 249.849 78.266H249.857Z" fill="#F28F8F"/>
<path d="M300.194 59.0179C293.411 60.283 290.652 61.2421 286.546 66.2691C282.44 71.2961 273.584 84.6078 273.584 84.6078C273.584 84.6078 275.063 89.8167 279.193 93.8516C283.324 97.8947 287.24 99.4821 287.24 99.4821L297.839 88.1548L300.194 59.0179Z" fill="#455A64"/>
<path d="M246.065 51.7997C244.941 52.4777 245.272 54.5861 246.164 59.6379C247.056 64.6897 248.7 75.6285 248.7 75.6285C248.7 75.6285 246.139 76.7281 244.107 77.6707C242.075 78.6215 238.605 79.4566 236.911 77.8526C235.226 76.2486 237.011 74.3056 239.786 72.9827L235.953 59.4064C235.953 59.4064 235.862 56.9673 240.059 54.6026C244.247 52.2462 246.065 51.7832 246.065 51.7832V51.7997Z" fill="#37474F"/>
<path d="M237.639 56.3721C235.912 58.0505 235.953 59.4147 235.953 59.4147L239.787 72.991C240.1 74.0989 241.067 76.2569 242.769 75.3061C244.471 74.3552 246.28 70.0641 244.545 64.8056C242.926 59.886 239.489 57.2568 237.639 56.3721Z" fill="#455A64"/>
<path opacity="0.4" d="M246.065 51.7998C246.065 51.7998 244.247 52.2545 240.059 54.6192C235.87 56.9839 235.953 59.423 235.953 59.423L236.292 60.6219C237.828 59.5801 240.059 58.0009 241.827 56.5126C243.942 54.735 244.619 53.9578 245.354 53.4286C245.396 52.5853 245.602 52.0727 246.065 51.7998Z" fill="black"/>
<path d="M239.274 40.0177C239.39 39.5464 238.787 39.3149 236.523 38.9346C231.087 38.0086 224.709 37.6199 218.125 39.6208L216.431 40.1004L230.633 53.8751L229.947 56.6201C229.947 56.6201 240.117 53.7263 243.537 52.7506C246.957 51.775 248.238 50.5678 248.7 48.7323L248.94 47.7649L243.57 42.556L239.282 40.0177H239.274Z" fill="#455A64"/>
<path d="M247.337 42.8041C246.28 41.8119 243.835 41.1587 241.91 40.6791C240.456 40.3236 239.283 40.0177 239.283 40.0177C239.283 40.0177 233.747 41.0843 237.052 44.4081C240.365 47.7319 249.51 45.4168 248.692 48.7323C249.576 45.2183 249.188 44.5321 247.337 42.8041Z" fill="#37474F"/>
<path d="M236.92 40.9686C235.953 41.6548 235.4 42.7462 237.052 44.4081C238.225 45.5905 240.142 46.0618 242.083 46.3181C239.844 45.7558 237.961 44.1684 237.432 43.3664C236.895 42.5643 236.465 41.5143 236.92 40.9603V40.9686Z" fill="#D6EBFF"/>
<path d="M244.793 52.3454C244.462 53.6766 236.308 59.4643 231.715 61.9861C230.178 62.8294 228.857 63.4495 227.783 63.8877C225.899 64.6649 223.743 64.2598 222.289 62.846L213.507 54.3298C212.202 53.0648 211.673 51.1962 212.111 49.4351L212.97 46.0038C213.234 44.9372 212.796 43.8954 212.235 43.0686C211.632 42.1839 212.036 40.9768 213.061 40.6791C214.027 40.398 215.143 40.0838 216.118 39.811C218.133 39.2487 220.504 41.1008 225.767 46.2436C231.029 51.3863 231.988 53.9329 231.418 56.1984L244.785 52.3454H244.793Z" fill="#37474F"/>
<path d="M231.426 56.1984C230.79 58.7367 230.245 62.0026 229.22 63.2677C230.088 62.5401 230.443 62.4243 232.054 56.0248L231.426 56.1984Z" fill="#263238"/>
<path d="M212.243 43.0604C212.805 43.8872 213.243 44.929 212.978 45.9956L212.119 49.4268C211.673 51.188 212.21 53.0565 213.515 54.3216L222.297 62.8377C223.759 64.2516 225.916 64.6567 227.791 63.8795C228.865 63.433 230.187 62.8212 231.723 61.9779C232.062 61.7877 232.426 61.581 232.797 61.366C232.715 61.4074 227.609 63.772 226.106 63.6894C224.073 63.5819 223.074 62.846 221.066 60.8369C218.893 58.6623 214.73 54.5365 213.771 53.4286C213.416 53.0235 213.028 51.899 213.647 51.5269C215.11 50.634 216.803 50.6836 217.183 51.0557C218.307 52.1471 226.535 60.1341 226.535 60.1341C227.113 57.819 226.428 55.5287 223.652 52.3455C220.876 49.1623 216.415 45.1936 214.358 43.4903C212.309 41.7871 212.293 41.1339 213.069 40.6709C212.045 40.9686 211.64 42.1757 212.243 43.0604Z" fill="#263238"/>
<path d="M226.535 60.134C226.535 60.134 227.221 58.0174 225.395 55.2559C223.297 52.0892 218.687 47.9055 216.993 46.2601L216.06 49.9725L226.535 60.134Z" fill="#D6EBFF"/>
<path d="M228.163 44.7718L229.245 45.8219C229.98 46.533 231.327 46.905 232.252 46.6404C233.177 46.3759 233.326 45.5821 232.591 44.8711L231.508 43.821C230.773 43.11 229.427 42.7379 228.501 43.0025C227.576 43.267 227.427 44.0608 228.163 44.7718Z" fill="#263238"/>
<path d="M245.611 56.3473L246.214 60.1589L250.931 60.6798C248.948 58.8443 245.611 56.3473 245.611 56.3473Z" fill="#F28F8F"/>
<path d="M246.974 72.867C247.139 72.1973 246.338 70.7256 245.627 70.552C247.379 70.1634 247.593 69.32 247.461 68.4601C247.329 67.6002 245.949 66.6659 245.949 66.6659C245.949 66.6659 246.8 66.4262 247.04 65.7399C247.279 65.0454 246.561 63.8134 245.33 63.2016C244.107 62.5815 241.868 62.9866 240.579 62.8709C239.299 62.7551 236.226 60.4152 236.226 60.4152L235.945 59.4148L232.12 61.7629C232.12 61.7629 232.748 62.4244 232.533 63.3008C232.31 64.1772 231.641 65.3761 232.145 66.2277C232.649 67.0711 232.715 67.253 232.508 68.0963C232.045 69.0968 232.161 69.907 232.508 70.5437C232.508 70.5437 232.896 71.3953 232.475 72.0898C232.054 72.7844 232.533 73.7931 233.053 74.1817C233.574 74.5703 236.358 76.5215 237.87 77.0342C239.382 77.5468 239.58 77.2905 241.174 76.935C242.769 76.5794 244.289 76.166 244.305 75.579C244.322 74.9919 243.686 74.5124 242.934 74.2643C243.33 74.1651 243.727 74.0659 244.115 73.975C245.842 73.5781 246.809 73.545 246.974 72.8753V72.867Z" fill="#F28F8F"/>
<path d="M256.557 75.0663C253.599 70.4114 254.285 63.6729 253.021 62.135C251.749 60.5971 245.9 58.3399 244.768 58.3234C242.975 58.2903 240.34 61.4157 238.663 63.3835C237.498 64.7477 239.035 65.5497 240.365 65.5663C242.67 65.5911 244.471 63.863 244.471 63.863L246.941 64.9875C246.941 64.9875 248.791 77.2326 248.857 76.9515C248.923 76.6703 256.54 75.0663 256.54 75.0663H256.557Z" fill="#FFA8A7"/>
<path d="M270.61 88.8576C273.105 91.214 276.285 94.5956 276.863 97.8946C278.094 93.4794 273.881 89.1883 272.022 87.0055L270.61 88.8658V88.8576Z" fill="#F28F8F"/>
<path d="M329.48 56.7277C332.95 57.447 337.345 58.3399 341.773 59.5636C346.226 60.7956 346.845 61.0519 348.283 61.5562C348.283 61.5562 350.637 71.6847 349.258 95.9516C349.051 99.5483 346.449 109.189 346.011 116.647C345.416 126.709 345.755 131.207 346.631 139.897C346.631 139.897 337.783 148.421 313.263 146.569C294.014 145.114 289.016 136.713 289.016 136.713C289.016 136.713 289.231 105.915 289.735 91.7101C290.396 73.0489 296.038 62.2838 300.194 59.0179L312.825 56.9096L329.472 56.7277H329.48Z" fill="#455A64"/>
<path d="M334.495 16.8505C334.495 16.8505 337.461 17.0738 339.41 20.8192C340.385 22.7044 341.087 26.1356 338.411 35.9416C336.684 42.2585 334.619 45.0117 333.694 46.7646C332.768 48.5257 330.876 49.0135 330.876 49.0135L331.075 41.473L331.356 36.2145C331.356 36.2145 327.126 32.3698 326.754 28.5913C326.283 23.7296 328.183 20.9763 328.183 20.9763L334.495 16.834V16.8505Z" fill="#37474F"/>
<path d="M335.519 17.1068C334.784 12.8653 329.414 7.80518 319.046 7.25121C310.553 6.79646 305.828 9.87221 302.631 14.676C299.293 19.6947 301.623 26.0529 301.623 26.0529L328.307 24.3084L335.519 17.1068Z" fill="#37474F"/>
<path d="M337.965 43.6889C334.057 45.5906 332.281 42.4983 332.281 42.4983L331.694 58.0506C324.201 68.0881 304.192 64.4584 312.396 56.9427L312.412 53.3957C312.412 53.3957 311.099 53.3957 309.033 53.0649C305.58 52.5192 303.159 50.229 302.127 46.4835C300.607 40.9439 301.078 28.9303 301.986 22.3819C302.242 20.5299 303.531 18.3636 305.2 17.5368C309.347 15.4863 313.189 18.4463 318.963 20.6952C321.359 21.6295 327.159 22.0429 328.695 21.3236C326.68 23.5477 326.696 30.5922 329.67 33.4447C330.191 34.4369 330.736 35.0156 331.157 35.3877C332.421 36.4874 333.454 33.6514 334.52 32.5352C335.594 31.4355 339.576 30.4351 341.294 34.0979C343.029 37.8185 341.583 41.936 337.965 43.6972V43.6889Z" fill="#FFA8A7"/>
<path d="M312.396 56.9426C312.396 56.9426 301.499 62.1846 298.269 74.5951C295.03 87.0055 294.179 122.815 294.064 134.589C293.956 146.362 294.064 150.744 294.064 150.744C294.064 150.744 294.064 149.777 287.339 147.065C287.339 133.257 288.363 87.0055 290.321 77.7121C293.543 62.3748 300.202 59.0179 300.202 59.0179L312.404 56.9426H312.396Z" fill="#D6EBFF"/>
<path d="M287.81 119.714C287.768 121.31 287.727 122.889 287.686 124.435C289.801 125.733 292.122 126.676 294.171 127.313C294.204 125.857 294.237 124.287 294.287 122.641C292.18 121.864 289.825 120.847 287.81 119.714Z" fill="#FAFAFA"/>
<path d="M287.529 131.629C287.496 133.109 287.471 134.531 287.455 135.895C289.57 137.21 291.891 138.069 294.031 138.623C294.031 137.391 294.047 136.044 294.064 134.589C294.064 134.555 294.064 134.522 294.064 134.489C292.007 133.894 289.743 132.985 287.529 131.629Z" fill="#FAFAFA"/>
<path d="M331.752 56.397L331.686 58.0506C331.686 58.0506 328.951 65.9301 327.06 76.1909C326.027 81.7967 325.647 88.3285 325.192 94.1658C324.102 108.304 323.904 142.121 323.871 153.771C332.008 155.358 343.359 153.754 348.456 149.967C347.49 134.423 346.54 126.378 347.391 114.662C348.291 102.335 353.388 79.3906 348.605 61.1015C344.284 59.9027 337.353 57.8191 331.744 56.397H331.752Z" fill="#D6EBFF"/>
<path d="M347.465 134.795C343.169 138.284 333.363 141.087 323.953 140.798C323.937 142.336 323.928 143.799 323.92 145.188C323.92 145.188 339.402 145.833 347.746 139.095C347.647 137.598 347.556 136.168 347.465 134.787V134.795Z" fill="#FAFAFA"/>
<path d="M324.102 127.8C324.077 129.28 324.061 130.752 324.044 132.199C335.379 132.745 343.335 129.743 347.143 127.858C347.093 126.246 347.069 124.65 347.077 123.03C342.029 125.717 333.867 128.553 324.11 127.8H324.102Z" fill="#FAFAFA"/>
<path d="M312.412 53.3956C316.948 53.3708 320.971 52.8086 323.648 51.6759C326.324 50.5431 328.695 46.9217 329.472 43.3251C329.472 46.2189 328.208 51.3452 324.143 53.4783C320.087 55.6115 315.362 55.719 312.396 55.7851V53.3874L312.412 53.3956Z" fill="#F28F8F"/>
<path d="M318.716 26.8466L322.483 28.6077C322.945 27.5246 322.483 26.2596 321.442 25.7718C320.401 25.284 319.178 25.7718 318.716 26.8466Z" fill="#37474F"/>
<path d="M303.754 27.4668L307.703 26.0695C307.356 24.9533 306.191 24.3662 305.101 24.7466C304.01 25.1352 303.407 26.3506 303.754 27.4668Z" fill="#37474F"/>
<path d="M320.773 31.3279C320.706 32.2622 319.889 32.965 318.955 32.8989C318.022 32.8327 317.319 32.0142 317.385 31.0799C317.452 30.1456 318.269 29.4428 319.203 29.5089C320.136 29.5751 320.839 30.3936 320.773 31.3279Z" fill="#263238"/>
<path d="M307.951 30.7492C307.885 31.6835 307.067 32.3863 306.134 32.3201C305.2 32.254 304.498 31.4355 304.564 30.5012C304.63 29.5669 305.448 28.8641 306.381 28.9302C307.315 28.9964 308.017 29.8149 307.951 30.7492Z" fill="#263238"/>
<path d="M313.94 28.2936L312.619 39.0339L306.522 36.7105C308.694 32.9816 311.165 30.1787 313.94 28.2936Z" fill="#F28F8F"/>
<path d="M317.08 41.9525L312.619 43.2423C312.949 44.5156 314.221 45.268 315.452 44.9125C316.683 44.557 317.41 43.2341 317.08 41.9525Z" fill="#B16668"/>
<path d="M316.584 42.7298C316.774 42.6967 316.964 42.6884 317.146 42.6967C317.096 43.7054 316.444 44.6232 315.452 44.9043C315.204 44.9787 314.957 44.9952 314.709 44.9787C314.568 43.9369 315.386 42.9365 316.584 42.7215V42.7298Z" fill="#F28F8F"/>
<path d="M225.354 103.765L259.886 113.968L276.467 98.5974L241.926 88.4028L225.354 103.765Z" fill="#D6EBFF"/>
<path opacity="0.7" d="M225.354 103.765L259.886 113.968L276.467 98.5974L241.926 88.4028L225.354 103.765Z" fill="white"/>
<path d="M225.354 103.765L263.934 150.984L298.475 161.187L259.886 113.968L225.354 103.765Z" fill="#D6EBFF"/>
<path opacity="0.4" d="M225.354 103.765L263.934 150.984L298.475 161.187L259.886 113.968L225.354 103.765Z" fill="white"/>
<path d="M276.467 98.5974L315.047 145.817L298.475 161.187L259.886 113.968L276.467 98.5974Z" fill="#D6EBFF"/>
<path opacity="0.6" d="M276.467 98.5974L315.047 145.817L298.475 161.187L259.886 113.968L276.467 98.5974Z" fill="white"/>
<path d="M245.09 109.594L240.142 108.131L278.722 155.35L283.671 156.813L245.09 109.594Z" fill="#263238"/>
<path d="M247.379 101.425L240.142 108.131L245.09 109.594L252.327 102.889L247.379 101.425Z" fill="#455A64"/>
<path opacity="0.6" d="M307.43 136.49L294.972 121.244C294.163 121.467 293.444 122.112 292.601 122.244C291.213 122.459 289.85 122.608 288.446 122.575C285.629 122.509 282.853 121.93 280.127 121.236C278.623 120.847 277.119 120.425 275.624 120.012C274.757 119.772 273.575 119.681 273.212 120.5C272.931 121.128 273.385 121.839 273.881 122.319C276.739 125.122 281.176 125.419 284.654 127.395C284.91 127.544 285.191 127.776 285.125 128.065C285.059 128.321 284.753 128.412 284.497 128.462C281.3 129.049 273.542 129.611 270.444 130.603C269.874 130.785 269.213 131.149 269.23 131.744C269.246 132.158 269.602 132.48 269.949 132.703C270.667 133.166 271.485 133.464 272.336 133.58C271.948 134.142 272.212 134.961 272.724 135.407C273.237 135.854 273.939 136.011 274.608 136.143C275.698 136.35 276.805 136.515 277.912 136.639C277.921 137.102 277.21 137.061 276.772 137.218C276.227 137.416 276.045 138.152 276.252 138.69C276.458 139.227 276.946 139.616 277.417 139.946C278.772 140.889 280.35 141.674 282.002 141.575C282.704 141.534 283.39 141.327 284.067 141.12C289.503 139.467 299.376 137.011 305.051 136.68C305.844 136.631 306.646 136.606 307.439 136.515L307.43 136.49Z" fill="#D6EBFF"/>
<path d="M305.654 122.782C303.399 123.112 301.309 121.517 299.541 119.193C297.781 116.87 297.096 114.745 293.733 114.158C290.363 113.571 288.57 113.406 288.57 113.406L291.503 117.002C291.503 117.002 294.13 120.434 290.982 121.219C288.983 121.723 286.835 121.699 283.225 120.533C277.293 118.615 274.022 117.217 273.369 119.02C272.725 120.83 274.534 121.351 276.723 122.343C278.912 123.336 284.241 125.27 285.579 125.932C286.918 126.593 287.066 127.23 284.34 127.693C281.614 128.156 272.741 128.875 270.957 129.065C269.172 129.256 268.321 130.537 269.23 131.339C270.139 132.141 273.385 132.612 273.385 132.612C273.385 132.612 271.684 134.828 275.046 135.415C278.417 136.002 286.43 135.233 286.909 135.333C287.388 135.432 281.449 137.433 280.614 137.466C279.78 137.499 276.5 136.193 276.054 136.928C275.608 137.664 276.112 138.483 277.45 139.029C278.788 139.574 280.631 141.054 282.06 140.765C283.489 140.475 290.833 137.813 292.965 137.375C295.096 136.937 306.109 134.473 306.109 134.473L305.654 122.773V122.782Z" fill="#FFA8A7"/>
<path d="M348.275 61.5479C342.971 64.6816 338.659 73.1812 337.758 81.2343C336.858 89.2875 334.966 109.842 334.966 109.842C334.966 109.842 316.84 117.771 312.098 119.309C307.356 120.855 302.16 121.963 299.549 119.185L301.408 135.523C301.408 135.523 319.724 132.612 328.332 130.975C337.386 129.256 343.186 127.61 346.003 126.469C350.985 124.452 352.323 124.113 353.868 115.506C355.198 108.081 356.594 93.7936 357.561 86.4846C358.519 79.1756 359.651 64.7725 348.283 61.5397L348.275 61.5479Z" fill="#FFA8A7"/>
<path d="M273.385 132.621C275.823 132.621 279.358 132.331 281.837 132.216C284.249 132.166 287.826 131.769 290.247 131.463C284.737 132.778 279.011 132.761 273.385 132.621Z" fill="#F28F8F"/>
<path d="M347.87 60.8865C351.241 61.7133 355.058 63.2842 356.85 68.4518C358.643 73.6194 358.94 76.6124 358.122 86.4929C357.305 96.365 355.884 105.369 355.884 105.369C355.884 105.369 352.967 106.452 346.011 105.939C339.055 105.427 335.172 102.285 335.172 102.285C335.172 102.285 336.577 86.7905 337.262 80.2835C337.94 73.7682 340.782 64.417 347.878 60.8947L347.87 60.8865Z" fill="#455A64"/>
<path d="M189.367 137.805L147.119 162.221C142.484 164.899 138.7 171.464 138.7 176.814V270.153L134.776 272.418V173.614C134.776 168.265 138.568 161.691 143.194 159.021L189.549 132.24C194.184 129.561 197.967 131.753 197.967 137.102V235.906L194.018 238.188V140.492C194.018 137.54 191.928 136.325 189.367 137.805Z" fill="#E0E0E0"/>
<path d="M226.535 345.831C226.535 341.019 223.156 335.165 218.993 332.759C216.803 331.494 214.845 331.444 213.466 332.37L208.377 335.281L219.191 353.677L224.23 350.775V350.759C225.635 349.99 226.527 348.295 226.527 345.839L226.535 345.831Z" fill="#455A64"/>
<path d="M213.714 335.802C217.877 338.208 221.256 344.061 221.256 348.874C221.256 353.686 217.877 355.637 213.714 353.231C209.55 350.825 206.171 344.971 206.171 340.159C206.171 335.347 209.55 333.396 213.714 335.802Z" fill="#37474F"/>
<path d="M211.161 343.036C211.161 341.151 212.301 340.291 213.714 341.101C215.126 341.92 216.266 344.103 216.266 345.988C216.266 347.873 215.126 348.733 213.714 347.923C212.301 347.104 211.161 344.921 211.161 343.036Z" fill="#263238"/>
<path d="M222.553 327.765C222.553 327.765 222.553 336.38 218.447 339.423C217.671 339.993 216.853 340.399 216.365 340.795C215.316 341.664 216.01 343.268 217.282 343.954C219.133 344.946 229.204 342.259 233.466 334.073L222.545 327.765H222.553Z" fill="#F0F0F0"/>
<path d="M218.645 330.014C218.645 330.014 218.645 338.629 214.54 341.672C213.763 342.242 212.945 342.648 212.458 343.044C211.409 343.913 212.102 345.517 213.375 346.203C215.225 347.195 225.296 344.508 229.559 336.322L218.637 330.014H218.645Z" fill="#FAFAFA"/>
<path d="M213.714 343.681C214.11 343.913 214.441 344.475 214.441 344.938C214.441 345.401 214.118 345.583 213.714 345.36C213.317 345.128 212.987 344.566 212.987 344.103C212.987 343.64 213.309 343.458 213.714 343.681Z" fill="#263238"/>
<path d="M144.648 298.512C144.648 293.7 141.27 287.846 137.106 285.44C134.917 284.175 132.959 284.126 131.579 285.052L126.49 287.962L137.304 306.359L142.344 303.457V303.44C143.748 302.671 144.64 300.976 144.64 298.521L144.648 298.512Z" fill="#455A64"/>
<path d="M131.827 288.483C135.991 290.889 139.369 296.743 139.369 301.555C139.369 306.367 135.991 308.318 131.827 305.912C127.663 303.506 124.284 297.652 124.284 292.84C124.284 288.028 127.663 286.077 131.827 288.483Z" fill="#37474F"/>
<path d="M129.274 295.726C129.274 293.841 130.414 292.981 131.827 293.791C133.239 294.61 134.379 296.793 134.379 298.678C134.379 300.563 133.239 301.423 131.827 300.612C130.414 299.794 129.274 297.611 129.274 295.726Z" fill="#263238"/>
<path d="M140.666 280.455C140.666 280.455 140.666 289.07 136.561 292.113C135.784 292.683 134.966 293.088 134.479 293.485C133.43 294.353 134.123 295.957 135.396 296.644C137.246 297.636 147.317 294.949 151.58 286.763L140.658 280.455H140.666Z" fill="#F0F0F0"/>
<path d="M136.759 282.704C136.759 282.704 136.759 291.319 132.653 294.362C131.876 294.932 131.058 295.337 130.571 295.734C129.522 296.602 130.216 298.206 131.488 298.893C133.339 299.885 143.409 297.198 147.672 289.012L136.751 282.704H136.759Z" fill="#FAFAFA"/>
<path d="M131.827 296.363C132.223 296.594 132.554 297.156 132.554 297.619C132.554 298.082 132.232 298.264 131.827 298.041C131.43 297.81 131.1 297.247 131.1 296.784C131.1 296.321 131.422 296.139 131.827 296.363Z" fill="#263238"/>
<path d="M130.819 274.7L201.916 233.624L312.503 297.528L241.406 338.604L130.819 274.7Z" fill="#455A64"/>
<path d="M130.819 274.7V279.272L241.406 343.168V338.604L130.819 274.7Z" fill="#37474F"/>
<path d="M312.503 297.528V302.092L241.406 343.168V338.604L312.503 297.528Z" fill="#263238"/>
<path d="M137.04 274.502L199.314 310.501L265.108 272.542L202.66 236.634L137.04 274.502Z" fill="#37474F"/>
<path d="M259.085 233.111L202.049 200.113L141.972 234.897L199.017 267.904L259.085 233.111Z" fill="#D6EBFF"/>
<path opacity="0.3" d="M259.085 233.111L202.049 200.113L141.972 234.897L199.017 267.904L259.085 233.111Z" fill="white"/>
<path d="M199.017 307.806L259.093 273.022V233.111L199.017 267.904V307.806Z" fill="#D6EBFF"/>
<path d="M206.014 293.37C205.775 293.37 205.552 293.312 205.353 293.196C204.825 292.89 204.527 292.22 204.527 291.36V285.945V285.531L204.8 285.581L209.046 283.084V289.136C209.046 290.674 208.129 292.41 206.956 293.088C206.634 293.27 206.32 293.37 206.022 293.37H206.014ZM205.205 286.342V291.352C205.205 291.964 205.386 292.419 205.692 292.601C205.998 292.774 206.361 292.642 206.609 292.501C207.559 291.956 208.36 290.41 208.36 289.136V288.69H206.791L206.477 286.565L205.196 286.333L205.205 286.342ZM207.377 288.012H208.36V284.275L205.832 285.763L207.088 285.986L207.386 288.012H207.377Z" fill="#455A64"/>
<path d="M206.774 297.686C206.584 297.686 206.436 297.537 206.436 297.347V292.799C206.436 292.609 206.584 292.46 206.774 292.46C206.964 292.46 207.113 292.609 207.113 292.799V297.347C207.113 297.537 206.964 297.686 206.774 297.686Z" fill="#455A64"/>
<path d="M204.8 298.827C204.684 298.827 204.568 298.769 204.502 298.653C204.411 298.488 204.461 298.281 204.626 298.19L208.575 295.908C208.732 295.809 208.947 295.867 209.038 296.032C209.129 296.197 209.079 296.404 208.914 296.495L204.965 298.777C204.915 298.81 204.849 298.827 204.791 298.827H204.8Z" fill="#455A64"/>
<path d="M218.877 290.997C218.745 290.997 218.621 290.964 218.505 290.897C218.249 290.749 218.101 290.451 218.101 290.079V289.145C218.101 288.954 218.249 288.806 218.439 288.806C218.629 288.806 218.778 288.954 218.778 289.145V290.079C218.778 290.219 218.819 290.294 218.844 290.31C218.869 290.327 218.952 290.319 219.067 290.252C219.365 290.079 219.703 289.401 219.703 288.715V282.662C219.703 282.472 219.852 282.323 220.042 282.323C220.232 282.323 220.381 282.472 220.381 282.662V288.715C220.381 289.599 219.968 290.517 219.414 290.84C219.232 290.947 219.051 290.997 218.877 290.997Z" fill="#455A64"/>
<path d="M215.292 285.705V285.118C215.292 282.348 217.241 278.958 219.645 277.569C220.876 276.858 222.049 276.759 222.942 277.28C223.842 277.801 224.338 278.867 224.338 280.281V280.48L215.292 285.705ZM221.678 277.635C221.165 277.635 220.587 277.809 219.976 278.165C217.935 279.339 216.25 282.084 215.994 284.506L223.644 280.083C223.602 279.016 223.231 278.231 222.595 277.867C222.322 277.71 222.016 277.635 221.678 277.635Z" fill="#455A64"/>
<path d="M231.096 284.018C230.906 284.018 230.757 283.87 230.757 283.679V272.096C230.757 271.906 230.906 271.757 231.096 271.757C231.286 271.757 231.434 271.906 231.434 272.096V283.679C231.434 283.87 231.286 284.018 231.096 284.018Z" fill="#455A64"/>
<path d="M230.104 274.733C230.055 274.733 230.013 274.725 229.972 274.708C229.798 274.634 229.724 274.436 229.798 274.262L231.013 271.459L232.36 273.022C232.483 273.162 232.467 273.377 232.326 273.501C232.178 273.625 231.971 273.609 231.847 273.468L231.203 272.724L230.418 274.527C230.36 274.651 230.236 274.733 230.104 274.733Z" fill="#455A64"/>
<path d="M234.243 282.224C234.053 282.224 233.905 282.075 233.905 281.885V270.302C233.905 270.111 234.053 269.963 234.243 269.963C234.433 269.963 234.582 270.111 234.582 270.302V281.885C234.582 282.075 234.433 282.224 234.243 282.224Z" fill="#455A64"/>
<path d="M233.244 272.939C233.194 272.939 233.153 272.931 233.111 272.914C232.938 272.84 232.864 272.641 232.938 272.468L234.152 269.673L235.499 271.236C235.623 271.376 235.606 271.591 235.466 271.715C235.317 271.839 235.111 271.823 234.987 271.682L234.342 270.938L233.557 272.741C233.5 272.865 233.376 272.947 233.244 272.947V272.939Z" fill="#455A64"/>
<path d="M199.017 307.806L141.972 274.799V234.897L199.017 267.904V307.806Z" fill="#D6EBFF"/>
<path opacity="0.1" d="M199.017 307.806L141.972 274.799V234.897L199.017 267.904V307.806Z" fill="black"/>
<path d="M149.184 259.032L165.922 268.706C166.335 268.946 166.673 269.533 166.673 270.012V281.654C166.673 282.613 165.996 283.001 165.17 282.522L148.432 272.848C148.019 272.608 147.68 272.021 147.68 271.542V259.9C147.68 258.941 148.358 258.553 149.192 259.032H149.184Z" fill="#FAFAFA"/>
<path d="M148.771 260.843L149.341 261.173V271.451L148.771 271.12V260.843Z" fill="#455A64"/>
<path d="M151.093 262.182L152.067 262.761V273.038L151.093 272.46V262.182Z" fill="#455A64"/>
<path d="M153.406 263.522L153.976 263.852V274.13L153.406 273.799V263.522Z" fill="#455A64"/>
<path d="M155.157 264.514L156.297 265.184V275.469L155.157 274.791V264.514Z" fill="#455A64"/>
<path d="M158.04 266.201L158.61 266.523V276.809L158.04 276.478V266.201Z" fill="#455A64"/>
<path d="M159.709 267.143L160.932 267.862V278.14L159.709 277.42V267.143Z" fill="#455A64"/>
<path d="M162.683 268.871L163.253 269.202V279.479L162.683 279.157V268.871Z" fill="#455A64"/>
<path d="M164.005 269.632L164.286 269.789V280.074L164.005 279.909V269.632Z" fill="#455A64"/>
<path d="M161.626 268.317L161.907 268.483V278.76L161.626 278.594V268.317Z" fill="#455A64"/>
<path d="M156.95 265.58L157.239 265.746V276.023L156.95 275.858V265.58Z" fill="#455A64"/>
<path d="M154.397 264.109L154.678 264.274V274.551L154.397 274.386V264.109Z" fill="#455A64"/>
<path d="M152.563 263.092L152.844 263.257V273.534L152.563 273.369V263.092Z" fill="#455A64"/>
<path d="M150.068 261.579L150.357 261.744L150.349 272.021L150.068 271.856V261.579Z" fill="#455A64"/>
<path d="M164.996 270.211L165.566 270.541V280.819L164.996 280.496V270.211Z" fill="#455A64"/>
<path d="M165.922 254.799L169.821 257.056V250.987L165.922 248.73V254.799Z" fill="#37474F"/>
<path d="M169.821 250.987L229.898 216.203L225.99 213.946L165.922 248.73L169.821 250.987Z" fill="#455A64"/>
<path opacity="0.1" d="M142.806 234.426L189.186 261.14L248.37 226.902L202.048 200.113L142.806 234.426Z" fill="black"/>
<path d="M243.678 188.497L197.496 161.857L142.905 193.458L189.086 220.089L243.678 188.497Z" fill="#D6EBFF"/>
<path opacity="0.7" d="M243.678 188.497L197.496 161.857L142.905 193.458L189.086 220.089L243.678 188.497Z" fill="white"/>
<path d="M189.086 258.412L243.678 226.819V188.497L189.086 220.089V258.412Z" fill="#D6EBFF"/>
<path opacity="0.6" d="M189.086 258.412L243.678 226.819V188.497L189.086 220.089V258.412Z" fill="white"/>
<path d="M196.488 243.678C196.282 243.678 196.092 243.629 195.91 243.529C195.456 243.265 195.191 242.678 195.191 241.934V237.229V236.874L195.431 236.915L199.116 234.749V240.007C199.116 241.347 198.314 242.851 197.298 243.447C197.017 243.604 196.745 243.686 196.488 243.686V243.678ZM195.778 237.568V241.925C195.778 242.455 195.935 242.851 196.199 243.009C196.464 243.166 196.778 243.042 197.001 242.918C197.827 242.438 198.521 241.099 198.521 239.991V239.602H197.158L196.885 237.758L195.778 237.56V237.568ZM197.67 239.023H198.521V235.774L196.323 237.064L197.414 237.254L197.67 239.015V239.023Z" fill="#455A64"/>
<path d="M197.158 247.432C196.993 247.432 196.86 247.3 196.86 247.134V243.182C196.86 243.017 196.993 242.884 197.158 242.884C197.323 242.884 197.455 243.017 197.455 243.182V247.134C197.455 247.3 197.323 247.432 197.158 247.432Z" fill="#455A64"/>
<path d="M195.439 248.416C195.34 248.416 195.241 248.366 195.183 248.267C195.101 248.126 195.15 247.945 195.291 247.862L198.727 245.878C198.868 245.795 199.049 245.844 199.132 245.985C199.215 246.126 199.165 246.307 199.025 246.39L195.588 248.374C195.538 248.399 195.489 248.416 195.439 248.416Z" fill="#455A64"/>
<path d="M207.675 241.611C207.559 241.611 207.451 241.586 207.352 241.528C207.129 241.396 206.997 241.14 206.997 240.817V240.007C206.997 239.842 207.129 239.709 207.294 239.709C207.46 239.709 207.592 239.842 207.592 240.007V240.817C207.592 240.941 207.625 240.999 207.65 241.016C207.675 241.032 207.741 241.016 207.84 240.966C208.104 240.809 208.393 240.222 208.393 239.627V234.368C208.393 234.203 208.525 234.071 208.691 234.071C208.856 234.071 208.988 234.203 208.988 234.368V239.627C208.988 240.396 208.625 241.189 208.145 241.471C207.988 241.561 207.831 241.611 207.683 241.611H207.675Z" fill="#455A64"/>
<path d="M204.56 237.014V236.501C204.56 234.087 206.253 231.144 208.344 229.945C209.409 229.333 210.434 229.242 211.21 229.688C211.995 230.143 212.425 231.069 212.425 232.301V232.475L204.56 237.022V237.014ZM210.111 229.994C209.665 229.994 209.161 230.151 208.633 230.449C206.865 231.474 205.394 233.856 205.171 235.964L211.822 232.119C211.789 231.193 211.466 230.515 210.905 230.193C210.665 230.061 210.401 229.986 210.103 229.986L210.111 229.994Z" fill="#455A64"/>
<path d="M218.299 235.551C218.133 235.551 218.001 235.418 218.001 235.253V225.182C218.001 225.017 218.133 224.885 218.299 224.885C218.464 224.885 218.596 225.017 218.596 225.182V235.253C218.596 235.418 218.464 235.551 218.299 235.551Z" fill="#455A64"/>
<path d="M217.439 227.473C217.439 227.473 217.357 227.473 217.324 227.448C217.175 227.382 217.109 227.208 217.167 227.059L218.216 224.628L219.389 225.984C219.497 226.108 219.48 226.29 219.356 226.398C219.232 226.505 219.042 226.489 218.935 226.365L218.381 225.72L217.704 227.291C217.654 227.398 217.547 227.473 217.431 227.473H217.439Z" fill="#455A64"/>
<path d="M221.033 233.988C220.868 233.988 220.736 233.856 220.736 233.69V223.62C220.736 223.454 220.868 223.322 221.033 223.322C221.198 223.322 221.33 223.454 221.33 223.62V233.69C221.33 233.856 221.198 233.988 221.033 233.988Z" fill="#455A64"/>
<path d="M220.174 225.91C220.174 225.91 220.091 225.91 220.058 225.885C219.909 225.819 219.843 225.645 219.901 225.497L220.95 223.066L222.123 224.422C222.231 224.546 222.214 224.728 222.09 224.835C221.967 224.943 221.777 224.926 221.669 224.802L221.107 224.157L220.43 225.728C220.38 225.836 220.273 225.91 220.157 225.91H220.174Z" fill="#455A64"/>
<path d="M189.086 258.412L142.905 231.78V193.458L189.086 220.089V258.412Z" fill="#D6EBFF"/>
<path opacity="0.4" d="M189.086 258.412L142.905 231.78V193.458L189.086 220.089V258.412Z" fill="white"/>
<path d="M149.184 215.294L165.922 224.967C166.335 225.207 166.673 225.794 166.673 226.274V237.915C166.673 238.874 165.996 239.263 165.17 238.783L148.432 229.11C148.019 228.87 147.68 228.283 147.68 227.803V216.162C147.68 215.203 148.358 214.814 149.192 215.294H149.184Z" fill="#FAFAFA"/>
<path d="M148.771 217.104L149.341 217.435V227.712L148.771 227.382V217.104Z" fill="#455A64"/>
<path d="M151.092 218.444L152.067 219.023V229.3L151.092 228.721V218.444Z" fill="#455A64"/>
<path d="M153.406 219.783L153.976 220.106V230.391L153.406 230.061V219.783Z" fill="#455A64"/>
<path d="M155.157 220.776L156.297 221.445V231.731L155.157 231.053V220.776Z" fill="#455A64"/>
<path d="M158.04 222.462L158.61 222.785V233.062L158.04 232.739V222.462Z" fill="#455A64"/>
<path d="M159.709 223.405L160.932 224.124V234.401L159.709 233.682V223.405Z" fill="#455A64"/>
<path d="M162.683 225.133L163.253 225.464V235.741L162.683 235.418V225.133Z" fill="#455A64"/>
<path d="M164.005 225.893L164.286 226.051V236.336L164.005 236.171V225.893Z" fill="#455A64"/>
<path d="M161.625 224.579L161.906 224.744V235.022L161.625 234.856V224.579Z" fill="#455A64"/>
<path d="M156.95 221.842L157.239 222.007V232.285L156.95 232.119V221.842Z" fill="#455A64"/>
<path d="M154.397 220.37L154.678 220.536V230.813L154.397 230.648V220.37Z" fill="#455A64"/>
<path d="M152.563 219.353L152.844 219.519V229.796L152.563 229.631V219.353Z" fill="#455A64"/>
<path d="M150.068 217.84L150.357 218.006L150.349 228.283L150.068 228.118V217.84Z" fill="#455A64"/>
<path d="M164.996 226.472L165.566 226.803V237.08L164.996 236.758V226.472Z" fill="#455A64"/>
<path d="M161.972 211.135L166.326 213.648V206.893L161.972 204.38V211.135Z" fill="#37474F"/>
<path d="M166.326 206.893L220.917 175.301L216.572 172.787L161.972 204.38L166.326 206.893Z" fill="#455A64"/>
<path d="M260.266 289.74C265.463 292.741 273.898 292.741 279.094 289.74C284.291 286.738 284.291 281.86 279.094 278.859C273.898 275.858 265.463 275.858 260.266 278.859C255.07 281.86 255.07 286.738 260.266 289.74Z" fill="#37474F"/>
<path d="M280.904 283.836H280.92V261.372H258.433V283.836H258.449C258.358 285.564 259.44 287.317 261.729 288.64C266.116 291.179 273.237 291.179 277.632 288.64C279.92 287.317 281.003 285.573 280.912 283.836H280.904Z" fill="#EBEBEB"/>
<path d="M261.729 265.961C266.116 268.499 273.237 268.499 277.632 265.961C282.027 263.422 282.019 259.313 277.632 256.775C273.245 254.237 266.124 254.237 261.729 256.775C257.342 259.313 257.342 263.422 261.729 265.961Z" fill="#FAFAFA"/>
<path d="M262.216 265.58C266.339 267.912 273.022 267.912 277.144 265.58C281.267 263.249 281.267 259.47 277.144 257.147C273.022 254.815 266.339 254.815 262.216 257.147C258.094 259.479 258.094 263.257 262.216 265.58Z" fill="#EBEBEB"/>
<path d="M277.144 258.238C273.022 255.907 266.339 255.907 262.216 258.238C260.399 259.264 259.391 260.57 259.168 261.909C259.383 263.249 260.399 264.555 262.216 265.58C266.339 267.912 273.022 267.912 277.144 265.58C278.962 264.555 279.97 263.249 280.193 261.909C279.978 260.57 278.962 259.264 277.144 258.238Z" fill="#F5F5F5"/>
<path d="M258.441 280.033C258.424 281.703 259.523 283.382 261.737 284.663C266.124 287.201 273.245 287.201 277.64 284.663C279.838 283.398 280.937 281.728 280.937 280.066V265.026C280.937 266.688 279.838 268.35 277.64 269.623C273.254 272.162 266.132 272.162 261.737 269.623C259.523 268.35 258.433 266.672 258.441 264.993V280.033Z" fill="#D6EBFF"/>
<path opacity="0.3" d="M258.441 280.033C258.424 281.703 259.523 283.382 261.737 284.663C266.124 287.201 273.245 287.201 277.64 284.663C279.838 283.398 280.937 281.728 280.937 280.066V265.026C280.937 266.688 279.838 268.35 277.64 269.623C273.254 272.162 266.132 272.162 261.737 269.623C259.523 268.35 258.433 266.672 258.441 264.993V280.033Z" fill="black"/>
<path opacity="0.1" d="M274.286 289.963C270.155 291.03 265.124 290.6 261.737 288.632C259.449 287.317 258.366 285.573 258.457 283.828H258.441V261.364C258.441 263.026 259.539 264.696 261.737 265.961C262.084 266.159 263.579 267.077 266.339 267.565V286.565C266.339 288.442 269.09 290.682 274.294 289.963H274.286Z" fill="black"/>
<path d="M272.246 265.374L271.056 264.687C270.089 264.125 269.825 263.373 270.478 262.992C271.13 262.62 272.436 262.769 273.402 263.323L274.592 264.009C275.558 264.572 275.823 265.324 275.17 265.704C274.517 266.076 273.212 265.928 272.246 265.374Z" fill="#E0E0E0"/>
<path d="M270.998 264.034C271.353 264.241 271.923 264.241 272.279 264.034C272.634 263.828 272.634 263.497 272.279 263.29C271.923 263.083 271.353 263.083 270.998 263.29C270.643 263.497 270.643 263.828 270.998 264.034Z" fill="#F5F5F5"/>
<path d="M273.361 265.316C273.716 265.523 274.286 265.523 274.641 265.316C274.997 265.109 274.997 264.778 274.641 264.572C274.286 264.365 273.716 264.365 273.361 264.572C273.006 264.778 273.006 265.109 273.361 265.316Z" fill="#F5F5F5"/>
<path d="M243.603 299.372C248.8 302.374 257.235 302.374 262.431 299.372C267.627 296.371 267.627 291.493 262.431 288.491C257.235 285.49 248.8 285.49 243.603 288.491C238.407 291.493 238.407 296.371 243.603 299.372Z" fill="#37474F"/>
<path d="M264.24 293.46H264.257V270.996H241.769V293.46H241.786C241.695 295.188 242.777 296.941 245.066 298.264C249.452 300.803 256.574 300.803 260.969 298.264C263.257 296.941 264.339 295.197 264.248 293.46H264.24Z" fill="#EBEBEB"/>
<path d="M245.065 275.585C249.452 278.123 256.574 278.123 260.969 275.585C265.355 273.047 265.355 268.937 260.969 266.399C256.582 263.861 249.461 263.861 245.065 266.399C240.679 268.937 240.679 273.047 245.065 275.585Z" fill="#FAFAFA"/>
<path d="M245.553 275.213C249.675 277.544 256.359 277.544 260.481 275.213C264.604 272.881 264.604 269.103 260.481 266.779C256.359 264.448 249.675 264.448 245.553 266.779C241.431 269.111 241.431 272.889 245.553 275.213Z" fill="#EBEBEB"/>
<path d="M260.481 267.862C256.359 265.531 249.676 265.531 245.553 267.862C243.736 268.888 242.728 270.194 242.505 271.533C242.719 272.873 243.736 274.179 245.553 275.204C249.676 277.536 256.359 277.536 260.481 275.204C262.299 274.179 263.307 272.873 263.53 271.533C263.315 270.194 262.299 268.888 260.481 267.862Z" fill="#F5F5F5"/>
<path d="M241.778 289.665C241.761 291.336 242.86 293.014 245.074 294.296C249.461 296.834 256.582 296.834 260.977 294.296C263.174 293.031 264.273 291.36 264.273 289.699V274.659C264.273 276.321 263.174 277.983 260.977 279.256C256.59 281.794 249.469 281.794 245.074 279.256C242.86 277.983 241.769 276.304 241.778 274.626V289.665Z" fill="#D6EBFF"/>
<path opacity="0.3" d="M241.778 289.665C241.761 291.336 242.86 293.014 245.074 294.296C249.461 296.834 256.582 296.834 260.977 294.296C263.174 293.031 264.273 291.36 264.273 289.699V274.659C264.273 276.321 263.174 277.983 260.977 279.256C256.59 281.794 249.469 281.794 245.074 279.256C242.86 277.983 241.769 276.304 241.778 274.626V289.665Z" fill="black"/>
<path opacity="0.1" d="M257.623 299.587C253.492 300.654 248.461 300.224 245.074 298.256C242.785 296.941 241.703 295.197 241.794 293.452H241.778V270.988C241.778 272.65 242.876 274.32 245.074 275.585C245.421 275.783 246.916 276.701 249.675 277.189V296.189C249.675 298.066 252.427 300.306 257.631 299.587H257.623Z" fill="black"/>
<path d="M255.582 274.998L254.393 274.312C253.426 273.749 253.162 272.997 253.814 272.617C254.467 272.244 255.772 272.393 256.739 272.947L257.928 273.634C258.895 274.196 259.159 274.948 258.507 275.329C257.854 275.701 256.549 275.552 255.582 274.998Z" fill="#E0E0E0"/>
<path d="M254.335 273.667C254.69 273.873 255.26 273.873 255.615 273.667C255.971 273.46 255.971 273.129 255.615 272.922C255.26 272.716 254.69 272.716 254.335 272.922C253.98 273.129 253.98 273.46 254.335 273.667Z" fill="#F5F5F5"/>
<path d="M256.698 274.94C257.053 275.147 257.623 275.147 257.978 274.94C258.333 274.733 258.333 274.403 257.978 274.196C257.623 273.989 257.053 273.989 256.698 274.196C256.342 274.403 256.342 274.733 256.698 274.94Z" fill="#F5F5F5"/>
<path d="M226.94 308.996C232.136 311.998 240.571 311.998 245.768 308.996C250.964 305.995 250.964 301.117 245.768 298.115C240.571 295.114 232.136 295.114 226.94 298.115C221.744 301.117 221.744 305.995 226.94 308.996Z" fill="#37474F"/>
<path d="M247.577 303.093H247.594V280.628H225.106V303.093H225.123C225.032 304.821 226.114 306.574 228.402 307.897C232.789 310.435 239.911 310.435 244.306 307.897C246.594 306.574 247.676 304.829 247.585 303.093H247.577Z" fill="#EBEBEB"/>
<path d="M228.402 285.217C232.789 287.755 239.91 287.755 244.306 285.217C248.692 282.679 248.692 278.57 244.306 276.031C239.919 273.493 232.797 273.493 228.402 276.031C224.016 278.57 224.016 282.679 228.402 285.217Z" fill="#FAFAFA"/>
<path d="M228.89 284.837C233.012 287.168 239.696 287.168 243.818 284.837C247.941 282.505 247.941 278.727 243.818 276.403C239.696 274.072 233.012 274.072 228.89 276.403C224.767 278.735 224.767 282.514 228.89 284.837Z" fill="#EBEBEB"/>
<path d="M243.818 277.495C239.696 275.163 233.012 275.163 228.89 277.495C227.072 278.52 226.064 279.826 225.841 281.166C226.056 282.505 227.072 283.812 228.89 284.837C233.012 287.169 239.696 287.169 243.818 284.837C245.636 283.812 246.643 282.505 246.867 281.166C246.652 279.826 245.636 278.52 243.818 277.495Z" fill="#F5F5F5"/>
<path d="M225.114 299.289C225.098 300.96 226.197 302.638 228.411 303.92C232.798 306.458 239.919 306.458 244.314 303.92C246.511 302.655 247.61 300.984 247.61 299.323V284.283C247.61 285.945 246.511 287.607 244.314 288.88C239.927 291.418 232.806 291.418 228.411 288.88C226.197 287.607 225.106 285.928 225.114 284.25V299.289Z" fill="#D6EBFF"/>
<path opacity="0.3" d="M225.114 299.289C225.098 300.96 226.197 302.638 228.411 303.92C232.798 306.458 239.919 306.458 244.314 303.92C246.511 302.655 247.61 300.984 247.61 299.323V284.283C247.61 285.945 246.511 287.607 244.314 288.88C239.927 291.418 232.806 291.418 228.411 288.88C226.197 287.607 225.106 285.928 225.114 284.25V299.289Z" fill="black"/>
<path d="M238.919 284.63L237.729 283.944C236.763 283.382 236.499 282.629 237.151 282.249C237.804 281.877 239.109 282.026 240.076 282.58L241.265 283.266C242.232 283.828 242.496 284.58 241.844 284.961C241.191 285.333 239.886 285.184 238.919 284.63Z" fill="#E0E0E0"/>
<path d="M237.672 283.291C238.027 283.497 238.597 283.497 238.952 283.291C239.307 283.084 239.307 282.753 238.952 282.547C238.597 282.34 238.027 282.34 237.672 282.547C237.316 282.753 237.316 283.084 237.672 283.291Z" fill="#F5F5F5"/>
<path d="M240.034 284.572C240.39 284.779 240.96 284.779 241.315 284.572C241.67 284.366 241.67 284.035 241.315 283.828C240.96 283.621 240.39 283.621 240.034 283.828C239.679 284.035 239.679 284.366 240.034 284.572Z" fill="#F5F5F5"/>
<path opacity="0.1" d="M240.96 309.22C236.829 310.286 231.798 309.856 228.411 307.888C226.122 306.574 225.04 304.829 225.131 303.085H225.114V280.62C225.114 282.282 226.213 283.952 228.411 285.217C228.758 285.416 230.253 286.333 233.012 286.821V305.821C233.012 307.698 235.763 309.939 240.968 309.22H240.96Z" fill="black"/>
<path d="M210.277 318.629C215.473 321.63 223.908 321.63 229.105 318.629C234.301 315.627 234.301 310.749 229.105 307.748C223.908 304.746 215.473 304.746 210.277 307.748C205.081 310.749 205.081 315.627 210.277 318.629Z" fill="#37474F"/>
<path d="M230.914 312.717H230.93V290.252H208.443V312.717H208.459C208.369 314.445 209.451 316.198 211.739 317.521C216.126 320.059 223.247 320.059 227.642 317.521C229.931 316.198 231.013 314.453 230.922 312.717H230.914Z" fill="#EBEBEB"/>
<path d="M211.739 294.841C216.126 297.38 223.247 297.38 227.642 294.841C232.029 292.303 232.029 288.194 227.642 285.655C223.256 283.117 216.134 283.117 211.739 285.655C207.353 288.194 207.353 292.303 211.739 294.841Z" fill="#FAFAFA"/>
<path d="M212.227 294.469C216.349 296.801 223.032 296.801 227.155 294.469C231.277 292.138 231.277 288.359 227.155 286.036C223.032 283.704 216.349 283.704 212.227 286.036C208.104 288.367 208.104 292.146 212.227 294.469Z" fill="#EBEBEB"/>
<path d="M227.155 287.127C223.033 284.796 216.349 284.796 212.227 287.127C210.409 288.152 209.401 289.459 209.178 290.798C209.393 292.138 210.409 293.444 212.227 294.469C216.349 296.801 223.033 296.801 227.155 294.469C228.972 293.444 229.98 292.138 230.203 290.798C229.989 289.459 228.972 288.152 227.155 287.127Z" fill="#F5F5F5"/>
<path d="M208.451 308.922C208.435 310.592 209.533 312.271 211.747 313.552C216.134 316.09 223.255 316.09 227.651 313.552C229.848 312.287 230.947 310.617 230.947 308.955V293.915C230.947 295.577 229.848 297.239 227.651 298.512C223.264 301.051 216.142 301.051 211.747 298.512C209.533 297.239 208.443 295.561 208.451 293.882V308.922Z" fill="#D6EBFF"/>
<path opacity="0.3" d="M208.451 308.922C208.435 310.592 209.533 312.271 211.747 313.552C216.134 316.09 223.255 316.09 227.651 313.552C229.848 312.287 230.947 310.617 230.947 308.955V293.915C230.947 295.577 229.848 297.239 227.651 298.512C223.264 301.051 216.142 301.051 211.747 298.512C209.533 297.239 208.443 295.561 208.451 293.882V308.922Z" fill="black"/>
<path opacity="0.1" d="M224.296 318.852C220.166 319.918 215.135 319.489 211.747 317.521C209.459 316.206 208.377 314.462 208.468 312.717H208.451V290.252C208.451 291.914 209.55 293.584 211.747 294.85C212.094 295.048 213.59 295.966 216.349 296.454V315.454C216.349 317.331 219.1 319.571 224.305 318.852H224.296Z" fill="black"/>
<path d="M222.256 294.254L221.066 293.568C220.1 293.006 219.835 292.253 220.488 291.873C221.141 291.501 222.446 291.65 223.413 292.204L224.602 292.89C225.569 293.452 225.833 294.205 225.181 294.585C224.528 294.957 223.223 294.808 222.256 294.254Z" fill="#E0E0E0"/>
<path d="M221.008 292.923C221.364 293.13 221.934 293.13 222.289 292.923C222.644 292.716 222.644 292.386 222.289 292.179C221.934 291.972 221.364 291.972 221.008 292.179C220.653 292.386 220.653 292.716 221.008 292.923Z" fill="#F5F5F5"/>
<path d="M223.371 294.196C223.726 294.403 224.296 294.403 224.652 294.196C225.007 293.99 225.007 293.659 224.652 293.452C224.296 293.246 223.726 293.246 223.371 293.452C223.016 293.659 223.016 293.99 223.371 294.196Z" fill="#F5F5F5"/>
<path d="M276.781 299.298C281.977 302.299 290.412 302.299 295.609 299.298C300.805 296.296 300.805 291.418 295.609 288.417C290.412 285.416 281.977 285.416 276.781 288.417C271.584 291.418 271.584 296.296 276.781 299.298Z" fill="#37474F"/>
<path d="M297.426 293.386H297.443V270.922H274.955V293.386H274.972C274.881 295.114 275.963 296.867 278.251 298.19C282.638 300.728 289.759 300.728 294.155 298.19C296.443 296.867 297.525 295.122 297.434 293.386H297.426Z" fill="#EBEBEB"/>
<path d="M278.252 275.51C282.638 278.049 289.76 278.049 294.155 275.51C298.541 272.972 298.541 268.863 294.155 266.325C289.768 263.786 282.647 263.786 278.252 266.325C273.865 268.863 273.865 272.972 278.252 275.51Z" fill="#FAFAFA"/>
<path d="M278.739 275.138C282.861 277.47 289.545 277.47 293.667 275.138C297.79 272.807 297.79 269.028 293.667 266.705C289.545 264.373 282.861 264.373 278.739 266.705C274.616 269.036 274.616 272.815 278.739 275.138Z" fill="#EBEBEB"/>
<path d="M293.667 267.796C289.545 265.465 282.861 265.465 278.739 267.796C276.921 268.822 275.913 270.128 275.69 271.467C275.905 272.807 276.921 274.113 278.739 275.138C282.861 277.47 289.545 277.47 293.667 275.138C295.485 274.113 296.493 272.807 296.716 271.467C296.501 270.128 295.485 268.822 293.667 267.796Z" fill="#F5F5F5"/>
<path d="M274.955 289.591C274.939 291.261 276.037 292.94 278.252 294.221C282.638 296.759 289.76 296.759 294.155 294.221C296.352 292.956 297.451 291.286 297.451 289.624V274.584C297.451 276.246 296.352 277.908 294.155 279.181C289.768 281.72 282.647 281.72 278.252 279.181C276.037 277.908 274.947 276.23 274.955 274.551V289.591Z" fill="#D6EBFF"/>
<path opacity="0.3" d="M274.955 289.591C274.939 291.261 276.037 292.94 278.252 294.221C282.638 296.759 289.76 296.759 294.155 294.221C296.352 292.956 297.451 291.286 297.451 289.624V274.584C297.451 276.246 296.352 277.908 294.155 279.181C289.768 281.72 282.647 281.72 278.252 279.181C276.037 277.908 274.947 276.23 274.955 274.551V289.591Z" fill="black"/>
<path opacity="0.1" d="M290.8 299.521C286.67 300.588 281.639 300.158 278.251 298.19C275.963 296.875 274.881 295.131 274.972 293.386H274.955V270.922C274.955 272.584 276.054 274.254 278.251 275.519C278.598 275.717 280.094 276.635 282.853 277.123V296.123C282.853 298 285.604 300.24 290.809 299.521H290.8Z" fill="black"/>
<path d="M288.768 274.923L287.579 274.237C286.612 273.675 286.348 272.922 287 272.542C287.653 272.17 288.958 272.319 289.925 272.873L291.114 273.559C292.081 274.121 292.345 274.874 291.693 275.254C291.04 275.626 289.735 275.477 288.768 274.923Z" fill="#E0E0E0"/>
<path d="M287.521 273.592C287.876 273.799 288.446 273.799 288.801 273.592C289.157 273.385 289.157 273.055 288.801 272.848C288.446 272.641 287.876 272.641 287.521 272.848C287.166 273.055 287.166 273.385 287.521 273.592Z" fill="#F5F5F5"/>
<path d="M289.883 274.865C290.239 275.072 290.809 275.072 291.164 274.865C291.519 274.659 291.519 274.328 291.164 274.121C290.809 273.915 290.239 273.915 289.883 274.121C289.528 274.328 289.528 274.659 289.883 274.865Z" fill="#F5F5F5"/>
<path d="M260.118 308.922C265.314 311.923 273.749 311.923 278.945 308.922C284.142 305.921 284.142 301.042 278.945 298.041C273.749 295.04 265.314 295.04 260.118 298.041C254.921 301.042 254.921 305.921 260.118 308.922Z" fill="#37474F"/>
<path d="M280.763 303.018H280.779V280.554H258.292V303.018H258.309C258.218 304.746 259.3 306.499 261.588 307.822C265.975 310.361 273.096 310.361 277.491 307.822C279.78 306.499 280.862 304.755 280.771 303.018H280.763Z" fill="#EBEBEB"/>
<path d="M261.588 285.143C265.975 287.681 273.096 287.681 277.491 285.143C281.878 282.604 281.878 278.495 277.491 275.957C273.105 273.419 265.983 273.419 261.588 275.957C257.201 278.495 257.201 282.604 261.588 285.143Z" fill="#FAFAFA"/>
<path d="M262.076 284.771C266.198 287.102 272.882 287.102 277.004 284.771C281.126 282.439 281.126 278.661 277.004 276.337C272.882 274.006 266.198 274.006 262.076 276.337C257.953 278.669 257.953 282.447 262.076 284.771Z" fill="#EBEBEB"/>
<path d="M277.004 277.42C272.882 275.089 266.198 275.089 262.076 277.42C260.258 278.446 259.25 279.752 259.027 281.091C259.242 282.431 260.258 283.737 262.076 284.762C266.198 287.094 272.882 287.094 277.004 284.762C278.822 283.737 279.829 282.431 280.053 281.091C279.838 279.752 278.822 278.446 277.004 277.42Z" fill="#F5F5F5"/>
<path d="M258.292 299.215C258.275 300.885 259.374 302.564 261.588 303.845C265.975 306.384 273.096 306.384 277.491 303.845C279.689 302.58 280.788 300.91 280.788 299.248V284.208C280.788 285.87 279.689 287.532 277.491 288.806C273.105 291.344 265.983 291.344 261.588 288.806C259.374 287.532 258.284 285.854 258.292 284.175V299.215Z" fill="#D6EBFF"/>
<path opacity="0.3" d="M258.292 299.215C258.275 300.885 259.374 302.564 261.588 303.845C265.975 306.384 273.096 306.384 277.491 303.845C279.689 302.58 280.788 300.91 280.788 299.248V284.208C280.788 285.87 279.689 287.532 277.491 288.806C273.105 291.344 265.983 291.344 261.588 288.806C259.374 287.532 258.284 285.854 258.292 284.175V299.215Z" fill="black"/>
<path opacity="0.1" d="M274.137 309.145C270.007 310.212 264.975 309.782 261.588 307.814C259.3 306.499 258.218 304.755 258.309 303.01H258.292V280.546C258.292 282.208 259.391 283.878 261.588 285.143C261.935 285.341 263.431 286.259 266.19 286.747V305.747C266.19 307.624 268.941 309.864 274.146 309.145H274.137Z" fill="black"/>
<path d="M272.105 284.556L270.915 283.869C269.949 283.307 269.684 282.555 270.337 282.175C270.99 281.802 272.295 281.951 273.261 282.505L274.451 283.192C275.418 283.754 275.682 284.506 275.029 284.886C274.377 285.259 273.071 285.11 272.105 284.556Z" fill="#E0E0E0"/>
<path d="M270.857 283.216C271.213 283.423 271.783 283.423 272.138 283.216C272.493 283.01 272.493 282.679 272.138 282.472C271.783 282.265 271.213 282.265 270.857 282.472C270.502 282.679 270.502 283.01 270.857 283.216Z" fill="#F5F5F5"/>
<path d="M273.22 284.498C273.576 284.704 274.146 284.704 274.501 284.498C274.856 284.291 274.856 283.96 274.501 283.754C274.146 283.547 273.576 283.547 273.22 283.754C272.865 283.96 272.865 284.291 273.22 284.498Z" fill="#F5F5F5"/>
<path d="M243.454 318.554C248.651 321.556 257.086 321.556 262.282 318.554C267.479 315.553 267.479 310.675 262.282 307.673C257.086 304.672 248.651 304.672 243.454 307.673C238.258 310.675 238.258 315.553 243.454 318.554Z" fill="#37474F"/>
<path d="M264.1 312.643H264.116V290.178H241.629V312.643H241.645C241.555 314.371 242.637 316.123 244.925 317.446C249.312 319.985 256.433 319.985 260.828 317.446C263.117 316.123 264.199 314.379 264.108 312.643H264.1Z" fill="#EBEBEB"/>
<path d="M244.925 294.767C249.312 297.305 256.433 297.305 260.828 294.767C265.215 292.229 265.215 288.119 260.828 285.581C256.441 283.043 249.32 283.043 244.925 285.581C240.538 288.119 240.538 292.229 244.925 294.767Z" fill="#FAFAFA"/>
<path d="M245.412 294.395C249.535 296.726 256.218 296.726 260.341 294.395C264.463 292.063 264.463 288.285 260.341 285.961C256.218 283.63 249.535 283.63 245.412 285.961C241.29 288.293 241.29 292.072 245.412 294.395Z" fill="#EBEBEB"/>
<path d="M260.341 287.053C256.218 284.721 249.535 284.721 245.412 287.053C243.595 288.078 242.587 289.384 242.364 290.724C242.579 292.063 243.595 293.37 245.412 294.395C249.535 296.726 256.218 296.726 260.341 294.395C262.158 293.37 263.166 292.063 263.389 290.724C263.174 289.384 262.158 288.078 260.341 287.053Z" fill="#F5F5F5"/>
<path d="M241.629 308.847C241.612 310.518 242.711 312.196 244.925 313.478C249.312 316.016 256.433 316.016 260.828 313.478C263.026 312.213 264.125 310.542 264.125 308.881V293.841C264.125 295.503 263.026 297.165 260.828 298.438C256.441 300.976 249.32 300.976 244.925 298.438C242.711 297.165 241.621 295.486 241.629 293.808V308.847Z" fill="#D6EBFF"/>
<path opacity="0.3" d="M241.629 308.847C241.612 310.518 242.711 312.196 244.925 313.478C249.312 316.016 256.433 316.016 260.828 313.478C263.026 312.213 264.125 310.542 264.125 308.881V293.841C264.125 295.503 263.026 297.165 260.828 298.438C256.441 300.976 249.32 300.976 244.925 298.438C242.711 297.165 241.621 295.486 241.629 293.808V308.847Z" fill="black"/>
<path d="M255.442 294.188L254.252 293.502C253.286 292.94 253.021 292.187 253.674 291.807C254.327 291.435 255.632 291.584 256.598 292.138L257.788 292.824C258.755 293.386 259.019 294.138 258.366 294.519C257.714 294.891 256.408 294.742 255.442 294.188Z" fill="#E0E0E0"/>
<path d="M254.194 292.849C254.55 293.055 255.12 293.055 255.475 292.849C255.83 292.642 255.83 292.311 255.475 292.104C255.12 291.898 254.55 291.898 254.194 292.104C253.839 292.311 253.839 292.642 254.194 292.849Z" fill="#F5F5F5"/>
<path d="M256.557 294.122C256.912 294.329 257.482 294.329 257.837 294.122C258.193 293.915 258.193 293.585 257.837 293.378C257.482 293.171 256.912 293.171 256.557 293.378C256.202 293.585 256.202 293.915 256.557 294.122Z" fill="#F5F5F5"/>
<path opacity="0.1" d="M257.482 318.778C253.352 319.844 248.32 319.414 244.933 317.446C242.645 316.132 241.563 314.387 241.654 312.643H241.637V290.178C241.637 291.84 242.736 293.51 244.933 294.775C245.28 294.974 246.776 295.891 249.535 296.379V315.379C249.535 317.256 252.286 319.497 257.491 318.778H257.482Z" fill="black"/>
<path d="M226.791 328.178C231.988 331.18 240.423 331.18 245.619 328.178C250.815 325.177 250.815 320.299 245.619 317.298C240.423 314.296 231.988 314.296 226.791 317.298C221.595 320.299 221.595 325.177 226.791 328.178Z" fill="#37474F"/>
<path d="M247.437 322.275H247.453V299.81H224.966V322.275H224.982C224.891 324.003 225.973 325.756 228.262 327.079C232.649 329.617 239.77 329.617 244.165 327.079C246.453 325.756 247.536 324.011 247.445 322.275H247.437Z" fill="#EBEBEB"/>
<path d="M228.262 304.399C232.649 306.938 239.77 306.938 244.165 304.399C248.552 301.861 248.552 297.752 244.165 295.213C239.778 292.675 232.657 292.675 228.262 295.213C223.875 297.752 223.875 301.861 228.262 304.399Z" fill="#FAFAFA"/>
<path d="M228.749 304.027C232.872 306.359 239.555 306.359 243.678 304.027C247.8 301.696 247.8 297.917 243.678 295.594C239.555 293.262 232.872 293.262 228.749 295.594C224.627 297.925 224.627 301.704 228.749 304.027Z" fill="#EBEBEB"/>
<path d="M243.678 296.677C239.555 294.345 232.872 294.345 228.749 296.677C226.932 297.702 225.924 299.008 225.701 300.348C225.916 301.687 226.932 302.994 228.749 304.019C232.872 306.351 239.555 306.351 243.678 304.019C245.495 302.994 246.503 301.687 246.726 300.348C246.511 299.008 245.495 297.702 243.678 296.677Z" fill="#F5F5F5"/>
<path d="M224.966 318.48C224.949 320.15 226.048 321.828 228.262 323.11C232.649 325.648 239.77 325.648 244.165 323.11C246.362 321.845 247.461 320.175 247.461 318.513V303.473C247.461 305.135 246.362 306.797 244.165 308.07C239.778 310.609 232.657 310.609 228.262 308.07C226.048 306.797 224.957 305.118 224.966 303.44V318.48Z" fill="#D6EBFF"/>
<path opacity="0.3" d="M224.966 318.48C224.949 320.15 226.048 321.828 228.262 323.11C232.649 325.648 239.77 325.648 244.165 323.11C246.362 321.845 247.461 320.175 247.461 318.513V303.473C247.461 305.135 246.362 306.797 244.165 308.07C239.778 310.609 232.657 310.609 228.262 308.07C226.048 306.797 224.957 305.118 224.966 303.44V318.48Z" fill="black"/>
<path opacity="0.1" d="M240.811 328.402C236.68 329.468 231.649 329.038 228.262 327.07C225.973 325.756 224.891 324.011 224.982 322.267H224.966V299.802C224.966 301.464 226.064 303.134 228.262 304.399C228.609 304.598 230.104 305.515 232.863 306.003V325.003C232.863 326.88 235.614 329.121 240.819 328.402H240.811Z" fill="black"/>
<path d="M238.778 303.812L237.589 303.126C236.622 302.564 236.358 301.811 237.011 301.431C237.663 301.059 238.969 301.208 239.935 301.762L241.125 302.448C242.091 303.01 242.356 303.763 241.703 304.143C241.05 304.515 239.745 304.366 238.778 303.812Z" fill="#E0E0E0"/>
<path d="M237.531 302.473C237.886 302.679 238.456 302.679 238.812 302.473C239.167 302.266 239.167 301.935 238.812 301.729C238.456 301.522 237.886 301.522 237.531 301.729C237.176 301.935 237.176 302.266 237.531 302.473Z" fill="#F5F5F5"/>
<path d="M239.894 303.754C240.249 303.961 240.819 303.961 241.174 303.754C241.53 303.548 241.53 303.217 241.174 303.01C240.819 302.803 240.249 302.803 239.894 303.01C239.539 303.217 239.539 303.548 239.894 303.754Z" fill="#F5F5F5"/>
<path d="M21.5706 318.769L78.2353 286.027L149.481 327.194L92.8167 359.936L21.5706 318.769Z" fill="black"/>
<path d="M78.2352 286.027V230.036L20.4221 263.439L68.7925 291.484L78.2352 286.027Z" fill="#37474F"/>
<path d="M78.2351 230.036V286.027L102.259 299.91L150.63 271.864L78.2351 230.036Z" fill="#263238"/>
<path d="M20.4221 263.439V318.108L92.8165 359.936V305.366L20.4221 263.439Z" fill="#263238"/>
<path d="M92.8167 305.366V359.936L150.63 326.525V271.864L92.8167 305.366Z" fill="#37474F"/>
<path d="M92.8167 305.366L93.9567 357.853L135.949 335.016L92.8167 359.936V305.366Z" fill="#455A64"/>
<path d="M99.7314 342.383C99.5166 342.383 99.3183 342.333 99.1366 342.226C98.6657 341.953 98.3931 341.358 98.3931 340.589V335.752V335.388L98.6409 335.429L102.425 333.205V338.604C102.425 339.977 101.607 341.531 100.558 342.135C100.277 342.3 99.9875 342.383 99.7231 342.383H99.7314ZM99.0044 336.107V340.58C99.0044 341.126 99.1614 341.531 99.4423 341.697C99.7149 341.854 100.037 341.73 100.26 341.606C101.103 341.118 101.822 339.737 101.822 338.604V338.208H100.417L100.136 336.314L98.9961 336.107H99.0044ZM100.946 337.596H101.822V334.255L99.5579 335.587L100.673 335.785L100.938 337.596H100.946Z" fill="#E0E0E0"/>
<path d="M100.409 346.236C100.243 346.236 100.103 346.104 100.103 345.93V341.87C100.103 341.705 100.235 341.564 100.409 341.564C100.582 341.564 100.714 341.697 100.714 341.87V345.93C100.714 346.095 100.582 346.236 100.409 346.236Z" fill="#E0E0E0"/>
<path d="M98.6492 347.253C98.5418 347.253 98.4426 347.195 98.3848 347.104C98.3022 346.955 98.3518 346.773 98.4922 346.691L102.02 344.657C102.16 344.566 102.35 344.615 102.433 344.764C102.516 344.913 102.466 345.095 102.325 345.178L98.7979 347.211C98.7483 347.236 98.6988 347.253 98.6492 347.253Z" fill="#E0E0E0"/>
<path d="M111.215 340.258C111.099 340.258 110.983 340.233 110.884 340.175C110.653 340.043 110.521 339.778 110.521 339.448V338.613C110.521 338.447 110.653 338.307 110.826 338.307C111 338.307 111.132 338.439 111.132 338.613V339.448C111.132 339.572 111.165 339.638 111.19 339.654C111.215 339.671 111.289 339.654 111.388 339.605C111.653 339.448 111.95 338.844 111.95 338.232V332.833C111.95 332.668 112.082 332.527 112.256 332.527C112.429 332.527 112.561 332.66 112.561 332.833V338.232C112.561 339.026 112.19 339.836 111.702 340.126C111.537 340.217 111.38 340.266 111.223 340.266L111.215 340.258Z" fill="#E0E0E0"/>
<path d="M108.018 335.537V335.008C108.018 332.527 109.761 329.509 111.9 328.269C112.999 327.641 114.048 327.542 114.841 328.005C115.643 328.468 116.089 329.419 116.089 330.684V330.857L108.018 335.52V335.537ZM113.718 328.327C113.255 328.327 112.743 328.484 112.206 328.798C110.389 329.848 108.877 332.296 108.654 334.462L115.478 330.518C115.445 329.567 115.114 328.865 114.536 328.534C114.296 328.393 114.015 328.327 113.718 328.327Z" fill="#E0E0E0"/>
<path d="M122.128 334.032C121.963 334.032 121.822 333.9 121.822 333.726V323.383C121.822 323.217 121.954 323.077 122.128 323.077C122.301 323.077 122.434 323.209 122.434 323.383V333.726C122.434 333.891 122.301 334.032 122.128 334.032Z" fill="#E0E0E0"/>
<path d="M121.236 325.748C121.236 325.748 121.153 325.748 121.112 325.723C120.955 325.657 120.889 325.475 120.955 325.326L122.037 322.829L123.243 324.226C123.35 324.35 123.342 324.54 123.21 324.656C123.078 324.764 122.888 324.755 122.78 324.623L122.21 323.962L121.516 325.574C121.467 325.69 121.351 325.756 121.236 325.756V325.748Z" fill="#E0E0E0"/>
<path d="M124.937 332.428C124.772 332.428 124.631 332.296 124.631 332.122V321.779C124.631 321.613 124.763 321.473 124.937 321.473C125.11 321.473 125.242 321.605 125.242 321.779V332.122C125.242 332.287 125.11 332.428 124.937 332.428Z" fill="#E0E0E0"/>
<path d="M124.045 324.143C124.045 324.143 123.962 324.143 123.921 324.119C123.764 324.052 123.698 323.871 123.764 323.722L124.846 321.225L126.052 322.622C126.16 322.746 126.151 322.936 126.019 323.052C125.887 323.159 125.697 323.151 125.59 323.019L125.019 322.357L124.326 323.97C124.276 324.085 124.16 324.152 124.045 324.152V324.143Z" fill="#E0E0E0"/>
<path d="M32.8143 302.249L48.5935 311.369C48.9818 311.592 49.304 312.155 49.304 312.601V323.581C49.304 324.482 48.6678 324.855 47.883 324.4L32.1038 315.28C31.7155 315.057 31.3933 314.503 31.3933 314.048V303.068C31.3933 302.167 32.0377 301.795 32.8143 302.249Z" fill="#FAFAFA"/>
<path d="M32.4177 303.953L32.9547 304.267V313.957L32.4177 313.643V303.953Z" fill="#455A64"/>
<path d="M34.6069 305.218L35.5322 305.763V315.454L34.6069 314.908V305.218Z" fill="#455A64"/>
<path d="M36.7878 306.474L37.3248 306.789V316.479L36.7878 316.173V306.474Z" fill="#455A64"/>
<path d="M38.4402 307.417L39.5142 308.054V317.744L38.4402 317.107V307.417Z" fill="#455A64"/>
<path d="M41.1582 309.005L41.6952 309.31V319.001L41.1582 318.695V309.005Z" fill="#455A64"/>
<path d="M42.7361 309.889L43.8844 310.575V320.266L42.7361 319.579V309.889Z" fill="#455A64"/>
<path d="M45.5283 311.526L46.0653 311.84V321.531L45.5283 321.216V311.526Z" fill="#455A64"/>
<path d="M46.7759 312.237L47.0485 312.394V322.085L46.7759 321.928V312.237Z" fill="#455A64"/>
<path d="M44.5371 310.997L44.8015 311.154V320.844L44.5371 320.687V310.997Z" fill="#455A64"/>
<path d="M40.1338 308.417L40.3982 308.575V318.265L40.1338 318.108V308.417Z" fill="#455A64"/>
<path d="M37.7214 307.037L37.9941 307.185L37.9858 316.876L37.7214 316.727V307.037Z" fill="#455A64"/>
<path d="M35.9866 306.078L36.2592 306.235V315.925L35.9866 315.768V306.078Z" fill="#455A64"/>
<path d="M33.6404 304.647L33.913 304.804V314.495L33.6404 314.337V304.647Z" fill="#455A64"/>
<path d="M47.7178 312.791L48.2548 313.097V322.787L47.7178 322.482V312.791Z" fill="#455A64"/>
<path d="M78.2352 230.036L20.4221 263.439L92.8166 305.367L150.63 271.864L78.2352 230.036Z" fill="#455A64"/>
<path opacity="0.1" d="M20.4221 263.439L92.8166 303.291L150.63 271.864L92.8166 305.366L20.4221 263.439Z" fill="white"/>
<path d="M44.4131 249.573L116.849 291.435L125.755 286.275L53.3271 244.43L44.4131 249.573Z" fill="#D6EBFF"/>
<path d="M125.755 286.275V297.603L124.681 296.991L123.557 298.917L122.442 298.264L121.327 300.215L120.203 299.554L119.088 301.489L117.964 300.852L116.849 302.787V291.435L125.755 286.275Z" fill="#D6EBFF"/>
<path opacity="0.25" d="M125.755 286.275V297.603L124.681 296.991L123.557 298.917L122.442 298.264L121.327 300.215L120.203 299.554L119.088 301.489L117.964 300.852L116.849 302.787V291.435L125.755 286.275Z" fill="black"/>
<path opacity="0.1" d="M75.4346 233.657L25.0154 262.794L88.4545 299.571L138.874 270.343L75.4346 233.657Z" fill="black"/>
<path d="M34.6069 264.224L76.7482 239.809L130.323 270.781L88.1819 295.131L34.6069 264.224Z" fill="black"/>
<path d="M76.7482 234.624V186.504L33.6238 211.424L75.3768 235.575L76.7482 234.624Z" fill="#37474F"/>
<path d="M76.748 186.504V234.624L89.6854 242.115L131.306 217.981L76.748 186.504Z" fill="#263238"/>
<path d="M33.6238 211.424V263.654L88.1819 295.131V242.984L33.6238 211.424Z" fill="#263238"/>
<path d="M88.1819 242.984V295.131L131.306 270.211V217.981L88.1819 242.984Z" fill="#37474F"/>
<path d="M88.1819 242.984L89.165 293.337L125.292 273.683L88.1819 295.131V242.984Z" fill="#455A64"/>
<path d="M94.13 280.025C93.9483 280.025 93.7748 279.983 93.6178 279.892C93.213 279.661 92.9817 279.14 92.9817 278.479V274.32V274.006L93.1965 274.047L96.4597 272.129V276.775C96.4597 277.958 95.7575 279.289 94.857 279.81C94.6092 279.95 94.3696 280.025 94.1383 280.025H94.13ZM93.5022 274.626V278.479C93.5022 278.95 93.6426 279.297 93.8739 279.438C94.1135 279.57 94.3861 279.471 94.5844 279.363C95.3114 278.942 95.931 277.759 95.931 276.775V276.436H94.7248L94.4853 274.808L93.5022 274.634V274.626ZM95.1709 275.907H95.9227V273.038L93.9813 274.179L94.9479 274.353L95.1792 275.907H95.1709Z" fill="#E0E0E0"/>
<path d="M94.7168 283.34C94.5763 283.34 94.4524 283.225 94.4524 283.076V279.578C94.4524 279.438 94.5681 279.314 94.7168 279.314C94.8655 279.314 94.9811 279.429 94.9811 279.578V283.076C94.9811 283.216 94.8655 283.34 94.7168 283.34Z" fill="#E0E0E0"/>
<path d="M93.1965 284.217C93.1057 284.217 93.0148 284.167 92.9735 284.084C92.8991 283.96 92.9404 283.803 93.0726 283.729L96.1128 281.976C96.2367 281.902 96.3937 281.943 96.468 282.075C96.5424 282.199 96.5011 282.356 96.3689 282.431L93.3287 284.184C93.3287 284.184 93.2461 284.217 93.1965 284.217Z" fill="#E0E0E0"/>
<path d="M104.019 278.198C103.92 278.198 103.821 278.173 103.73 278.123C103.531 278.007 103.416 277.776 103.416 277.495V276.775C103.416 276.635 103.531 276.511 103.68 276.511C103.829 276.511 103.944 276.627 103.944 276.775V277.495C103.944 277.602 103.978 277.66 103.994 277.668C104.019 277.677 104.077 277.668 104.168 277.627C104.399 277.495 104.655 276.974 104.655 276.445V271.798C104.655 271.657 104.771 271.533 104.919 271.533C105.068 271.533 105.184 271.649 105.184 271.798V276.445C105.184 277.123 104.862 277.825 104.44 278.074C104.3 278.156 104.159 278.198 104.027 278.198H104.019Z" fill="#E0E0E0"/>
<path d="M101.26 274.138V273.683C101.26 271.55 102.755 268.954 104.606 267.887C105.547 267.341 106.448 267.259 107.142 267.664C107.836 268.061 108.216 268.879 108.216 269.971V270.12L101.268 274.138H101.26ZM106.167 267.937C105.77 267.937 105.324 268.069 104.862 268.342C103.292 269.243 101.995 271.352 101.805 273.22L107.679 269.822C107.646 269.003 107.365 268.4 106.869 268.119C106.663 267.995 106.423 267.937 106.159 267.937H106.167Z" fill="#E0E0E0"/>
<path d="M113.404 272.84C113.263 272.84 113.139 272.724 113.139 272.575V263.67C113.139 263.53 113.255 263.406 113.404 263.406C113.552 263.406 113.668 263.522 113.668 263.67V272.575C113.668 272.716 113.552 272.84 113.404 272.84Z" fill="#E0E0E0"/>
<path d="M112.635 265.704C112.635 265.704 112.569 265.704 112.528 265.68C112.396 265.622 112.338 265.465 112.396 265.332L113.329 263.183L114.37 264.382C114.47 264.489 114.453 264.654 114.346 264.754C114.23 264.845 114.073 264.836 113.974 264.729L113.478 264.158L112.875 265.547C112.834 265.647 112.735 265.704 112.635 265.704Z" fill="#E0E0E0"/>
<path d="M115.816 271.459C115.676 271.459 115.552 271.343 115.552 271.194V262.29C115.552 262.149 115.667 262.025 115.816 262.025C115.965 262.025 116.08 262.141 116.08 262.29V271.194C116.08 271.335 115.965 271.459 115.816 271.459Z" fill="#E0E0E0"/>
<path d="M115.056 264.332C115.056 264.332 114.99 264.332 114.949 264.307C114.817 264.249 114.759 264.092 114.817 263.96L115.75 261.81L116.791 263.009C116.89 263.116 116.874 263.282 116.766 263.381C116.651 263.472 116.494 263.464 116.394 263.356L115.899 262.786L115.296 264.175C115.254 264.274 115.155 264.332 115.056 264.332Z" fill="#E0E0E0"/>
<path d="M76.7482 186.504L33.6238 211.424L88.1819 242.984L131.306 217.981L76.7482 186.504Z" fill="#455A64"/>
<path opacity="0.1" d="M33.6238 211.424L87.9754 241.123L131.306 217.981L88.1819 242.984L33.6238 211.424Z" fill="white"/>
<path d="M52.7903 200.345L107.39 231.855L115.048 227.415L60.4568 195.921L52.7903 200.345Z" fill="#D6EBFF"/>
<path d="M115.048 227.415V237.163L114.123 236.634L113.164 238.296L112.198 237.725L111.239 239.412L110.273 238.841L109.315 240.503L108.348 239.957L107.39 241.619V231.855L115.048 227.415Z" fill="#D6EBFF"/>
<path opacity="0.25" d="M115.048 227.415V237.163L114.123 236.634L113.164 238.296L112.198 237.725L111.239 239.412L110.273 238.841L109.315 240.503L108.348 239.957L107.39 241.619V231.855L115.048 227.415Z" fill="black"/>
<path d="M42.4551 250.954L58.2344 260.074C58.6226 260.297 58.9448 260.859 58.9448 261.306V272.286C58.9448 273.187 58.3087 273.559 57.5239 273.104L41.7447 263.985C41.3564 263.761 41.0342 263.199 41.0342 262.753V251.773C41.0342 250.871 41.6786 250.499 42.4551 250.954Z" fill="#FAFAFA"/>
<path d="M42.0669 252.666L42.6039 252.98V262.67L42.0669 262.356V252.666Z" fill="#455A64"/>
<path d="M44.2478 253.931L45.1731 254.476V264.166L44.2478 263.621V253.931Z" fill="#455A64"/>
<path d="M46.4373 255.187L46.9742 255.502V265.192L46.4373 264.878V255.187Z" fill="#455A64"/>
<path d="M48.0813 256.122L49.1635 256.766L49.1553 266.457L48.0813 265.812V256.122Z" fill="#455A64"/>
<path d="M50.8074 257.717L51.3444 258.023V267.714L50.8074 267.408V257.717Z" fill="#455A64"/>
<path d="M52.3853 258.602L53.5336 259.288V268.979L52.3853 268.292V258.602Z" fill="#455A64"/>
<path d="M55.1777 260.239L55.7147 260.553V270.244L55.1777 269.929V260.239Z" fill="#455A64"/>
<path d="M56.4253 260.95L56.6979 261.107V270.798L56.4253 270.64V260.95Z" fill="#455A64"/>
<path d="M54.1863 259.71L54.4506 259.867V269.557L54.1863 269.4V259.71Z" fill="#455A64"/>
<path d="M49.783 257.13L50.0473 257.287V266.978L49.783 266.821V257.13Z" fill="#455A64"/>
<path d="M47.3706 255.75L47.635 255.898V265.589L47.3706 265.44V255.75Z" fill="#455A64"/>
<path d="M45.6357 254.79L45.9084 254.948V264.638L45.6357 264.481V254.79Z" fill="#455A64"/>
<path d="M43.2896 253.36L43.5539 253.517V263.207L43.2896 263.05V253.36Z" fill="#455A64"/>
<path d="M57.3669 261.504L57.9039 261.81V271.5L57.3669 271.194V261.504Z" fill="#455A64"/>
<path d="M155.355 117.391L28.5017 190.688V74.1734L155.355 0.876465V117.391Z" fill="white"/>
<path d="M28.5017 191.564C28.353 191.564 28.196 191.523 28.0638 191.448C27.7912 191.291 27.626 191.002 27.626 190.696V74.1733C27.626 73.8591 27.7912 73.5698 28.0638 73.4127L154.917 0.115746C155.19 -0.0413488 155.52 -0.0413488 155.793 0.115746C156.066 0.27284 156.231 0.562224 156.231 0.868145V117.383C156.231 117.697 156.066 117.986 155.793 118.135L28.9395 191.448C28.8074 191.523 28.6504 191.564 28.5017 191.564ZM29.3774 74.6777V189.175L154.488 116.886V2.38948L29.3691 74.6777H29.3774Z" fill="#E0E0E0"/>
<path d="M97.5254 46.2519L94.6587 47.9056V116.258L97.5254 114.605V46.2519ZM43.6117 170.257L45.0409 169.43V76.5298L43.6117 77.3566V170.249V170.257ZM50.8404 73.2391L47.9737 74.8927V143.245L50.8404 141.592V73.2391ZM66.8923 145.312C66.4875 144.998 66.0166 144.866 65.4713 144.899C64.9261 144.94 64.3478 145.139 63.7282 145.494C63.0342 145.891 62.489 146.338 62.1007 146.817C61.7124 147.297 61.4563 147.644 61.3324 147.851L61.7206 141.162L67.0492 138.078C67.3219 137.921 67.4623 137.631 67.4623 137.21V136.755C67.4623 136.333 67.3219 136.201 67.0492 136.358L60.9936 139.855C60.7458 139.996 60.6136 140.294 60.5806 140.748L60.0271 150.43C60.0188 150.612 60.0518 150.736 60.1427 150.811C60.2253 150.885 60.3327 150.885 60.4401 150.819L60.7788 150.629C60.9771 150.513 61.1506 150.323 61.3076 150.05C61.4645 149.777 61.638 149.479 61.8446 149.149C62.0511 148.818 62.2989 148.487 62.5881 148.132C62.8772 147.784 63.2573 147.47 63.7282 147.197C64.1908 146.933 64.6204 146.792 65.0169 146.768C65.4217 146.743 65.7687 146.85 66.0661 147.082C66.3635 147.305 66.6031 147.66 66.7683 148.148C66.9418 148.636 67.0327 149.248 67.0327 149.992C67.0327 150.794 66.9501 151.555 66.7683 152.274C66.5949 152.993 66.3635 153.655 66.0661 154.242C65.7687 154.837 65.4217 155.358 65.0169 155.805C64.6204 156.259 64.1825 156.615 63.7282 156.879C63.3894 157.07 63.0672 157.202 62.7368 157.268C62.4063 157.334 62.1089 157.309 61.828 157.194C61.5472 157.078 61.3076 156.855 61.101 156.54C60.8945 156.218 60.7458 155.771 60.6467 155.201C60.5971 154.945 60.531 154.796 60.4484 154.771C60.3658 154.738 60.2832 154.755 60.184 154.812L59.8288 155.019C59.7131 155.085 59.6223 155.184 59.5479 155.325C59.4736 155.466 59.4405 155.614 59.457 155.78C59.4653 156.441 59.5727 157.028 59.771 157.541C59.9692 158.062 60.2419 158.459 60.6054 158.74C60.9606 159.029 61.4067 159.178 61.9189 159.178C62.4394 159.178 63.0425 158.988 63.7199 158.599C64.3395 158.244 64.9178 157.764 65.463 157.177C66.0083 156.582 66.4792 155.887 66.884 155.094C67.2888 154.3 67.6027 153.423 67.8423 152.456C68.0736 151.489 68.1976 150.439 68.1976 149.322C68.1976 148.272 68.0819 147.421 67.8423 146.759C67.6027 146.106 67.2888 145.618 66.884 145.312H66.8923ZM56.4086 144.345C56.0368 143.932 55.5742 143.684 55.0207 143.617C54.4754 143.543 53.8228 143.717 53.0792 144.147C52.3357 144.576 51.6913 145.147 51.1378 145.858C50.5843 146.569 50.1299 147.338 49.7664 148.181C49.3947 149.025 49.122 149.885 48.9486 150.769C48.7668 151.662 48.6759 152.506 48.6759 153.299C48.6759 154.093 48.7668 154.845 48.9486 155.523C49.1303 156.21 49.4029 156.747 49.7664 157.161C50.1299 157.566 50.5843 157.814 51.1378 157.888C51.6913 157.954 52.3357 157.781 53.0792 157.351C53.5088 157.103 53.9136 156.788 54.2854 156.425L51.3526 164.478C51.3278 164.527 51.3113 164.594 51.2865 164.66C51.27 164.726 51.2617 164.809 51.2617 164.9C51.2617 165.073 51.2948 165.197 51.3609 165.288C51.427 165.371 51.5178 165.379 51.6335 165.321L52.0053 165.106C52.1788 165.007 52.3027 164.858 52.377 164.676C52.4514 164.494 52.5175 164.337 52.5836 164.205L56.4086 153.663C56.5242 153.365 56.6399 153.026 56.7638 152.63C56.8877 152.233 57.0034 151.803 57.1191 151.34C57.2347 150.868 57.3256 150.381 57.3999 149.86C57.4743 149.339 57.5156 148.793 57.5156 148.214C57.5156 147.412 57.4247 146.677 57.243 145.99C57.0612 145.312 56.7886 144.767 56.4168 144.353L56.4086 144.345ZM56.0699 151.05C55.8964 151.753 55.6651 152.398 55.3676 152.985C55.0702 153.58 54.7233 154.101 54.3267 154.556C53.9302 155.011 53.5171 155.366 53.0792 155.614C52.6414 155.862 52.2366 155.986 51.84 155.986C51.4518 155.986 51.1048 155.854 50.8074 155.606C50.51 155.358 50.2704 154.986 50.0969 154.482C49.9234 153.977 49.8408 153.357 49.8408 152.613C49.8408 151.869 49.9234 151.141 50.0969 150.439C50.2704 149.727 50.51 149.074 50.8074 148.479C51.1048 147.884 51.4518 147.363 51.84 146.908C52.2283 146.453 52.6414 146.098 53.0792 145.85C53.5171 145.602 53.9302 145.478 54.3267 145.469C54.7233 145.469 55.0702 145.593 55.3676 145.841C55.6651 146.09 55.9046 146.47 56.0699 146.982C56.2434 147.487 56.3342 148.115 56.3342 148.859C56.3342 149.603 56.2516 150.323 56.0699 151.034V151.05ZM67.041 132.538L68.4702 131.711V63.3587L67.041 64.1855V132.538ZM40.365 172.126L41.7942 171.299V78.3984L40.365 79.2252V172.118V172.126ZM74.1788 59.7455L71.3121 61.3991V129.743L74.1788 128.09V59.7372V59.7455ZM77.7229 57.786L76.2854 58.6128V126.965L77.7147 126.139V57.786H77.7229ZM55.9377 70.2378L54.5002 71.0646V139.409L55.9294 138.582V70.2295L55.9377 70.2378ZM64.5873 65.343L59.647 68.1459V136.49L64.5873 133.687V65.3348V65.343ZM129.613 27.6486L128.175 28.4755V96.828L129.604 96.0012V27.6486H129.613ZM125.655 102.5L118.485 106.642C118.212 106.799 118.08 107.097 118.08 107.535V107.965C118.08 108.387 118.22 108.519 118.485 108.362L124.821 104.699L120.046 124.89C120.021 125.022 120.005 125.113 120.005 125.171C120.005 125.345 120.038 125.469 120.112 125.552C120.178 125.634 120.269 125.651 120.376 125.585L120.765 125.361C120.905 125.279 121.004 125.138 121.07 124.94C121.136 124.733 121.194 124.543 121.252 124.361L125.953 104.476C126.002 104.253 126.035 104.071 126.052 103.914C126.077 103.757 126.085 103.567 126.085 103.343V102.913C126.085 102.475 125.945 102.335 125.655 102.5ZM112.685 130.033L114.114 129.206V36.9172L112.685 37.744V130.033ZM124.664 98.862L126.093 98.0352V29.6826L124.664 30.5094V98.862ZM120.872 32.7583L118.005 34.412V102.765L120.872 101.111V32.7583ZM135.577 115.084L129.357 118.681L133.702 109.354C134.388 107.99 134.892 106.75 135.23 105.642C135.569 104.534 135.734 103.385 135.734 102.202C135.734 101.458 135.66 100.772 135.52 100.152C135.379 99.5234 135.148 99.0439 134.834 98.6884C134.52 98.3328 134.115 98.1427 133.619 98.1013C133.124 98.06 132.521 98.2502 131.818 98.6553C131.116 99.0604 130.505 99.5979 130.001 100.268C129.497 100.937 129.076 101.648 128.753 102.426C128.423 103.194 128.175 103.98 128.018 104.782C127.861 105.584 127.77 106.312 127.754 106.965C127.754 107.329 127.886 107.436 128.142 107.279L128.514 107.064C128.588 107.023 128.671 106.923 128.77 106.766C128.861 106.609 128.919 106.403 128.943 106.163C129.043 104.865 129.332 103.699 129.819 102.665C130.307 101.632 130.967 100.871 131.827 100.375C132.719 99.8624 133.405 99.8294 133.867 100.284C134.338 100.739 134.569 101.607 134.569 102.88C134.569 103.319 134.545 103.74 134.495 104.137C134.446 104.542 134.355 104.964 134.231 105.402C134.099 105.849 133.925 106.336 133.702 106.866C133.479 107.395 133.198 108.007 132.851 108.709L128.035 118.904C127.861 119.251 127.737 119.532 127.671 119.756C127.605 119.979 127.572 120.185 127.572 120.367V120.797C127.572 121.219 127.713 121.351 127.985 121.194L135.602 116.796C135.883 116.63 136.032 116.341 136.032 115.919V115.489C136.032 115.051 135.891 114.91 135.602 115.076L135.577 115.084ZM78.3425 131.926C78.0038 131.397 77.5494 131.083 76.9877 130.975C76.4259 130.868 75.7237 131.066 74.881 131.546C74.0384 132.034 73.3361 132.654 72.7744 133.406C72.2126 134.159 71.7582 135.002 71.4112 135.928C71.0643 136.854 70.8164 137.838 70.6677 138.88C70.519 139.922 70.4364 140.972 70.4281 142.022C70.4033 143.675 70.4033 145.279 70.4281 146.834C70.4364 147.875 70.519 148.835 70.6842 149.686C70.8412 150.554 71.0808 151.249 71.4278 151.778C71.7665 152.299 72.2208 152.621 72.7826 152.729C73.3444 152.836 74.0466 152.638 74.8893 152.158C75.7319 151.679 76.4342 151.05 76.9959 150.298C77.5577 149.546 78.0121 148.702 78.3508 147.784C78.6895 146.858 78.9374 145.883 79.0861 144.841C79.2348 143.808 79.3256 142.749 79.3504 141.691C79.3752 140.112 79.3752 138.508 79.3504 136.879C79.3422 135.837 79.2595 134.886 79.0943 134.018C78.9373 133.158 78.6978 132.455 78.3508 131.926H78.3425ZM78.1608 142.22C78.136 144.204 77.8551 145.908 77.3264 147.338C76.7977 148.777 75.9798 149.81 74.8727 150.447C73.774 151.083 72.9561 150.993 72.4191 150.174C71.8821 149.355 71.6095 147.975 71.5847 146.023C71.5682 145.213 71.5599 144.461 71.5599 143.758C71.5599 143.055 71.5599 142.311 71.5847 141.501C71.6095 139.558 71.8904 137.863 72.4191 136.408C72.9479 134.952 73.7657 133.911 74.8727 133.274C75.9633 132.646 76.7811 132.745 77.3181 133.58C77.8551 134.415 78.136 135.787 78.1608 137.706C78.169 138.499 78.1856 139.244 78.1856 139.938C78.1856 140.633 78.1773 141.402 78.1608 142.228V142.22ZM133.595 93.744L136.461 92.0904V23.7461L133.595 25.3997V93.7523V93.744ZM140.336 21.5054V114.051L143.203 112.397V19.8518L140.336 21.5054ZM88.7188 123.84L81.5479 127.982C81.2753 128.139 81.1431 128.437 81.1431 128.875V129.305C81.1431 129.727 81.2836 129.859 81.5479 129.702L87.8844 126.039L83.1093 146.23C83.0846 146.362 83.068 146.453 83.068 146.511C83.068 146.685 83.1011 146.809 83.1754 146.892C83.2415 146.974 83.3324 146.991 83.4398 146.925L83.8281 146.701C83.9685 146.619 84.0677 146.478 84.1338 146.28C84.1998 146.073 84.2577 145.883 84.3155 145.701L89.0162 125.816C89.0658 125.593 89.0988 125.411 89.1154 125.254C89.1401 125.097 89.1484 124.907 89.1484 124.683V124.253C89.1484 123.815 89.008 123.675 88.7188 123.84ZM89.1732 119.474L90.6024 118.648V50.3033L89.1732 51.1301V119.483V119.474ZM103.061 111.289L109.19 107.849V39.5051L103.061 42.9447V111.297V111.289ZM85.8521 52.9904L80.1105 56.215V124.568L85.8439 121.343V52.9904H85.8521ZM105.522 114.125L105.167 114.332C105.085 114.381 105.002 114.439 104.928 114.497C104.853 114.555 104.771 114.662 104.688 114.811L100.731 121.79C100.632 121.963 100.574 122.128 100.566 122.302C100.557 122.467 100.59 122.608 100.657 122.716L100.863 122.997C101.02 123.228 101.218 123.154 101.441 122.782L104.762 116.911V133.968C104.762 134.39 104.903 134.522 105.175 134.365L105.531 134.159C105.803 134.002 105.944 133.712 105.944 133.29V114.514C105.944 114.092 105.803 113.96 105.531 114.117L105.522 114.125ZM98.6325 136.424L92.4117 140.021L96.7571 130.694C97.4428 129.33 97.9468 128.09 98.2855 126.982C98.6242 125.874 98.7894 124.725 98.7894 123.542C98.7894 122.798 98.7151 122.112 98.5746 121.492C98.4342 120.863 98.2029 120.384 97.8889 120.028C97.575 119.673 97.1702 119.483 96.6745 119.441C96.1788 119.4 95.5758 119.59 94.8735 119.995C94.1713 120.4 93.56 120.938 93.056 121.608C92.5521 122.277 92.1308 122.988 91.8086 123.766C91.4781 124.535 91.2303 125.32 91.0733 126.122C90.9163 126.924 90.8255 127.652 90.8089 128.305C90.8089 128.669 90.9411 128.776 91.1972 128.619L91.569 128.404C91.6433 128.363 91.726 128.263 91.8251 128.106C91.916 127.949 91.9738 127.743 91.9986 127.503C92.0977 126.205 92.3869 125.039 92.8743 124.005C93.3617 122.972 94.0226 122.211 94.8818 121.715C95.774 121.202 96.4597 121.169 96.9224 121.624C97.3933 122.079 97.6246 122.947 97.6246 124.22C97.6246 124.659 97.5998 125.08 97.5502 125.477C97.5007 125.882 97.4098 126.304 97.2859 126.742C97.1537 127.189 96.9802 127.676 96.7571 128.206C96.5341 128.735 96.2532 129.347 95.9062 130.049L91.0898 140.244C90.9163 140.591 90.7924 140.872 90.7263 141.096C90.6602 141.319 90.6272 141.526 90.6272 141.707V142.137C90.6272 142.559 90.7676 142.691 91.0403 142.534L98.6572 138.136C98.9381 137.97 99.0868 137.681 99.0868 137.259V136.829C99.0868 136.391 98.9464 136.25 98.6572 136.416L98.6325 136.424Z" fill="#455A64"/>
</g>
<defs>
<clipPath id="clip0_69_1227">
<rect width="398" height="392" fill="white"/>
</clipPath>
</defs>
</svg>
